<svg width="24" height="24" viewBox="0 0 24 24" fill="none" xmlns="http://www.w3.org/2000/svg">
<g id="icon/add">
<path id="Vector" d="M11.7515 3C12.1312 3 12.4451 3.28201 12.4948 3.64808L12.5017 3.74985L12.5029 11H19.756C20.1702 11 20.506 11.3358 20.506 11.75C20.506 12.1297 20.2238 12.4435 19.8578 12.4932L19.756 12.5H12.5029L12.5049 19.7491C12.505 20.1633 12.1693 20.4993 11.7551 20.4993C11.3754 20.4993 11.0615 20.2173 11.0118 19.8512L11.0049 19.7494L11.0029 12.5H3.75391C3.33969 12.5 3.00391 12.1642 3.00391 11.75C3.00391 11.3703 3.28606 11.0565 3.65214 11.0068L3.75391 11H11.0029L11.0017 3.75015C11.0016 3.33594 11.3373 3 11.7515 3Z" fill="#5C4928"/>
</g>
</svg>
