<svg width="24" height="25" viewBox="0 0 24 25" fill="none" xmlns="http://www.w3.org/2000/svg">
<g id="icon/calendar">
<path id="Vector" d="M17.75 3.81494C19.5449 3.81494 21 5.27001 21 7.06494V18.5649C21 20.3598 19.5449 21.8149 17.75 21.8149H6.25C4.45507 21.8149 3 20.3598 3 18.5649V7.06494C3 5.27001 4.45507 3.81494 6.25 3.81494H17.75ZM19.5 9.31494H4.5V18.5649C4.5 19.5314 5.2835 20.3149 6.25 20.3149H17.75C18.7165 20.3149 19.5 19.5314 19.5 18.5649V9.31494ZM7.75 15.3149C8.44036 15.3149 9 15.8745 9 16.5649C9 17.2553 8.44036 17.8149 7.75 17.8149C7.05964 17.8149 6.5 17.2553 6.5 16.5649C6.5 15.8745 7.05964 15.3149 7.75 15.3149ZM12 15.3149C12.6904 15.3149 13.25 15.8745 13.25 16.5649C13.25 17.2553 12.6904 17.8149 12 17.8149C11.3096 17.8149 10.75 17.2553 10.75 16.5649C10.75 15.8745 11.3096 15.3149 12 15.3149ZM7.75 11.3149C8.44036 11.3149 9 11.8745 9 12.5649C9 13.2553 8.44036 13.8149 7.75 13.8149C7.05964 13.8149 6.5 13.2553 6.5 12.5649C6.5 11.8745 7.05964 11.3149 7.75 11.3149ZM12 11.3149C12.6904 11.3149 13.25 11.8745 13.25 12.5649C13.25 13.2553 12.6904 13.8149 12 13.8149C11.3096 13.8149 10.75 13.2553 10.75 12.5649C10.75 11.8745 11.3096 11.3149 12 11.3149ZM16.25 11.3149C16.9404 11.3149 17.5 11.8745 17.5 12.5649C17.5 13.2553 16.9404 13.8149 16.25 13.8149C15.5596 13.8149 15 13.2553 15 12.5649C15 11.8745 15.5596 11.3149 16.25 11.3149ZM17.75 5.31494H6.25C5.2835 5.31494 4.5 6.09844 4.5 7.06494V7.81494H19.5V7.06494C19.5 6.09844 18.7165 5.31494 17.75 5.31494Z" fill="#5C4928"/>
</g>
</svg>
