<svg width="20" height="21" viewBox="0 0 20 21" fill="none" xmlns="http://www.w3.org/2000/svg">
<g id="icon/comment">
<path id="Vector" d="M10.0013 2.16602C14.6036 2.16602 18.3346 5.89697 18.3346 10.4993C18.3346 15.1017 14.6036 18.8327 10.0013 18.8327C8.65272 18.8327 7.34949 18.5115 6.17869 17.906L2.9905 18.7954C2.4364 18.9502 1.86179 18.6264 1.70706 18.0724C1.65585 17.889 1.65588 17.6951 1.70709 17.5119L2.59681 14.3262C1.98994 13.1543 1.66797 11.8496 1.66797 10.4993C1.66797 5.89697 5.39893 2.16602 10.0013 2.16602ZM10.0013 3.41602C6.08929 3.41602 2.91797 6.58733 2.91797 10.4993C2.91797 11.724 3.22861 12.9022 3.81216 13.9473L3.9377 14.172L3.01044 17.4922L6.33259 16.5654L6.55721 16.6906C7.60135 17.2728 8.77814 17.5827 10.0013 17.5827C13.9133 17.5827 17.0846 14.4114 17.0846 10.4993C17.0846 6.58733 13.9133 3.41602 10.0013 3.41602Z" fill="#5C4928"/>
</g>
</svg>
