<svg width="244" height="128" viewBox="0 0 244 128" fill="none" xmlns="http://www.w3.org/2000/svg">
<g clip-path="url(#clip0_2491_8641)">
<path d="M109.64 59.5301C109.3 56.1701 108.86 52.8301 108.35 49.5301C107.84 46.2301 107.27 42.8201 106.58 39.5301C106.24 37.8801 104.74 31.3301 104.34 29.7001C103.55 26.4301 102.72 23.1801 101.89 19.9201C101.85 19.7793 101.867 19.6284 101.936 19.4997C102.006 19.371 102.124 19.2748 102.264 19.2317C102.404 19.1885 102.555 19.2019 102.685 19.2689C102.815 19.3359 102.914 19.4512 102.96 19.5901C104.072 22.7932 105.019 26.0507 105.8 29.3501C106.2 30.9901 106.55 32.6501 106.88 34.3501C107.21 36.0501 107.49 37.6801 107.76 39.3501C108.3 42.6901 108.76 46.0501 109.09 49.4101C109.42 52.7701 109.65 56.1501 109.79 59.5301C109.79 59.5486 109.783 59.5665 109.77 59.5796C109.756 59.5927 109.739 59.6001 109.72 59.6001L109.64 59.5301Z" fill="#CD9F52"/>
<path d="M119.71 52.4299C119.83 50.2299 120.03 48.0199 120.31 45.8299C120.59 43.6399 120.98 41.4399 121.43 39.2699C121.866 37.0932 122.413 34.9404 123.07 32.8199C123.739 30.6996 124.537 28.6224 125.46 26.5999C125.525 26.4658 125.64 26.3625 125.78 26.312C125.92 26.2615 126.074 26.268 126.21 26.3299C126.336 26.3852 126.437 26.4857 126.492 26.6116C126.548 26.7375 126.554 26.8796 126.51 27.0099C125.85 29.0999 125.14 31.1699 124.51 33.2699C123.88 35.3699 123.2 37.4399 122.61 39.5499C122.02 41.6599 121.52 43.7999 121.06 45.9499C120.6 48.0999 120.19 50.2699 119.87 52.4499C119.871 52.4598 119.869 52.4697 119.864 52.4787C119.86 52.4876 119.854 52.4954 119.846 52.5014C119.838 52.5073 119.829 52.5112 119.819 52.5127C119.809 52.5142 119.799 52.5132 119.79 52.5099C119.769 52.5099 119.748 52.5015 119.733 52.4865C119.718 52.4715 119.71 52.4511 119.71 52.4299Z" fill="#CD9F52"/>
<path d="M96.8302 52.83C95.4522 49.3299 93.8488 45.9227 92.0302 42.63C91.1302 40.99 90.1302 39.4 89.1902 37.79C88.2502 36.18 87.1902 34.61 86.2702 33C86.2268 32.9402 86.1957 32.8725 86.1785 32.8007C86.1613 32.729 86.1585 32.6545 86.1701 32.5816C86.1817 32.5087 86.2075 32.4388 86.2462 32.3759C86.2848 32.313 86.3354 32.2583 86.3952 32.215C86.4549 32.1716 86.5226 32.1405 86.5944 32.1233C86.6662 32.1062 86.7407 32.1033 86.8135 32.1149C86.8864 32.1265 86.9563 32.1524 87.0192 32.191C87.0821 32.2296 87.1368 32.2802 87.1802 32.34C88.3845 33.8215 89.4838 35.3853 90.4702 37.02C91.4512 38.6538 92.3296 40.347 93.1002 42.09C94.7026 45.5358 95.9976 49.1164 96.9702 52.79C96.9807 52.8026 96.9865 52.8185 96.9865 52.835C96.9865 52.8514 96.9807 52.8674 96.9702 52.88C96.9596 52.892 96.9456 52.9006 96.9301 52.9046C96.9146 52.9086 96.8983 52.9079 96.8832 52.9025C96.8681 52.8971 96.855 52.8873 96.8456 52.8744C96.8361 52.8615 96.8307 52.846 96.8302 52.83Z" fill="#CD9F52"/>
<path d="M126.76 58.0901C127.664 55.2529 128.767 52.4827 130.06 49.8001C131.363 47.1109 132.85 44.5147 134.51 42.0301C135.35 40.7901 136.21 39.5601 137.13 38.3801C138.05 37.2001 139.02 36.0501 140.04 34.9501C142.068 32.7502 144.294 30.7417 146.69 28.9501C146.748 28.9052 146.814 28.8724 146.885 28.8536C146.956 28.8347 147.03 28.8303 147.103 28.8406C147.176 28.8508 147.246 28.8755 147.309 28.9132C147.372 28.9509 147.427 29.0009 147.47 29.0601C147.554 29.173 147.594 29.3132 147.581 29.4535C147.568 29.5939 147.504 29.7245 147.4 29.8201C145.23 31.8201 143.13 33.8201 141.14 36.0001C139.141 38.1483 137.259 40.4015 135.5 42.7501C133.747 45.1149 132.154 47.5937 130.73 50.1701C129.282 52.75 128.006 55.4225 126.91 58.1701C126.903 58.1767 126.896 58.182 126.887 58.1856C126.878 58.1892 126.869 58.1911 126.86 58.1911C126.851 58.1911 126.841 58.1892 126.833 58.1856C126.824 58.182 126.816 58.1767 126.81 58.1701C126.793 58.1654 126.779 58.1546 126.769 58.1398C126.76 58.125 126.757 58.1072 126.76 58.0901Z" fill="#CD9F52"/>
<path d="M94.6701 65.42C93.0589 63.0674 91.2916 60.8257 89.3801 58.71C87.4936 56.5727 85.4621 54.568 83.3001 52.71C81.1325 50.8905 78.8692 49.1881 76.5201 47.61C74.1801 46.01 71.7501 44.6099 69.2701 43.1999C69.1532 43.1263 69.0677 43.012 69.03 42.879C68.9923 42.7461 69.0051 42.6039 69.0659 42.4798C69.1267 42.3558 69.2312 42.2586 69.3594 42.2069C69.4875 42.1552 69.6302 42.1527 69.7601 42.1999C72.4112 43.3611 74.9516 44.7602 77.3501 46.3799C79.7518 47.9966 82.0101 49.8166 84.1001 51.82C86.2015 53.7956 88.1566 55.9212 89.9501 58.18C91.7331 60.4356 93.3538 62.8149 94.8001 65.2999C94.8142 65.3148 94.822 65.3345 94.822 65.3549C94.822 65.3754 94.8142 65.3951 94.8001 65.4099C94.8001 65.4099 94.7001 65.45 94.6701 65.42Z" fill="#CD9F52"/>
<path d="M156.87 16.7201L155.71 21.3401L158.87 24.9101L154.11 25.2501L151.69 29.3501L149.9 24.9301L145.25 23.8901L148.91 20.8301L148.45 16.0901L152.49 18.6101L156.87 16.7201Z" fill="#CD9F52"/>
<path d="M107.14 16.31L100.93 14.41L95.8498 18.43L95.7398 11.95L90.3398 8.35L96.4799 6.25L98.2198 0L102.12 5.19L108.61 4.92L104.88 10.23L107.14 16.31Z" fill="#CD9F52"/>
<path d="M56.4399 32.7701L61.2399 34.0701L65.0299 30.8601L65.2799 35.8201L69.5099 38.4401L64.8599 40.2001L63.6899 45.0401L60.5699 41.1601L55.6099 41.5401L58.3299 37.3801L56.4399 32.7701Z" fill="#CD9F52"/>
<path d="M148.96 45.7001C148.96 45.087 149.142 44.4876 149.482 43.9778C149.823 43.468 150.307 43.0707 150.874 42.8361C151.44 42.6014 152.063 42.54 152.665 42.6597C153.266 42.7793 153.818 43.0745 154.252 43.5081C154.686 43.9416 154.981 44.494 155.1 45.0953C155.22 45.6967 155.159 46.32 154.924 46.8864C154.689 47.4529 154.292 47.937 153.782 48.2777C153.272 48.6183 152.673 48.8001 152.06 48.8001C151.238 48.8001 150.449 48.4735 149.868 47.8921C149.287 47.3108 148.96 46.5223 148.96 45.7001Z" fill="#CD9F52"/>
<path d="M71.27 58.11C71.27 57.6827 71.3967 57.2651 71.634 56.9099C71.8714 56.5547 72.2087 56.2779 72.6034 56.1144C72.9981 55.9509 73.4324 55.9081 73.8514 55.9915C74.2704 56.0748 74.6553 56.2805 74.9574 56.5826C75.2594 56.8847 75.4652 57.2696 75.5485 57.6886C75.6319 58.1076 75.5891 58.5419 75.4256 58.9365C75.2621 59.3312 74.9853 59.6686 74.6301 59.9059C74.2748 60.1433 73.8572 60.27 73.43 60.27C72.8572 60.27 72.3078 60.0424 71.9027 59.6373C71.4976 59.2322 71.27 58.6828 71.27 58.11Z" fill="#CD9F52"/>
<path d="M0 94.5299C0 93.9168 0.181813 93.3175 0.522446 92.8077C0.863078 92.2979 1.34723 91.9005 1.91368 91.6659C2.48013 91.4313 3.10344 91.3699 3.70478 91.4895C4.30612 91.6091 4.85849 91.9044 5.29203 92.3379C5.72557 92.7714 6.02082 93.3238 6.14043 93.9252C6.26005 94.5265 6.19866 95.1498 5.96403 95.7163C5.7294 96.2827 5.33206 96.7669 4.82227 97.1075C4.31248 97.4481 3.71312 97.6299 3.1 97.6299C2.6929 97.6299 2.28979 97.5498 1.91368 97.394C1.53757 97.2382 1.19583 97.0098 0.90797 96.722C0.620109 96.4341 0.391763 96.0924 0.235973 95.7163C0.0801838 95.3401 0 94.937 0 94.5299Z" fill="#CD9F52"/>
<path d="M178.4 44.3699C178.4 43.9423 178.527 43.5243 178.765 43.1689C179.002 42.8135 179.34 42.5366 179.736 42.3734C180.131 42.2102 180.566 42.168 180.985 42.2522C181.404 42.3364 181.789 42.5431 182.091 42.8462C182.392 43.1492 182.597 43.535 182.68 43.9547C182.762 44.3744 182.718 44.809 182.553 45.2035C182.388 45.598 182.109 45.9346 181.753 46.1708C181.396 46.4069 180.978 46.5319 180.55 46.5299C180.267 46.5299 179.986 46.474 179.725 46.3653C179.463 46.2567 179.226 46.0974 179.026 45.8967C178.826 45.696 178.668 45.4578 178.561 45.1958C178.453 44.9338 178.399 44.6531 178.4 44.3699Z" fill="#CD9F52"/>
<path d="M131.65 97.4C131.65 96.9723 131.777 96.5543 132.015 96.1989C132.252 95.8435 132.59 95.5666 132.986 95.4034C133.381 95.2403 133.816 95.1981 134.235 95.2822C134.654 95.3664 135.039 95.5731 135.341 95.8762C135.642 96.1793 135.847 96.5651 135.93 96.9847C136.012 97.4044 135.968 97.839 135.803 98.2335C135.638 98.628 135.359 98.9647 135.003 99.2008C134.646 99.437 134.228 99.5619 133.8 99.56C133.517 99.56 133.236 99.504 132.975 99.3954C132.713 99.2867 132.476 99.1274 132.276 98.9267C132.076 98.726 131.918 98.4878 131.811 98.2258C131.703 97.9638 131.649 97.6832 131.65 97.4Z" fill="#CD9F52"/>
<path d="M8.40023 53.4599C9.59317 53.4599 10.5602 52.4928 10.5602 51.2999C10.5602 50.107 9.59317 49.1399 8.40023 49.1399C7.2073 49.1399 6.24023 50.107 6.24023 51.2999C6.24023 52.4928 7.2073 53.4599 8.40023 53.4599Z" fill="#CD9F52"/>
<path d="M239.07 99.73C239.07 99.3024 239.197 98.8844 239.435 98.529C239.672 98.1736 240.01 97.8967 240.406 97.7335C240.801 97.5703 241.236 97.5282 241.655 97.6123C242.074 97.6965 242.459 97.9032 242.761 98.2063C243.062 98.5093 243.267 98.8952 243.35 99.3148C243.432 99.7345 243.388 100.169 243.223 100.564C243.058 100.958 242.779 101.295 242.423 101.531C242.066 101.767 241.647 101.892 241.22 101.89C240.649 101.887 240.102 101.659 239.699 101.254C239.296 100.849 239.07 100.301 239.07 99.73Z" fill="#CD9F52"/>
<path d="M157.45 113.02C158.643 113.02 159.61 112.053 159.61 110.86C159.61 109.667 158.643 108.7 157.45 108.7C156.257 108.7 155.29 109.667 155.29 110.86C155.29 112.053 156.257 113.02 157.45 113.02Z" fill="#CD9F52"/>
<path d="M212.37 108.85C212.37 108.423 212.497 108.005 212.734 107.65C212.971 107.295 213.309 107.018 213.704 106.854C214.098 106.691 214.533 106.648 214.952 106.731C215.371 106.815 215.755 107.021 216.057 107.323C216.36 107.625 216.565 108.01 216.649 108.429C216.732 108.848 216.689 109.282 216.526 109.677C216.362 110.071 216.085 110.409 215.73 110.646C215.375 110.883 214.957 111.01 214.53 111.01C213.957 111.01 213.408 110.782 213.003 110.377C212.598 109.972 212.37 109.423 212.37 108.85Z" fill="#CD9F52"/>
<path d="M23.3202 109.84C24.5131 109.84 25.4802 108.873 25.4802 107.68C25.4802 106.487 24.5131 105.52 23.3202 105.52C22.1272 105.52 21.1602 106.487 21.1602 107.68C21.1602 108.873 22.1272 109.84 23.3202 109.84Z" fill="#CD9F52"/>
<path d="M231.63 53.82C232.823 53.82 233.79 52.8529 233.79 51.66C233.79 50.4671 232.823 49.5 231.63 49.5C230.437 49.5 229.47 50.4671 229.47 51.66C229.47 52.8529 230.437 53.82 231.63 53.82Z" fill="#CD9F52"/>
<path d="M46.4302 55.5299C46.4302 54.9168 46.612 54.3175 46.9526 53.8077C47.2933 53.2979 47.7774 52.9005 48.3439 52.6659C48.9103 52.4313 49.5336 52.3699 50.135 52.4895C50.7363 52.6091 51.2887 52.9044 51.7222 53.3379C52.1558 53.7714 52.451 54.3238 52.5706 54.9252C52.6902 55.5265 52.6288 56.1498 52.3942 56.7163C52.1596 57.2827 51.7622 57.7669 51.2525 58.1075C50.7427 58.4481 50.1433 58.6299 49.5302 58.6299C49.1227 58.6313 48.719 58.552 48.3423 58.3966C47.9656 58.2413 47.6233 58.013 47.3352 57.7249C47.0471 57.4368 46.8188 57.0945 46.6635 56.7178C46.5081 56.3411 46.4289 55.9374 46.4302 55.5299Z" fill="#CD9F52"/>
<path d="M98.04 104.98C98.04 104.367 98.2219 103.767 98.5625 103.258C98.9031 102.748 99.3873 102.35 99.9537 102.116C100.52 101.881 101.143 101.82 101.745 101.939C102.346 102.059 102.899 102.354 103.332 102.788C103.766 103.221 104.061 103.774 104.18 104.375C104.3 104.976 104.239 105.6 104.004 106.166C103.769 106.733 103.372 107.217 102.862 107.557C102.353 107.898 101.753 108.08 101.14 108.08C100.318 108.08 99.5294 107.753 98.948 107.172C98.3666 106.591 98.04 105.802 98.04 104.98Z" fill="#CD9F52"/>
<path d="M208.06 50.3999L208.28 54.1699L211.5 56.1299L207.99 57.4899L207.12 61.1699L204.73 58.2499L200.97 58.5599L203.01 55.3799L201.55 51.8999L205.2 52.8599L208.06 50.3999Z" fill="#CD9F52"/>
<path d="M50.5802 98.4199L50.8002 102.19L54.0202 104.15L50.5102 105.52L49.6402 109.19L47.2502 106.27L43.4902 106.58L45.5302 103.41L44.0702 99.9299L47.7202 100.89L50.5802 98.4199Z" fill="#CD9F52"/>
<path d="M183.92 96.25L186.44 99.06L190.19 98.58L188.29 101.84L189.91 105.25L186.22 104.46L183.47 107.05L183.09 103.3L179.77 101.49L183.22 99.96L183.92 96.25Z" fill="#CD9F52"/>
<path d="M75.48 121.74C75.48 121.313 75.6067 120.895 75.844 120.54C76.0814 120.185 76.4187 119.908 76.8134 119.744C77.2081 119.581 77.6424 119.538 78.0614 119.622C78.4804 119.705 78.8653 119.911 79.1673 120.213C79.4694 120.515 79.6751 120.9 79.7585 121.319C79.8418 121.738 79.799 122.172 79.6356 122.567C79.4721 122.961 79.1952 123.299 78.84 123.536C78.4848 123.773 78.0672 123.9 77.64 123.9C77.0671 123.9 76.5177 123.673 76.1126 123.267C75.7076 122.862 75.48 122.313 75.48 121.74Z" fill="#CD9F52"/>
<path d="M117.19 117.08L119.72 119.89L123.46 119.41L121.57 122.67L123.18 126.08L119.49 125.29L116.75 127.89L116.36 124.13L113.05 122.32L116.5 120.79L117.19 117.08Z" fill="#CD9F52"/>
<path d="M238.54 84.0099C238.13 84.1999 237.18 84.6299 237.08 85.5799C237.049 85.929 237.12 86.2796 237.285 86.5886C237.45 86.8977 237.702 87.1519 238.01 87.3199C238.493 87.5462 239.044 87.5784 239.55 87.4099C240.098 87.3614 240.607 87.1036 240.97 86.6899C241.253 86.2864 241.386 85.7965 241.346 85.3051C241.306 84.8137 241.095 84.3519 240.75 83.9999C239.99 83.3499 238.94 83.8299 238.54 84.0099Z" fill="#5B855E"/>
<path d="M241.27 58.0999C240.903 57.8656 240.491 57.7107 240.06 57.6453C239.63 57.5798 239.19 57.6053 238.77 57.7199C238.502 57.763 238.246 57.8618 238.019 58.0099C237.791 58.158 237.598 58.3522 237.45 58.5799C237.319 59.0547 237.275 59.5494 237.32 60.0399C237.32 60.5899 237.32 60.8699 237.32 61.3799C237.4 62.4599 238.03 76.2399 238.08 80.0599C238.08 80.4299 238.08 81.4199 238.75 81.8399C238.979 81.9798 239.242 82.0525 239.51 82.0499C239.907 82.0553 240.292 81.9127 240.59 81.6499C240.745 81.4804 240.863 81.2814 240.939 81.0649C241.014 80.8484 241.046 80.6188 241.03 80.3899C241.03 76.6299 241.32 72.8199 241.62 69.1299C241.82 66.7699 242.02 64.3399 242.13 61.9399V61.8199C242.27 60.4399 242.27 58.8699 241.27 58.0999Z" fill="#5B855E"/>
<path d="M185.01 67.73C185.167 67.7889 185.333 67.8194 185.5 67.82C185.96 67.8084 186.401 67.6389 186.75 67.34C186.989 67.0688 187.169 66.7512 187.279 66.407C187.389 66.0628 187.427 65.6995 187.39 65.34C187.46 64.05 187.53 62.84 186.7 62.34C186.272 62.1542 185.795 62.1122 185.34 62.2204C184.886 62.3285 184.479 62.5811 184.18 62.9401C183.952 63.2739 183.797 63.6526 183.726 64.0509C183.656 64.4492 183.671 64.858 183.77 65.25C183.86 65.98 184.01 67.37 185.01 67.73Z" fill="#5B855E"/>
<path d="M231.59 82.9901C229.87 81.4801 228.09 79.9201 227.45 77.2401C227.165 76.2512 227.218 75.1956 227.6 74.2401C228.36 72.5501 230.46 71.2401 231.6 71.7401C232.404 72.0545 233.065 72.652 233.46 73.4201C233.521 73.5453 233.627 73.6422 233.758 73.6906C233.888 73.739 234.032 73.7353 234.16 73.6801C234.303 73.6298 234.422 73.5283 234.494 73.3953C234.566 73.2622 234.586 73.1071 234.55 72.9601C234.425 72.303 234.169 71.6777 233.798 71.1212C233.427 70.5647 232.948 70.0882 232.39 69.7201C230.39 68.6201 227.31 69.3001 225.39 71.2601C224.097 72.7684 223.435 74.7164 223.54 76.7001C223.524 76.9298 223.524 77.1604 223.54 77.3901C223.755 78.8828 224.413 80.2764 225.43 81.3901C225.55 81.5301 225.69 81.6701 225.82 81.8101C224.762 83.3468 223.33 84.589 221.66 85.4201C221.18 85.6301 220.93 85.6701 220.72 85.5801C219.95 85.2501 220.1 83.2501 220.34 79.9401C220.34 79.4201 220.42 78.8501 220.47 78.2601C220.89 72.0501 220.73 70.2601 219.67 69.6401C219.318 69.4891 218.938 69.4112 218.555 69.4112C218.172 69.4112 217.792 69.4891 217.44 69.6401C215.97 70.0601 214.61 71.3601 211.73 76.8401C211.73 76.6801 211.73 76.5401 211.73 76.3701C211.73 76.2001 211.73 75.9401 211.73 75.7001C211.88 72.6101 211.95 69.8201 211.03 69.6001C210.721 69.5627 210.409 69.5627 210.1 69.6001C209.641 69.5952 209.187 69.6908 208.77 69.8801C208.12 70.3001 208.18 71.3001 208.2 71.6401C208.28 73.0301 208.2 74.4401 208.2 75.8101C208.2 75.9801 208.2 76.1601 208.2 76.3301C207.907 76.5006 207.599 76.6445 207.28 76.7601C206.815 76.937 206.332 77.0611 205.84 77.1301C205.25 72.9801 203.1 69.8201 200.58 69.4301C199.911 69.3049 199.224 69.3174 198.56 69.467C197.896 69.6166 197.27 69.9001 196.72 70.3001L195.89 71.3001C194.744 71.7168 193.721 72.4138 192.914 73.3273C192.107 74.2409 191.542 75.3419 191.27 76.5301C190.738 78.3919 190.703 80.3608 191.17 82.2401C190.579 82.9837 189.934 83.6823 189.24 84.3301C187.77 85.6601 187.32 85.6401 187.24 85.5901C186.94 85.4701 186.63 84.9401 186.69 81.8301C186.69 80.0401 186.85 78.8301 187 77.3301C187.05 76.8501 187.1 76.3301 187.15 75.7901C187.64 70.5501 187.26 69.8801 186.76 69.5901C186.32 69.4297 185.842 69.4059 185.389 69.5219C184.936 69.6379 184.528 69.8883 184.22 70.2401C183.819 70.7054 183.592 71.2959 183.58 71.9101C183.34 74.9101 183.27 77.6401 183.25 79.4001C182.478 80.5653 181.557 81.6243 180.51 82.5501C179.51 83.4201 177.71 85.0301 176.71 84.5501C175.93 84.1501 175.93 82.5501 175.93 81.9001C175.93 77.2301 175.99 73.5901 176.05 70.7801L177.32 70.7201C180.63 70.5501 181.63 70.5001 182.08 69.6401C182.26 69.3069 182.331 68.9251 182.28 68.5495C182.23 68.1739 182.062 67.824 181.8 67.5501C181.31 67.1701 180.6 67.4101 179.8 67.6601L179.49 67.7701C178.362 68.1178 177.213 68.3918 176.05 68.5901C176.18 63.9901 176.32 62.3701 176.32 62.3501C176.39 61.6501 176.46 60.0001 175.73 59.7001C175.48 59.6001 175.1 59.7001 174.25 59.9401C173.926 60.0056 173.613 60.1167 173.32 60.2701C173.06 60.529 172.863 60.8438 172.744 61.1903C172.624 61.5369 172.585 61.9062 172.63 62.2701C172.63 63.4801 172.58 66.3301 172.51 69.1201C171.73 69.2001 171.1 69.2401 170.72 69.2501C170.34 69.2601 169.72 69.2501 169.5 69.6901C169.457 69.7878 169.435 69.8934 169.435 70.0001C169.435 70.1068 169.457 70.2124 169.5 70.3101C169.7 70.8301 170.61 70.9801 171.98 70.9801H172.45C172.45 71.6201 172.2 77.0601 172.18 78.6801C172.18 79.4201 172.18 80.5201 172.18 81.8701C171.76 82.2101 171.33 82.5501 170.9 82.8701C168.54 84.6301 167.96 84.7101 167.71 84.5901C167.1 84.2901 167.2 82.8201 167.29 81.5001C167.78 74.2601 168.01 70.1401 166.82 69.7101C166.353 69.6258 165.874 69.6532 165.42 69.7901C165.024 69.845 164.649 69.9999 164.33 70.2401C164.127 70.4527 163.991 70.7206 163.94 71.0101C163.013 70.1854 161.853 69.6683 160.62 69.5301H160.27C157.51 69.5301 155.65 71.6301 155.03 72.3301C153.926 73.7067 153.134 75.3068 152.709 77.0196C152.284 78.7324 152.237 80.5171 152.57 82.2501C152.57 82.3701 152.62 82.4901 152.65 82.6101C149.92 85.6101 148.83 85.9601 148.39 85.7201C148.3 85.6701 148.09 85.5601 147.93 83.8801C147.785 82.4371 147.785 80.9831 147.93 79.5401C150.405 76.2202 152.218 72.4551 153.27 68.4501C154.68 62.9301 153.65 60.4501 152.91 59.4501C152.476 58.8197 151.847 58.349 151.12 58.1101C149.49 57.6401 147.88 58.8101 147.35 59.2001C145.83 60.3101 144.35 62.8001 144.35 79.6701C144.35 80.3301 144.35 81.1101 144.35 81.9101C143.694 82.7534 142.976 83.5457 142.2 84.2801C141.93 84.5301 141.37 85.0601 141 84.9201C140.63 84.7801 140.53 83.5301 140.53 83.1301C140.53 82.0001 140.61 80.2601 140.7 78.4201C140.894 75.7012 140.931 72.9733 140.81 70.2501C140.789 69.8977 140.631 69.5675 140.37 69.3301C140.184 69.2085 139.976 69.127 139.757 69.0908C139.538 69.0547 139.314 69.0646 139.1 69.1201C138.766 69.1773 138.447 69.3038 138.164 69.4915C137.882 69.6793 137.642 69.924 137.46 70.2101C137.262 70.62 137.196 71.081 137.27 71.5301C137.27 72.0801 137.27 74.6201 137.27 79.7201C137.27 80.2901 137.27 80.7201 137.27 81.0101C136.584 81.9763 135.766 82.8415 134.84 83.5801C134.21 84.0701 132.28 85.5801 131.48 85.0401C131.06 84.7501 131.09 83.6201 131.18 81.3301C131.33 77.8301 131.44 73.9901 131.58 71.5701C131.58 70.8601 131.7 69.6601 131.03 69.2901C130.36 68.9201 129.63 69.4001 129.2 69.7601C128.703 70.2187 128.375 70.8318 128.27 71.5001C127.924 73.7638 127.747 76.0501 127.74 78.3401C127.74 78.7601 127.74 79.1901 127.74 79.6201C127.01 80.6647 126.161 81.6211 125.21 82.4701C124.21 83.3401 122.4 84.9501 121.4 84.4701C120.62 84.0701 120.62 82.4701 120.62 81.8201C120.62 77.1501 120.69 73.5101 120.74 70.7001L122.01 70.6401C125.32 70.4701 126.32 70.4201 126.78 69.5601C126.959 69.2259 127.028 68.8435 126.976 68.4678C126.923 68.0922 126.753 67.7428 126.49 67.4701C126 67.0901 125.29 67.3301 124.49 67.5801L124.18 67.6901C123.056 68.0379 121.91 68.3118 120.75 68.5101C120.87 63.9101 121.01 62.2901 121.02 62.2701C121.08 61.5701 121.15 59.9201 120.42 59.6201C120.17 59.5201 119.79 59.6201 118.95 59.8601C118.622 59.9243 118.306 60.0355 118.01 60.1901C117.751 60.4495 117.554 60.7643 117.435 61.1107C117.315 61.4572 117.276 61.8263 117.32 62.1901C117.32 63.4001 117.32 66.2501 117.2 69.0401C116.43 69.1201 115.79 69.1601 115.42 69.1701C115.05 69.1801 114.42 69.1701 114.19 69.6101C114.149 69.7084 114.128 69.8137 114.128 69.9201C114.128 70.0265 114.149 70.1318 114.19 70.2301C114.39 70.7501 115.3 70.9001 116.67 70.9001H117.14C117.14 71.9001 117 75.3201 116.96 76.0901C116.96 77.3501 116.79 79.6101 116.9 81.7901C116.48 82.1301 116.05 82.4701 115.62 82.7901C113.26 84.5501 112.68 84.6301 112.43 84.5101C111.82 84.2101 111.92 82.7401 112.01 81.4201C112.51 74.1801 112.73 70.0601 111.54 69.6301C111.073 69.5458 110.594 69.5732 110.14 69.7101C109.744 69.7628 109.368 69.9179 109.05 70.1601C108.847 70.3727 108.711 70.6406 108.66 70.9301C107.704 70.121 106.518 69.6315 105.27 69.5301C102.27 69.3401 100.27 71.5301 99.6598 72.3201C98.5574 73.6977 97.7666 75.2978 97.342 77.0103C96.9173 78.7228 96.8688 80.5071 97.1998 82.2401C97.1998 82.4401 97.2798 82.6401 97.3298 82.8301C95.2098 85.3401 94.4598 85.5901 94.1898 85.4501C93.9198 85.3101 93.9998 84.4501 94.1898 81.7501V81.3701C94.5398 76.7701 94.5998 75.5501 93.8298 75.1301C93.6728 75.0588 93.5023 75.022 93.3298 75.022C93.1574 75.022 92.9869 75.0588 92.8298 75.1301C92.3433 75.267 91.844 75.3541 91.3398 75.3901C90.5704 75.4435 89.7972 75.3965 89.0398 75.2501C89.8098 74.2501 91.2498 71.9601 90.7298 70.4501C90.6743 70.2883 90.5932 70.1364 90.4898 70.0001C89.6998 69.0001 87.6098 69.0001 86.3498 70.0001C85.8913 70.3839 85.5456 70.8851 85.3498 71.4501C85.0788 72.169 84.9827 72.9421 85.0697 73.7055C85.1566 74.4689 85.424 75.2006 85.8498 75.8401C86.0433 76.1153 86.2681 76.367 86.5198 76.5901C85.2298 78.2501 83.9598 79.8901 82.7698 81.4701C82.9198 78.6601 83.0998 75.3301 83.3098 71.4701C83.3098 71.0801 83.3998 69.8701 82.7798 69.5601C82.5613 69.4948 82.3284 69.4948 82.1098 69.5601C81.4866 69.5697 80.8887 69.8082 80.4298 70.2301C80.2059 70.515 80.0859 70.8678 80.0898 71.2301C79.1277 70.2855 77.8789 69.6875 76.5398 69.5301C73.5398 69.3301 71.5398 71.6201 70.9198 72.3801C69.808 73.7976 69.0138 75.4375 68.5911 77.1887C68.1684 78.9399 68.127 80.7615 68.4698 82.5301L68.5298 82.8001C67.6192 83.8679 66.4951 84.7331 65.2298 85.3401C64.7498 85.5501 64.5098 85.6001 64.2898 85.5001C63.5298 85.1701 63.6798 83.1801 63.9198 79.8701C63.9198 79.3401 63.9998 78.7801 64.0398 78.1801C64.4598 71.9701 64.2998 70.1801 63.2398 69.5601C62.8875 69.4091 62.5082 69.3312 62.1248 69.3312C61.7415 69.3312 61.3622 69.4091 61.0098 69.5601C59.5398 69.9801 58.1798 71.2801 55.2998 76.7601C55.2998 76.5001 55.2998 76.1001 55.2998 75.6201C55.4898 70.0801 54.8798 69.6201 54.6098 69.5201C54.2976 69.4826 53.9821 69.4826 53.6698 69.5201C53.2115 69.5168 52.7579 69.6123 52.3398 69.8001C51.6998 70.2201 51.7498 71.2201 51.7698 71.5601C51.8498 72.9401 51.7698 74.3601 51.7698 75.7201C51.7698 75.8801 51.7698 76.0501 51.7698 76.2201C51.7698 76.3901 51.5498 76.3601 51.4298 76.4101C50.7947 76.7031 50.1214 76.9051 49.4298 77.0101C49.1934 75.1379 48.537 73.3432 47.5098 71.7601C46.7577 70.544 45.5584 69.6715 44.1698 69.3301C43.4919 69.1865 42.7907 69.1926 42.1154 69.348C41.44 69.5035 40.8068 69.8045 40.2598 70.2301C39.9349 70.5123 39.6639 70.8512 39.4598 71.2301C38.2863 71.6393 37.2364 72.3406 36.4088 73.2679C35.5813 74.1951 35.0035 75.3178 34.7298 76.5301C34.4558 77.5067 34.3146 78.5158 34.3098 79.5301C32.482 82.0594 29.7749 83.8142 26.7198 84.4501C22.8298 85.2001 20.3298 84.1901 18.9098 83.2101C13.5798 79.5401 14.2998 70.4101 16.9098 65.2101C18.3643 62.4211 20.6497 60.1531 23.4498 58.7201C24.4498 58.2301 26.9698 57.2001 28.6698 58.2901C30.2098 59.2901 31.3098 61.9701 30.3598 63.5901C30.2465 63.7694 30.1712 63.9701 30.1385 64.1797C30.1059 64.3893 30.1166 64.6034 30.17 64.8087C30.2235 65.014 30.3185 65.2061 30.4492 65.3732C30.5799 65.5403 30.7435 65.6788 30.9298 65.7801C31.1 65.8978 31.2927 65.979 31.4958 66.0186C31.6988 66.0582 31.9079 66.0554 32.1098 66.0103C32.3117 65.9652 32.5022 65.8789 32.6691 65.7566C32.836 65.6344 32.9759 65.479 33.0798 65.3001C34.3898 63.2201 34.7298 61.3001 34.0798 59.6701C33.7791 58.914 33.3186 58.2318 32.7298 57.6701C31.2397 56.2931 29.2983 55.5072 27.2698 55.4601C24.9154 55.3488 22.5807 55.9368 20.5598 57.1501C17.5745 58.8897 15.1056 61.3921 13.4064 64.4005C11.7071 67.409 10.8385 70.8153 10.8898 74.2701C11.0998 80.1101 13.1898 84.5101 16.7898 86.6301C18.4817 87.6169 20.4114 88.1218 22.3698 88.0901C23.0021 88.0902 23.6336 88.0468 24.2598 87.9601C29.1498 87.3201 32.5198 84.0601 34.4998 81.4301C34.7423 83.0728 35.4345 84.6164 36.4998 85.8901C37.0842 86.5372 37.8012 87.0507 38.6019 87.3958C39.4025 87.741 40.2682 87.9095 41.1398 87.8901C42.641 87.8828 44.1075 87.438 45.3598 86.6101C46.5786 85.7209 47.5836 84.5709 48.3015 83.244C49.0195 81.9171 49.4323 80.4468 49.5098 78.9401C50.2969 78.7807 51.0577 78.5113 51.7698 78.1401C51.7698 78.2201 51.7698 78.3001 51.7698 78.3801C51.7698 79.8401 51.8198 81.3801 51.8698 82.7601C51.8698 84.0101 51.9498 85.3001 51.9598 86.5701C51.9376 86.7814 51.9658 86.995 52.0423 87.1932C52.1188 87.3914 52.2414 87.5686 52.3998 87.7101C52.5814 87.8174 52.789 87.8728 52.9998 87.8701C53.4419 87.8442 53.874 87.7285 54.2698 87.5301C55.4998 86.8501 55.4398 85.2401 55.2698 82.3101C55.2698 81.6501 55.2698 80.9001 55.1998 80.1101C56.1998 78.5201 57.3198 76.9501 58.4398 75.4301C59.2398 74.3401 59.9898 73.3601 60.3098 73.3601C60.6298 73.3601 60.5198 74.5901 60.3798 76.1401C60.2398 77.6901 60.0598 79.5901 60.0398 82.1401C60.0398 85.0201 60.2198 86.7301 61.4298 87.5601C61.9423 87.8875 62.5421 88.0514 63.1498 88.0301H63.2798C65.4798 88.0301 67.5298 86.3501 69.0098 84.7201C69.446 85.9009 70.2621 86.9034 71.3298 87.5701C72.0822 87.9519 72.9163 88.1441 73.7598 88.1301C74.4935 88.1331 75.2217 88.0044 75.9098 87.7501C77.5498 87.1501 78.4098 85.9601 79.4098 84.5801C79.5098 84.4501 79.5899 84.3001 79.6798 84.1701L79.6198 85.7901C76.6198 89.8601 74.1698 93.3901 72.5598 95.9701C71.7398 97.2701 70.0398 99.9701 70.9098 102.66C71.2491 103.614 71.8276 104.464 72.5898 105.13C73.4612 105.911 74.6001 106.327 75.7698 106.29C76.9486 106.297 78.1022 105.949 79.0798 105.29C79.631 104.885 80.0967 104.376 80.4498 103.79C81.3886 102.254 81.8868 100.49 81.8898 98.6901C82.1089 96.8783 82.2191 95.0551 82.2198 93.2301C82.2198 92.4101 82.3298 89.5701 82.5998 84.4301C84.1998 82.0901 85.8498 79.7601 87.5098 77.4301C88.7011 78.0369 90.0694 78.1999 91.3698 77.8901C91.1998 79.7701 91.0298 81.7501 90.8698 83.7601C90.7698 85.0001 90.6598 86.5301 91.5398 87.1701C91.9752 87.4274 92.4652 87.5781 92.9698 87.6101C92.9698 87.6101 94.0798 87.5401 94.2998 87.5001C95.5398 87.2901 97.5498 84.9301 97.6298 84.8301L97.8198 84.6001C98.2636 85.7009 99.0533 86.6275 100.07 87.2401C100.822 87.6219 101.656 87.8141 102.5 87.8001C103.233 87.7981 103.96 87.6696 104.65 87.4201C106.115 86.7782 107.34 85.6897 108.15 84.3101L108.34 84.0201C108.34 85.9601 108.46 87.1501 109.34 87.6801C109.628 87.8469 109.957 87.93 110.29 87.9201C110.799 87.8966 111.301 87.7954 111.78 87.6201C113.28 87.1401 114.14 86.2401 115.78 84.4601L116.84 83.3501C116.917 84.1505 117.074 84.9412 117.31 85.7101C117.49 86.3392 117.882 86.8868 118.42 87.2601C118.837 87.5079 119.315 87.6327 119.8 87.6201C120.408 87.5977 121.009 87.4796 121.58 87.2701C123.177 86.6565 124.577 85.6194 125.63 84.2701C126.25 83.5801 126.85 82.8501 127.42 82.1101C127.42 84.0301 127.51 85.9001 128.15 86.7301C128.281 86.8975 128.432 87.0486 128.6 87.1801H128.69C129.305 87.4073 129.954 87.5257 130.61 87.5301H131.14C133.32 87.3101 134.73 85.7601 136.23 84.1201C136.51 83.8101 136.78 83.4901 137.05 83.1201C137.05 85.9701 137.26 86.8101 137.95 87.2501C138.348 87.4833 138.811 87.5816 139.27 87.5301C139.497 87.5263 139.724 87.5096 139.95 87.4801C141.055 87.2734 142.055 86.6904 142.78 85.8301C143.39 85.2201 143.99 84.5501 144.57 83.8301C144.83 85.4701 145.37 86.9301 146.57 87.4501C146.885 87.5876 147.226 87.6558 147.57 87.6501H147.66C149.93 87.6501 151.89 85.6501 153.08 84.0001C153.501 85.2978 154.369 86.4037 155.53 87.1201C156.282 87.503 157.116 87.6953 157.96 87.6801C158.693 87.6781 159.42 87.5496 160.11 87.3001C161.572 86.6576 162.794 85.569 163.6 84.1901C163.67 84.1001 163.73 84.0001 163.8 83.9001C163.85 85.8401 163.91 87.0301 164.8 87.5601C165.088 87.7279 165.417 87.8111 165.75 87.8001C166.256 87.7756 166.755 87.6745 167.23 87.5001C168.74 87.0201 169.59 86.1201 171.29 84.3401L172.35 83.2301C172.427 84.0305 172.584 84.8212 172.82 85.5901C173 86.2192 173.392 86.7668 173.93 87.1401C174.332 87.3922 174.796 87.5272 175.27 87.5301C175.878 87.5077 176.479 87.3896 177.05 87.1801C178.646 86.5639 180.045 85.5272 181.1 84.1801C181.82 83.3801 182.52 82.5201 183.18 81.6401C183.18 82.1301 183.18 82.5801 183.18 83.0001C183.18 85.5501 183.24 86.7101 184.18 87.2601C184.589 87.4757 185.048 87.5792 185.51 87.5601C185.876 87.5565 186.241 87.5163 186.6 87.4401C187.402 87.2528 188.149 86.8794 188.78 86.3501C189.819 85.5115 190.744 84.5398 191.53 83.4601C191.866 84.3165 192.342 85.1108 192.94 85.8101C193.519 86.4582 194.232 86.9728 195.03 87.3181C195.828 87.6634 196.691 87.8313 197.56 87.8101C199.054 87.8001 200.514 87.3553 201.76 86.5301C202.976 85.6414 203.979 84.4927 204.695 83.1676C205.411 81.8425 205.823 80.3744 205.9 78.8701C206.699 78.7084 207.47 78.4322 208.19 78.0501C208.19 78.1501 208.19 78.2401 208.19 78.3301C208.19 79.7901 208.19 81.2701 208.28 82.7101C208.28 83.9601 208.36 85.2501 208.37 86.5201C208.35 86.7322 208.38 86.946 208.458 87.1441C208.536 87.3422 208.66 87.5191 208.82 87.6601C209 87.77 209.209 87.8255 209.42 87.8201C209.893 87.7879 210.353 87.6549 210.77 87.4301C211.99 86.7501 211.93 85.1401 211.77 82.2101C211.77 81.5501 211.71 80.8001 211.7 80.0101C212.7 78.4201 213.81 76.8501 214.93 75.3301C215.74 74.2401 216.49 73.2601 216.8 73.2601C217.11 73.2601 217.02 74.4901 216.88 76.0401C216.74 77.5901 216.56 79.4901 216.53 82.0401C216.53 84.9201 216.71 86.6301 217.93 87.4601C218.442 87.7875 219.042 87.9514 219.65 87.9301H219.77C222.84 87.9301 225.59 84.7201 226.96 82.8301C227.36 83.2001 227.76 83.5701 228.17 83.9301C229.575 85.0696 230.823 86.3912 231.88 87.8601C232.47 88.9988 232.709 90.2869 232.567 91.5615C232.424 92.8361 231.907 94.0398 231.08 95.0201C230.079 96.1287 228.712 96.8389 227.23 97.0201C226.491 97.1894 225.726 97.2076 224.98 97.0735C224.234 96.9395 223.523 96.656 222.89 96.2401C222.34 95.8293 221.886 95.3038 221.56 94.7001C222.137 94.6462 222.693 94.4541 223.18 94.1401C223.837 93.7587 224.354 93.1777 224.658 92.4818C224.962 91.7858 225.036 91.0111 224.87 90.2701C224.75 89.9135 224.549 89.5892 224.284 89.3222C224.019 89.0552 223.696 88.8527 223.34 88.7301C222.968 88.66 222.585 88.6729 222.218 88.768C221.852 88.863 221.511 89.0379 221.22 89.2801C219.56 90.4801 219.64 92.9601 219.7 93.6001C219.221 93.6593 218.736 93.6253 218.27 93.5001C218.059 93.447 217.852 93.3802 217.65 93.3001C217.22 93.1401 216.85 93.0001 216.58 93.2201C216.527 93.2608 216.482 93.3119 216.45 93.3704C216.417 93.4289 216.397 93.4935 216.39 93.5601C216.39 94.2501 218.07 94.7101 218.27 94.7601C218.832 94.8991 219.413 94.943 219.99 94.8901C220.112 95.1463 220.253 95.3935 220.41 95.6301C220.849 96.2752 221.381 96.8515 221.99 97.3401C223.393 98.3729 225.088 98.9331 226.83 98.9401C228.8 98.931 230.709 98.2581 232.25 97.0301C233.893 95.7251 235.04 93.8971 235.5 91.8501C235.706 90.863 235.733 89.8468 235.58 88.8501C235.14 86.0901 233.34 84.5301 231.59 82.9901ZM41.3898 84.4301C40.0198 84.5601 38.8598 83.7601 38.0498 82.0901C37.3572 80.7799 37.0638 79.2954 37.206 77.8202C37.3482 76.345 37.9197 74.9439 38.8498 73.7901C38.824 74.4633 38.9367 75.1346 39.181 75.7625C39.4253 76.3903 39.7959 76.9613 40.2698 77.4401C41.5698 78.7601 43.7998 79.4401 46.5598 79.3401C45.8598 81.6101 43.6398 84.2001 41.3898 84.4301ZM42.1798 75.9401C41.5998 75.3501 40.6698 74.2101 41.0198 73.2101C41.1636 72.8597 41.391 72.5498 41.6821 72.3075C41.9732 72.0652 42.3192 71.8979 42.6898 71.8201C42.9253 71.7611 43.1671 71.7309 43.4098 71.7301C43.9892 71.7161 44.5529 71.9194 44.9898 72.3001C45.6112 72.9839 46.0911 73.784 46.4017 74.6542C46.7124 75.5243 46.8477 76.4474 46.7998 77.3701C45.9715 77.5264 45.1176 77.4779 44.3123 77.2286C43.5071 76.9794 42.775 76.537 42.1798 75.9401ZM79.8498 81.8401C79.1523 83.047 78.0562 83.9734 76.7498 84.4601C76.088 84.7389 75.3511 84.7848 74.6598 84.5901C72.6598 83.9201 72.2298 80.8901 72.1298 79.9801C71.7798 76.8201 73.2098 71.9801 76.2298 71.6401C76.9686 71.6335 77.7 71.7874 78.3733 72.0913C79.0467 72.3952 79.646 72.8418 80.1298 73.4001C80.0798 75.2901 79.9798 78.3001 79.8498 81.8401ZM197.46 73.2001C197.604 72.8445 197.834 72.5299 198.129 72.284C198.423 72.0381 198.774 71.8685 199.15 71.7901C199.389 71.7303 199.634 71.7 199.88 71.7001C200.467 71.6867 201.038 71.8937 201.48 72.2801C202.107 72.9699 202.591 73.7782 202.902 74.6574C203.212 75.5367 203.344 76.4691 203.29 77.4001C202.455 77.5603 201.593 77.5127 200.78 77.2616C199.968 77.0105 199.229 76.5636 198.63 75.9601C198.04 75.3701 197.1 74.2101 197.46 73.2001ZM203.03 79.3001C202.38 81.5901 200.13 84.2301 197.86 84.4601C196.48 84.6001 195.31 83.7801 194.49 82.1101C193.787 80.7806 193.493 79.2729 193.644 77.7766C193.795 76.2803 194.385 74.8621 195.34 73.7001C195.303 74.3808 195.405 75.062 195.64 75.7017C195.876 76.3414 196.24 76.9262 196.71 77.4201C198.02 78.7401 200.27 79.4101 203.03 79.3001ZM163.91 78.6601C163.85 79.7101 163.8 80.7701 163.77 81.8401C163.082 82.9278 162.051 83.7548 160.84 84.1901C160.174 84.4545 159.441 84.4965 158.75 84.3101C156.75 83.6501 156.31 80.6801 156.21 79.7901C155.87 76.6901 157.29 71.9701 160.32 71.6101C161.014 71.5893 161.705 71.7168 162.347 71.9841C162.988 72.2513 163.566 72.6523 164.04 73.1601C164.102 74.9944 164.059 76.8308 163.91 78.6601ZM147.77 73.8701C147.84 62.1801 149.34 60.8701 149.77 60.8701C149.883 60.8566 149.997 60.8566 150.11 60.8701C150.355 60.8687 150.597 60.9199 150.82 61.0201C151.231 61.2605 151.543 61.64 151.7 62.0901C153.24 65.8101 149.8 73.3401 149.76 73.4101C149.162 74.7152 148.495 75.987 147.76 77.2201C147.76 76.3201 147.76 75.1901 147.77 73.8701ZM108.57 78.6601C108.497 79.7134 108.447 80.7734 108.42 81.8401C107.732 82.9278 106.701 83.7548 105.49 84.1901C104.824 84.4545 104.091 84.4965 103.4 84.3101C101.4 83.6501 100.97 80.6801 100.87 79.7901C100.52 76.6901 101.95 71.9701 104.97 71.6101C105.664 71.5906 106.355 71.7187 106.996 71.9859C107.637 72.2531 108.215 72.6533 108.69 73.1601C108.75 74.9943 108.71 76.8303 108.57 78.6601ZM88.3198 70.8201C88.4893 70.814 88.6566 70.8593 88.7998 70.9501C89.0306 71.1702 89.1669 71.4714 89.1798 71.7901C89.2366 72.9492 88.8424 74.0853 88.0798 74.9601C87.5446 74.5522 87.1468 73.9905 86.9398 73.3501C86.8089 73.0485 86.7507 72.7203 86.7698 72.392C86.7889 72.0637 86.8848 71.7445 87.0498 71.4601C87.2028 71.2681 87.3955 71.1114 87.6147 71.0009C87.8339 70.8904 88.0745 70.8288 88.3198 70.8201ZM79.3998 93.4301C79.3998 95.1201 79.3998 96.8201 79.2598 98.4301C79.1298 100.23 78.9698 101.11 78.3498 101.96C78.1454 102.353 77.8499 102.692 77.4881 102.947C77.1263 103.203 76.7086 103.369 76.2698 103.43C75.839 103.371 75.4263 103.218 75.0602 102.983C74.6941 102.749 74.3835 102.437 74.1498 102.07C72.6798 99.8701 75.4698 95.2801 79.2798 89.5101L79.6198 88.9801C79.5098 90.4501 79.4498 91.9501 79.3998 93.4301ZM222.73 90.3601C222.9 90.3599 223.069 90.3964 223.224 90.4672C223.38 90.5379 223.518 90.6412 223.63 90.7701C223.98 91.2901 223.56 92.0701 223.42 92.3001C223.141 92.6618 222.784 92.9552 222.375 93.158C221.966 93.3607 221.516 93.4675 221.06 93.4701C220.963 93.1256 220.936 92.7654 220.979 92.4102C221.021 92.055 221.134 91.7117 221.31 91.4001C221.435 91.118 221.632 90.8735 221.881 90.6911C222.131 90.5086 222.423 90.3945 222.73 90.3601Z" fill="#5B855E"/>
</g>
<defs>
<clipPath id="clip0_2491_8641">
<rect width="243.38" height="127.89" fill="white"/>
</clipPath>
</defs>
</svg>
