<svg width="17" height="20" viewBox="0 0 17 20" fill="none" xmlns="http://www.w3.org/2000/svg">
<path fill-rule="evenodd" clip-rule="evenodd" d="M16.5 16.78V2.5C16.5 2.1717 16.4353 1.84661 16.3097 1.54329C16.1841 1.23998 15.9999 0.964379 15.7678 0.732233C15.5356 0.500087 15.26 0.315938 14.9567 0.190301C14.6534 0.0646644 14.3283 0 14 0H2.5C1.83696 0 1.20107 0.263392 0.732233 0.732233C0.263392 1.20107 0 1.83696 0 2.5V17.5C0 17.8283 0.0646644 18.1534 0.190301 18.4567C0.315938 18.76 0.500087 19.0356 0.732233 19.2678C0.964379 19.4999 1.23998 19.6841 1.54329 19.8097C1.84661 19.9353 2.1717 20 2.5 20H15.75C15.9489 20 16.1397 19.921 16.2803 19.7803C16.421 19.6397 16.5 19.4489 16.5 19.25C16.5 19.0511 16.421 18.8603 16.2803 18.7197C16.1397 18.579 15.9489 18.5 15.75 18.5H2.5C2.23478 18.5 1.98043 18.3946 1.79289 18.2071C1.60536 18.0196 1.5 17.7652 1.5 17.5H15.75C15.9431 17.4977 16.1281 17.422 16.2674 17.2883C16.4067 17.1546 16.4899 16.9728 16.5 16.78ZM13.29 13.32C13.1663 13.4435 13.0023 13.5185 12.828 13.5313C12.6537 13.5442 12.4805 13.494 12.34 13.39L12.27 13.33L9.75 10.85C9.16101 11.2571 8.4658 11.4831 7.75 11.5C6.92382 11.4983 6.12185 11.2208 5.47124 10.7116C4.82063 10.2024 4.35859 9.4906 4.15839 8.68904C3.95818 7.88748 4.03126 7.04202 4.36603 6.2867C4.7008 5.53138 5.27812 4.90942 6.00645 4.5194C6.73479 4.12939 7.57247 3.99365 8.3867 4.1337C9.20093 4.27375 9.94511 4.68157 10.5013 5.29252C11.0575 5.90347 11.3938 6.68258 11.457 7.50635C11.5201 8.33011 11.3065 9.1514 10.85 9.84L13.32 12.31C13.4439 12.4508 13.5098 12.6334 13.5042 12.8209C13.4986 13.0084 13.4221 13.1868 13.29 13.32Z" fill="white"/>
</svg>
