<svg width="21" height="18" viewBox="0 0 21 18" fill="none" xmlns="http://www.w3.org/2000/svg">
<g id="style=stroke">
<g id="filter-rectangle">
<path id="vector (Stroke)" fill-rule="evenodd" clip-rule="evenodd" d="M6.3011 14.4738C6.3011 14.0843 5.98536 13.7686 5.59589 13.7686H0.894428C0.504949 13.7686 0.189209 14.0843 0.189209 14.4738C0.189209 14.8632 0.504949 15.179 0.894428 15.179H5.59589C5.98536 15.179 6.3011 14.8632 6.3011 14.4738Z" fill="white"/>
<path id="vector (Stroke)_2" fill-rule="evenodd" clip-rule="evenodd" d="M14.2937 4.13051C14.2937 3.74103 14.6095 3.42529 14.9989 3.42529H19.7004C20.0898 3.42529 20.4056 3.74103 20.4056 4.13051C20.4056 4.51999 20.0898 4.83573 19.7004 4.83573H14.9989C14.6095 4.83573 14.2937 4.51999 14.2937 4.13051Z" fill="white"/>
<path id="vector (Stroke)_3" fill-rule="evenodd" clip-rule="evenodd" d="M20.4055 14.4738C20.4055 14.0843 20.0898 13.7686 19.7003 13.7686H11.2377C10.8482 13.7686 10.5325 14.0843 10.5325 14.4738C10.5325 14.8632 10.8482 15.179 11.2377 15.179H19.7003C20.0898 15.179 20.4055 14.8632 20.4055 14.4738Z" fill="white"/>
<path id="vector (Stroke)_4" fill-rule="evenodd" clip-rule="evenodd" d="M0.189209 4.13051C0.189209 3.74103 0.50495 3.42529 0.894428 3.42529H9.35705C9.74652 3.42529 10.0623 3.74103 10.0623 4.13051C10.0623 4.51999 9.74652 4.83573 9.35705 4.83573H0.894428C0.50495 4.83573 0.189209 4.51999 0.189209 4.13051Z" fill="white"/>
<path id="rec (Stroke)" fill-rule="evenodd" clip-rule="evenodd" d="M4.89062 12.5933C4.89062 11.6845 5.62734 10.9478 6.53614 10.9478H10.2973C11.2061 10.9478 11.9428 11.6845 11.9428 12.5933V16.3544C11.9428 17.2632 11.2061 17.9999 10.2973 17.9999H6.53614C5.62734 17.9999 4.89062 17.2632 4.89062 16.3544V12.5933ZM6.53614 12.3582C6.40631 12.3582 6.30106 12.4634 6.30106 12.5933V16.3544C6.30106 16.4843 6.40631 16.5895 6.53614 16.5895H10.2973C10.4272 16.5895 10.5324 16.4843 10.5324 16.3544V12.5933C10.5324 12.4634 10.4272 12.3582 10.2973 12.3582H6.53614Z" fill="white"/>
<path id="rec (Stroke)_2" fill-rule="evenodd" clip-rule="evenodd" d="M15.704 2.25C15.704 1.34121 14.9673 0.604492 14.0585 0.604492H10.2974C9.38857 0.604492 8.65186 1.34121 8.65186 2.25V6.01117C8.65186 6.91996 9.38857 7.65668 10.2974 7.65668H14.0585C14.9673 7.65668 15.704 6.91996 15.704 6.01117V2.25ZM14.0585 2.01493C14.1884 2.01493 14.2936 2.12018 14.2936 2.25V6.01117C14.2936 6.141 14.1884 6.24624 14.0585 6.24624H10.2974C10.1675 6.24624 10.0623 6.141 10.0623 6.01117V2.25C10.0623 2.12018 10.1675 2.01493 10.2974 2.01493H14.0585Z" fill="white"/>
</g>
</g>
</svg>
