<svg width="89" height="89" viewBox="0 0 89 89" fill="none" xmlns="http://www.w3.org/2000/svg">
<path d="M57.5863 88.78C61.8011 87.5754 66.1833 80.3531 68.4411 76.9144C72.1272 71.3006 74.3874 62.0608 75.5151 56.3189C79.0242 38.4405 74.9185 19.9733 60.1084 7.79243C50.7184 0.06267 34.7757 1.96678 26.6007 11.039C11.3928 27.9198 7.8958 67.2189 28.8997 81.4394C32.5373 83.9027 37.4045 84.6023 41.5927 83.3608C47.6554 81.5601 51.3052 74.9043 49.1978 68.7043C48.5818 66.8938 47.2577 65.0907 45.3831 64.8887C44.6216 64.8049 43.8577 64.9995 43.1157 65.2015C40.5402 65.9044 37.9987 66.7205 35.4911 67.65C35.1783 66.241 36.2914 64.7138 35.7336 63.3861C35.4329 62.6693 34.7199 62.2333 34.053 61.8465L20.9235 54.2252L23.9694 51.7323C22.7116 48.8831 21.4489 46.0298 20.1814 43.1724L28.3734 43.3227L29.1543 39.0809L36.0368 44.4262C36.5218 44.8007 37.2857 45.1505 37.6616 44.6603C37.9041 44.3523 37.7828 43.9065 37.6616 43.537C36.1483 39.0292 34.6342 34.5231 33.1193 30.0186C34.3885 30.411 35.6568 30.8002 36.9243 31.1861C37.2833 31.2995 37.6785 31.4078 38.0278 31.2674C38.4716 31.0852 38.6777 30.5753 38.8353 30.1195C39.8668 27.139 40.8951 24.1592 41.9201 21.1803L47.4978 28.1982C47.9368 28.7524 48.5018 29.3584 49.1954 29.2722C49.5476 29.1948 49.8737 29.0249 50.1412 28.7795L53.1386 26.4838C53.2114 31.2461 53.2833 36.0084 53.3545 40.7707C53.3545 41.1649 53.403 41.6255 53.7328 41.8349C54.242 42.1576 54.8386 41.5738 55.166 41.059L59.8804 33.6691L62.0266 37.3961L69.6851 34.4401C68.9576 37.9207 68.3344 39.007 67.5316 42.2167C68.686 42.9705 70.483 44.0321 71.8556 44.8918C68.5647 48.7986 66.0693 52.8901 62.7808 56.7993C62.3897 57.1947 62.0884 57.6722 61.8981 58.1984C61.4713 59.7059 62.8827 61.0632 63.278 62.588C63.1592 62.1397 59.1553 62.4352 58.7382 62.4402C56.592 62.4673 54.4457 62.1495 53.1265 64.295C52.3529 65.5538 52.188 67.1056 52.2583 68.5861C52.3286 70.0665 52.61 71.542 52.6536 73.0199C52.8767 80.5822 46.181 87.7996 38.9105 88.7849C22.9048 90.9674 8.27653 76.1508 2.92674 62.1199C-7.69281 34.2849 11.8439 2.27962 41.2435 0.119327C61.2918 -1.35864 79.5262 11.0218 86.3505 30.09C94.8941 53.9468 82.109 81.767 57.5863 88.78Z" fill="#003366"/>
</svg>
