<svg width="320" height="272" viewBox="0 0 320 272" fill="none" xmlns="http://www.w3.org/2000/svg">
<path d="M22.7003 208.6C15.8003 198.6 13.6003 187.6 16.6003 175.8C18.9003 166.7 23.9003 159.2 31.5003 153.6C46.4003 142.6 67.5003 143.8 81.1003 156.1C94.5003 168.3 99.5003 190 87.6003 207.4C91.2003 211.3 94.7003 215.1 98.4003 219.2C98.9003 218.9 100 218.3 101 217.7C117.5 208.2 134 198.6 150.5 189.1C151.6 188.5 152.5 187.9 152.5 186.3C152.4 166.8 152.5 147.3 152.5 127.8C152.5 127.3 152.4 126.8 152.3 126.1C151.3 126.1 150.4 126.1 149.5 126.1C140.8 126.1 132.2 125.9 123.5 126.2C110.5 126.6 105.8 117.6 105.4 108.9C104.7 90.7999 112.4 76.3999 125.7 64.6999C126.3 64.1999 126.9 63.6999 127.4 63.2999C127.5 63.1999 127.5 63.1999 127.7 62.8999C120.7 52.6999 118.4 41.4999 121.8 29.2999C124.3 20.4999 129.2 13.2999 136.5 7.89986C151 -2.80014 171.5 -1.90014 185.1 9.69986C197.6 20.2999 205.7 42.3999 192 62.6999C195.6 66.3999 199.6 69.7999 202.8 73.7999C211.5 84.5999 214.8 97.2999 214.2 110.9C213.8 119.4 206.4 126 197.6 126.1C187.3 126.2 176.9 126.1 166.6 126.1C165.7 126.1 164.8 126.1 163.7 126.1C163.6 127.2 163.6 128 163.6 128.8C163.6 147.8 163.6 166.8 163.6 185.8C163.6 187.3 163.9 188.2 165.3 189C183.6 199.5 201.8 210 220 220.5C220.1 220.6 220.3 220.6 219.8 220C223.8 215.8 227.8 211.7 232 207.4C218.6 187.6 227.3 164.7 240.7 154.2C255.1 142.9 276.3 143.3 290.4 155.2C303.8 166.5 310.5 188.7 296.8 208.8C297.3 209.1 297.9 209.3 298.4 209.7C310.7 220 317.9 233.2 319.5 249.2C319.9 253.4 319.1 257.9 317.8 261.9C315.9 268 311.1 271 304.8 271.5C303.1 271.6 301.5 271.6 299.8 271.6C276.1 271.6 252.3 271.6 228.6 271.6C217.2 271.6 210.3 264.5 210.4 253.1C210.5 245.4 211.9 237.9 215.1 230.6C213.3 229.5 211.6 228.5 209.9 227.5C193.3 217.9 176.7 208.4 160.2 198.8C158.6 197.9 157.5 197.8 155.9 198.8C139.3 208.5 122.6 218.1 106 227.7C105.3 228.1 104.6 228.6 103.8 229.1C107.7 237.1 109.3 245.5 109.3 254.3C109.2 264.4 102.3 271.6 92.3003 271.6C67.2003 271.7 42.1003 271.7 17.1003 271.6C8.4003 271.6 2.9003 267.1 1.0003 258.5C-1.1997 248.5 1.2003 239.2 5.4003 230.2C9.2003 222 14.6003 215 21.8003 209.4C21.9003 209.4 22.2003 209.1 22.7003 208.6ZM183.8 71.3999C183.4 71.5999 183.1 71.7999 182.8 71.9999C167.7 81.8999 152.6 81.9999 137.4 72.2999C136.1 71.4999 135.4 71.7999 134.4 72.4999C122.7 81.0999 117.3 92.8999 116.5 107.2C116.2 113 118.2 115.1 124 115.1C145.7 115.1 167.5 115.1 189.2 115.1C191.9 115.1 194.7 115.2 197.4 115.1C201 114.9 203.2 112.8 203.1 109.2C203 106 202.8 102.7 202.2 99.4999C200.2 87.3999 193.9 78.0999 183.8 71.3999ZM54.7003 260.7C55.5003 260.7 56.4003 260.7 57.2003 260.7C68.7003 260.7 80.2003 260.7 91.7003 260.7C95.5003 260.7 97.9003 258.7 98.0003 255.4C98.2003 240.1 92.9003 227.4 80.3003 218.2C79.0003 217.3 78.2003 217.2 76.8003 218.1C62.2003 227.4 47.4003 227.5 32.7003 218.2C31.2003 217.2 30.2003 217.3 28.8003 218.3C17.1003 227.2 11.7003 239.2 11.3003 253.7C11.2003 258.7 13.1003 260.7 18.2003 260.7C30.4003 260.7 42.5003 260.7 54.7003 260.7ZM265.1 260.7C265.7 260.7 266.3 260.7 266.8 260.7C278.5 260.7 290.3 260.7 302 260.7C305.9 260.7 308.3 258.6 308.3 255.2C308.3 240.1 303.1 227.4 290.6 218.3C289.4 217.4 288.5 217.3 287.1 218.2C272.4 227.6 257.5 227.6 242.8 218.2C241.4 217.3 240.6 217.3 239.3 218.3C227.4 227.2 222 239.2 221.6 253.8C221.5 258.8 223.4 260.8 228.4 260.8C240.8 260.7 253 260.7 265.1 260.7ZM265.1 213.7C280.6 213.7 293.3 201.1 293.3 185.7C293.3 170.1 280.6 157.3 265.1 157.3C249.6 157.3 236.8 170.1 236.9 185.6C236.9 201.2 249.5 213.7 265.1 213.7ZM188.1 39.9999C188.1 24.4999 175.6 11.7999 160.1 11.6999C144.5 11.5999 131.7 24.1999 131.6 39.7999C131.5 55.2999 144.3 68.0999 159.9 68.0999C175.4 68.0999 188 55.4999 188.1 39.9999ZM54.7003 213.7C70.2003 213.7 82.9003 201.1 82.9003 185.6C82.9003 170 70.1003 157.2 54.6003 157.3C39.2003 157.3 26.5003 170 26.4003 185.4C26.4003 201.1 39.0003 213.7 54.7003 213.7Z" fill="white"/>
</svg>
