<svg width="320" height="272" viewBox="0 0 320 272" fill="none" xmlns="http://www.w3.org/2000/svg">
<path d="M22.6511 208.14C15.7111 198.14 13.5311 187.14 16.5111 175.34C18.6745 166.42 23.9512 158.565 31.3911 153.19C38.695 147.87 47.6019 145.216 56.6263 145.669C65.6506 146.122 74.2468 149.655 80.9811 155.68C94.3311 167.83 99.4111 189.58 87.5311 206.95L98.3611 218.79C98.9011 218.49 99.9511 217.9 101.001 217.29C117.514 207.763 134.028 198.233 150.541 188.7C151.661 188.06 152.541 187.53 152.541 185.93C152.481 166.43 152.541 146.93 152.491 127.43C152.491 126.95 152.401 126.43 152.331 125.7H149.561C140.891 125.7 132.221 125.46 123.561 125.76C110.561 126.2 105.811 117.13 105.491 108.5C104.821 90.4098 112.491 75.9998 125.821 64.2798C126.391 63.7898 126.981 63.2798 127.561 62.8498C127.665 62.7209 127.759 62.5838 127.841 62.4398C120.891 52.2198 118.561 41.0098 121.961 28.8798C124.284 20.2846 129.474 12.7411 136.671 7.49982C143.827 2.35806 152.489 -0.258496 161.294 0.061931C170.099 0.382358 178.548 3.62157 185.311 9.26982C197.841 19.8998 205.901 41.9798 192.171 62.2698C195.811 65.9998 199.731 69.4198 202.941 73.3998C211.641 84.1998 214.941 96.8798 214.311 110.53C213.941 119.06 206.531 125.64 197.741 125.7C187.411 125.78 177.071 125.7 166.741 125.7H163.871C163.811 126.76 163.721 127.57 163.721 128.37C163.721 147.37 163.721 166.37 163.721 185.37C163.631 186.014 163.742 186.67 164.039 187.248C164.336 187.826 164.805 188.299 165.381 188.6C183.648 199.08 201.898 209.596 220.131 220.15C220.271 220.23 220.441 220.27 219.961 219.7L232.181 207.05C218.821 187.22 227.441 164.36 240.871 153.87C248.036 148.383 256.853 145.493 265.876 145.675C274.899 145.857 283.593 149.099 290.531 154.87C303.891 166.22 310.621 188.34 296.971 208.5C297.523 208.768 298.052 209.083 298.551 209.44C310.891 219.75 318.071 232.94 319.551 248.91C319.823 253.211 319.259 257.523 317.891 261.61C316.001 267.68 311.231 270.75 304.891 271.22C303.231 271.35 301.561 271.34 299.891 271.34H228.671C217.291 271.34 210.341 264.27 210.471 252.87C210.486 245.123 212.089 237.462 215.181 230.36C213.351 229.27 211.671 228.24 209.961 227.25C193.381 217.69 176.804 208.106 160.231 198.5C159.608 198.051 158.859 197.809 158.091 197.809C157.323 197.809 156.574 198.051 155.951 198.5C139.344 208.18 122.688 217.803 105.981 227.37C105.281 227.78 104.601 228.25 103.761 228.78C107.537 236.637 109.411 245.274 109.231 253.99C109.171 264.04 102.231 271.3 92.2311 271.33C67.1511 271.41 42.0711 271.41 16.9911 271.33C8.2611 271.33 2.7711 266.81 0.861105 258.26C-1.3589 248.26 1.1111 238.93 5.2411 229.91C8.93301 221.75 14.5588 214.614 21.6311 209.12C21.9211 208.86 22.2011 208.57 22.6511 208.14ZM183.751 70.8698C183.361 71.0998 183.071 71.2598 182.751 71.4398C167.671 81.2898 152.521 81.4398 137.361 71.6998C136.081 70.8798 135.361 71.1798 134.361 71.9398C122.631 80.5398 117.251 92.3898 116.491 106.63C116.181 112.4 118.201 114.56 124.011 114.56H189.221C191.971 114.56 194.731 114.65 197.471 114.56C201.091 114.39 203.231 112.27 203.171 108.65C203.135 105.406 202.847 102.169 202.311 98.9698C200.201 86.9098 193.911 77.5898 183.751 70.8698ZM54.6611 260.18H57.1611C68.6611 260.18 80.1578 260.18 91.6511 260.18C95.4411 260.18 97.8911 258.18 97.9411 254.9C98.1611 239.62 92.8711 226.9 80.2811 217.7C79.8278 217.245 79.2187 216.978 78.5767 216.954C77.9347 216.93 77.3073 217.15 76.8211 217.57C62.1711 226.87 47.4111 226.97 32.7111 217.72C31.1711 216.72 30.2011 216.77 28.8211 217.82C17.0911 226.71 11.6911 238.71 11.3211 253.19C11.1911 258.19 13.1611 260.19 18.1811 260.19L54.6611 260.18ZM265.101 260.18H266.851C278.604 260.18 290.351 260.18 302.091 260.18C305.951 260.18 308.421 258.11 308.431 254.65C308.431 239.51 303.271 226.85 290.721 217.71C290.264 217.259 289.655 216.994 289.013 216.969C288.371 216.943 287.743 217.157 287.251 217.57C272.511 226.95 257.681 226.93 242.931 217.57C242.447 217.146 241.821 216.92 241.179 216.937C240.536 216.954 239.922 217.212 239.461 217.66C227.601 226.54 222.131 238.57 221.781 253.17C221.661 258.17 223.601 260.17 228.621 260.17L265.101 260.18Z" fill="white"/>
</svg>
