<svg width="20" height="21" viewBox="0 0 20 21" fill="none" xmlns="http://www.w3.org/2000/svg">
<g id="icon/heart">
<path id="Vector" d="M10.6843 5.14829L10.0004 5.83372L9.31435 5.14767C7.56516 3.39845 4.7291 3.39845 2.97989 5.14767C1.23066 6.89689 1.23066 9.73294 2.97989 11.4822L9.55935 18.0616C9.80343 18.3057 10.1992 18.3057 10.4433 18.0616L17.0278 11.4809C18.7731 9.72594 18.7761 6.89783 17.0266 5.14829C15.2742 3.39588 12.4368 3.39588 10.6843 5.14829ZM16.1414 10.5995L10.0013 16.7359L3.86377 10.5983C2.6027 9.33719 2.6027 7.29262 3.86377 6.03156C5.12484 4.77048 7.16943 4.77048 8.43051 6.03156L9.56168 7.16276C9.80993 7.41098 10.2138 7.40614 10.456 7.15205L11.5683 6.03217C12.8325 4.76792 14.8784 4.76792 16.1427 6.03217C17.4041 7.29355 17.4019 9.33211 16.1414 10.5995Z" fill="#5C4928"/>
</g>
</svg>
