<svg width="48" height="48" viewBox="0 0 48 48" fill="none" xmlns="http://www.w3.org/2000/svg">
<g id="Frame 2609440">
<rect id="Rectangle 30164" width="48" height="48" rx="12" fill="#A8E4C2"/>
<g id="Group 1000005291">
<path id="Vector" d="M23.5026 31.1194C23.3084 31.1194 23.1222 31.0423 22.9849 30.905C22.8476 30.7677 22.7705 30.5815 22.7705 30.3873V24.5304C22.7705 24.3363 22.8476 24.1501 22.9849 24.0128C23.1222 23.8755 23.3084 23.7983 23.5026 23.7983C23.6968 23.7983 23.883 23.8755 24.0203 24.0128C24.1576 24.1501 24.2347 24.3363 24.2347 24.5304V30.3873C24.2347 30.5815 24.1576 30.7677 24.0203 30.905C23.883 31.0423 23.6968 31.1194 23.5026 31.1194Z" fill="#006400"/>
<path id="Vector_2" d="M23.5024 22.5781C24.0415 22.5781 24.4785 22.1411 24.4785 21.602C24.4785 21.063 24.0415 20.626 23.5024 20.626C22.9634 20.626 22.5264 21.063 22.5264 21.602C22.5264 22.1411 22.9634 22.5781 23.5024 22.5781Z" fill="#006400"/>
<path id="Vector_3" d="M23.5024 36C21.6605 35.9995 19.8512 35.5143 18.2562 34.5931C16.6612 33.672 15.3366 32.3474 14.4156 30.7523C13.4946 29.1573 13.0095 27.3479 13.009 25.506C13.0086 23.6641 13.4929 21.8546 14.4132 20.2591C14.4598 20.1731 14.5231 20.0973 14.5995 20.0362C14.6759 19.9751 14.7638 19.9299 14.8579 19.9034C14.952 19.8768 15.0505 19.8693 15.1476 19.8815C15.2447 19.8936 15.3383 19.9251 15.423 19.974C15.5077 20.0229 15.5817 20.0883 15.6407 20.1663C15.6997 20.2443 15.7425 20.3334 15.7665 20.4282C15.7905 20.523 15.7953 20.6217 15.7805 20.7184C15.7658 20.8151 15.7318 20.9078 15.6806 20.9912C14.5864 22.8872 14.2187 25.1163 14.646 27.2633C15.0733 29.4103 16.2664 31.3288 18.0031 32.6615C19.7398 33.9942 21.9017 34.6501 24.0862 34.5072C26.2706 34.3643 28.3286 33.4322 29.8769 31.8846C31.4252 30.337 32.3581 28.2794 32.502 26.0951C32.6459 23.9107 31.9909 21.7485 30.659 20.0112C29.3271 18.2739 27.4091 17.0799 25.2623 16.6517C23.1155 16.2235 20.8862 16.5902 18.9897 17.6835C18.9064 17.7347 18.8136 17.7687 18.7169 17.7835C18.6202 17.7982 18.5216 17.7935 18.4267 17.7695C18.3319 17.7454 18.2429 17.7027 18.1649 17.6437C18.0868 17.5847 18.0214 17.5106 17.9725 17.4259C17.9236 17.3412 17.8921 17.2476 17.88 17.1505C17.8679 17.0535 17.8753 16.955 17.9019 16.8608C17.9285 16.7667 17.9736 16.6788 18.0347 16.6025C18.0958 16.5261 18.1716 16.4627 18.2576 16.4161C19.652 15.6103 21.213 15.1362 22.82 15.0305C24.427 14.9247 26.0367 15.1902 27.5246 15.8062C29.0125 16.4223 30.3388 17.3725 31.4006 18.5833C32.4624 19.7941 33.2314 21.233 33.648 22.7886C34.0646 24.3442 34.1177 25.9748 33.8031 27.5542C33.4885 29.1336 32.8147 30.6195 31.8339 31.8967C30.853 33.174 29.5914 34.2084 28.1467 34.92C26.7019 35.6315 25.1129 36.001 23.5024 36Z" fill="#006400"/>
</g>
</g>
</svg>
