<svg width="14" height="15" viewBox="0 0 14 15" fill="none" xmlns="http://www.w3.org/2000/svg">
<g id="Group 1000005286">
<path id="Vector" d="M4.44121 9.29966C4.32848 9.29966 4.21576 9.24401 4.12946 9.13038C3.95685 8.90313 3.95685 8.53674 4.12946 8.30948L5.4751 6.53782C5.87492 6.01143 6.52836 6.01143 6.92818 6.53782L7.85991 7.76453C7.91628 7.83874 8.00963 7.83874 8.06775 7.76453L9.24959 6.20854H8.84449C8.60143 6.20854 8.40416 5.94882 8.40416 5.6288C8.40416 5.30879 8.60143 5.04907 8.84449 5.04907H10.3117C10.3169 5.04907 10.3222 5.04907 10.3275 5.04907H10.3293C10.3821 5.05139 10.4314 5.06531 10.479 5.09081C10.5283 5.11864 10.5759 5.15806 10.6164 5.20908C10.6164 5.20908 10.6164 5.20908 10.6181 5.2114L10.6199 5.21372L10.6217 5.21604L10.6234 5.21835L10.6252 5.22067L10.6269 5.22299C10.6269 5.22299 10.6269 5.22299 10.6287 5.22531C10.6657 5.27633 10.6956 5.33662 10.715 5.39923C10.715 5.39923 10.715 5.39923 10.715 5.40155C10.7361 5.4688 10.7485 5.543 10.7485 5.61953V5.62185V5.62417V7.55583C10.7485 7.87584 10.5512 8.13556 10.3081 8.13556C10.0651 8.13556 9.86781 7.87584 9.86781 7.55583V7.02248L8.68597 8.57848C8.28615 9.10487 7.63271 9.10487 7.23289 8.57848L6.30115 7.35177C6.24479 7.27756 6.15144 7.27756 6.09332 7.35177L4.75296 9.12806C4.66666 9.24169 4.55393 9.29966 4.44121 9.29966Z" fill="white"/>
<circle id="Ellipse 236" cx="7" cy="7.04907" r="6.5" stroke="white"/>
</g>
</svg>
