<svg width="323" height="287" viewBox="0 0 323 287" fill="none" xmlns="http://www.w3.org/2000/svg">
<g filter="url(#filter0_f_735_4927)">
<path d="M198.7 269.375C210.682 265.95 223.139 245.42 229.557 235.644C240.036 219.686 246.461 193.42 249.667 177.098C259.642 126.275 247.971 73.7781 205.87 39.1515C179.177 17.1782 133.857 22.591 110.618 48.3806C67.3863 96.3676 57.4454 208.083 117.153 248.508C127.494 255.51 141.33 257.499 153.235 253.969C170.47 248.851 180.845 229.93 174.854 212.305C173.103 207.159 169.339 202.033 164.01 201.459C161.846 201.221 159.674 201.774 157.565 202.348C150.243 204.346 143.019 206.666 135.89 209.308C135.001 205.303 138.165 200.962 136.58 197.187C135.725 195.15 133.698 193.91 131.802 192.811L94.4791 171.146L103.138 164.059C99.5622 155.96 95.9728 147.849 92.3696 139.726L115.657 140.153L117.877 128.095L137.442 143.29C138.82 144.355 140.992 145.349 142.06 143.956C142.75 143.08 142.405 141.813 142.06 140.763C137.759 127.948 133.455 115.139 129.148 102.334C132.756 103.449 136.362 104.556 139.965 105.653C140.985 105.975 142.109 106.283 143.101 105.884C144.363 105.366 144.949 103.916 145.397 102.621C148.329 94.1479 151.252 85.6774 154.166 77.2092L170.022 97.1589C171.27 98.7344 172.876 100.457 174.848 100.212C175.849 99.9919 176.776 99.509 177.536 98.8115L186.057 92.2853C186.264 105.823 186.468 119.361 186.671 132.899C186.671 134.019 186.808 135.329 187.746 135.924C189.194 136.841 190.89 135.182 191.82 133.718L205.222 112.711L211.323 123.306L233.094 114.903C231.026 124.797 229.254 127.885 226.972 137.009C230.253 139.152 235.362 142.17 239.264 144.614C229.909 155.719 222.815 167.35 213.467 178.463C212.355 179.587 211.498 180.945 210.958 182.44C209.744 186.726 213.756 190.584 214.88 194.919C214.542 193.644 203.161 194.484 201.975 194.498C195.874 194.576 189.773 193.672 186.022 199.771C183.823 203.349 183.355 207.761 183.555 211.969C183.754 216.178 184.554 220.372 184.678 224.574C185.312 246.071 166.279 266.588 145.611 269.389C100.111 275.593 58.5277 233.474 43.3198 193.588C13.1317 114.462 68.6685 23.4803 152.243 17.3392C209.234 13.1378 261.069 48.3316 280.468 102.537C304.755 170.354 268.411 249.439 198.7 269.375Z" fill="#FAF1E1"/>
</g>
<defs>
<filter id="filter0_f_735_4927" x="0" y="-18" width="323" height="323" filterUnits="userSpaceOnUse" color-interpolation-filters="sRGB">
<feFlood flood-opacity="0" result="BackgroundImageFix"/>
<feBlend mode="normal" in="SourceGraphic" in2="BackgroundImageFix" result="shape"/>
<feGaussianBlur stdDeviation="17.5" result="effect1_foregroundBlur_735_4927"/>
</filter>
</defs>
</svg>
