<svg width="71" height="70" viewBox="0 0 71 70" fill="none" xmlns="http://www.w3.org/2000/svg">
<g id="Frame 2609262">
<rect x="0.5" width="70" height="70" rx="16" fill="#FAF1E1"/>
<path id="Vector" d="M41.8226 56.8937C43.859 56.3117 45.9762 52.8223 47.067 51.1609C48.848 48.4486 49.94 43.9844 50.4848 41.2103C52.1802 32.5724 50.1966 23.65 43.0411 17.7649C38.5044 14.0303 30.8017 14.9502 26.852 19.3335C19.5044 27.4894 17.8148 46.4766 27.9628 53.3471C29.7203 54.5373 32.0718 54.8753 34.0953 54.2754C37.0245 53.4054 38.7879 50.1897 37.7697 47.1942C37.4721 46.3195 36.8324 45.4483 35.9267 45.3507C35.5588 45.3102 35.1897 45.4043 34.8312 45.5019C33.5868 45.8414 32.3589 46.2358 31.1474 46.6848C30.9962 46.0041 31.534 45.2662 31.2646 44.6247C31.1193 44.2784 30.7748 44.0678 30.4526 43.8809L24.1091 40.1987L25.5807 38.9943C24.973 37.6177 24.363 36.2391 23.7506 34.8586L27.7085 34.9312L28.0858 32.8818L31.411 35.4644C31.6454 35.6453 32.0144 35.8143 32.196 35.5774C32.3132 35.4287 32.2546 35.2133 32.196 35.0347C31.4649 32.8568 30.7334 30.6797 30.0015 28.5033C30.6147 28.693 31.2275 28.881 31.8398 29.0675C32.0133 29.1222 32.2042 29.1746 32.373 29.1067C32.5874 29.0187 32.687 28.7723 32.7631 28.5521C33.2615 27.1121 33.7583 25.6724 34.2535 24.2332L36.9484 27.6238C37.1605 27.8916 37.4335 28.1844 37.7686 28.1427C37.9387 28.1053 38.0963 28.0233 38.2255 27.9047L39.6737 26.7955C39.7089 29.0964 39.7436 31.3973 39.778 33.6982C39.778 33.8886 39.8014 34.1112 39.9608 34.2124C40.2068 34.3683 40.4951 34.0862 40.6532 33.8375L42.931 30.2671L43.9679 32.0678L47.6681 30.6396C47.3166 32.3213 47.0155 32.8461 46.6276 34.3968C47.1854 34.761 48.0536 35.2739 48.7168 35.6893C47.1268 37.5768 45.9211 39.5536 44.3323 41.4423C44.1433 41.6334 43.9978 41.8641 43.9058 42.1183C43.6996 42.8467 44.3815 43.5024 44.5725 44.2391C44.5151 44.0225 42.5807 44.1653 42.3791 44.1677C41.3422 44.1808 40.3052 44.0273 39.6679 45.0639C39.2941 45.672 39.2144 46.4218 39.2484 47.1371C39.2824 47.8523 39.4183 48.5652 39.4394 49.2793C39.5472 52.933 36.3122 56.42 32.7995 56.8961C25.0664 57.9505 17.9988 50.7919 15.414 44.013C10.2833 30.5646 19.7223 15.1014 33.9266 14.0577C43.6129 13.3436 52.4228 19.3251 55.7199 28.5379C59.8477 40.0642 53.6706 53.5054 41.8226 56.8937Z" fill="#003366"/>
</g>
</svg>
