<svg width="20" height="20" viewBox="0 0 20 20" fill="none" xmlns="http://www.w3.org/2000/svg">
<g id="icon/luggage">
<path id="Vector" d="M7.29175 1.6665C6.94657 1.6665 6.66675 1.94633 6.66675 2.2915C6.66675 2.63668 6.94657 2.9165 7.29175 2.9165H7.50008V4.1665H6.87508C5.37931 4.1665 4.16675 5.37906 4.16675 6.87484V14.3748C4.16675 15.5015 4.85468 16.4674 5.83341 16.8756V17.7082C5.83341 18.0533 6.11324 18.3332 6.45841 18.3332C6.80359 18.3332 7.08341 18.0533 7.08341 17.7082V17.0832H12.9167V17.7082C12.9167 18.0533 13.1966 18.3332 13.5417 18.3332C13.8869 18.3332 14.1667 18.0533 14.1667 17.7082V16.8756C15.1455 16.4674 15.8334 15.5015 15.8334 14.3748V6.87484C15.8334 5.37906 14.6208 4.1665 13.1251 4.1665H12.5001V2.9165H12.7084C13.0536 2.9165 13.3334 2.63668 13.3334 2.2915C13.3334 1.94633 13.0536 1.6665 12.7084 1.6665H7.29175ZM11.2501 2.9165V4.1665H8.75008V2.9165H11.2501ZM6.87508 5.4165H13.1251C13.9305 5.4165 14.5834 6.06942 14.5834 6.87484V14.3748C14.5834 15.1803 13.9305 15.8332 13.1251 15.8332H6.87508C6.06966 15.8332 5.41675 15.1803 5.41675 14.3748V6.87484C5.41675 6.06942 6.06966 5.4165 6.87508 5.4165ZM6.66675 8.12484C6.66675 7.77966 6.94657 7.49984 7.29175 7.49984H12.7084C13.0536 7.49984 13.3334 7.77966 13.3334 8.12484C13.3334 8.47 13.0536 8.74984 12.7084 8.74984H7.29175C6.94657 8.74984 6.66675 8.47 6.66675 8.12484Z" fill="#A4A4A4"/>
</g>
</svg>
