<svg width="20" height="20" viewBox="0 0 20 20" fill="none" xmlns="http://www.w3.org/2000/svg">
<g id="icon/money">
<path id="Vector" d="M8.75008 6.6665C7.36937 6.6665 6.25008 7.7858 6.25008 9.1665C6.25008 10.5473 7.36937 11.6665 8.75008 11.6665C10.1308 11.6665 11.2501 10.5473 11.2501 9.1665C11.2501 7.7858 10.1308 6.6665 8.75008 6.6665ZM7.50008 9.1665C7.50008 8.47617 8.05972 7.9165 8.75008 7.9165C9.44041 7.9165 10.0001 8.47617 10.0001 9.1665C10.0001 9.85684 9.44041 10.4165 8.75008 10.4165C8.05972 10.4165 7.50008 9.85684 7.50008 9.1665ZM1.66675 6.0415C1.66675 5.00597 2.50621 4.1665 3.54175 4.1665H13.9584C14.9939 4.1665 15.8334 5.00597 15.8334 6.0415V12.2915C15.8334 13.327 14.9939 14.1665 13.9584 14.1665H3.54175C2.50621 14.1665 1.66675 13.327 1.66675 12.2915V6.0415ZM3.54175 5.4165C3.19657 5.4165 2.91675 5.69633 2.91675 6.0415V6.6665H3.54175C3.88692 6.6665 4.16675 6.38668 4.16675 6.0415V5.4165H3.54175ZM2.91675 10.4165H3.54175C4.57728 10.4165 5.41675 11.256 5.41675 12.2915V12.9165H12.0834V12.2915C12.0834 11.256 12.9229 10.4165 13.9584 10.4165H14.5834V7.9165H13.9584C12.9229 7.9165 12.0834 7.07704 12.0834 6.0415V5.4165H5.41675V6.0415C5.41675 7.07704 4.57728 7.9165 3.54175 7.9165H2.91675V10.4165ZM14.5834 6.6665V6.0415C14.5834 5.69633 14.3036 5.4165 13.9584 5.4165H13.3334V6.0415C13.3334 6.38668 13.6132 6.6665 13.9584 6.6665H14.5834ZM14.5834 11.6665H13.9584C13.6132 11.6665 13.3334 11.9463 13.3334 12.2915V12.9165H13.9584C14.3036 12.9165 14.5834 12.6367 14.5834 12.2915V11.6665ZM2.91675 12.2915C2.91675 12.6367 3.19657 12.9165 3.54175 12.9165H4.16675V12.2915C4.16675 11.9463 3.88692 11.6665 3.54175 11.6665H2.91675V12.2915ZM3.66789 15.4165C4.10015 16.1638 4.90808 16.6665 5.83343 16.6665H14.3751C16.5612 16.6665 18.3334 14.8943 18.3334 12.7082V8.33317C18.3334 7.40784 17.8307 6.5999 17.0834 6.16765V12.7082C17.0834 14.2039 15.8708 15.4165 14.3751 15.4165H3.66789Z" fill="#006400"/>
</g>
</svg>
