<svg width="62" height="62" viewBox="0 0 62 62" fill="none" xmlns="http://www.w3.org/2000/svg">
<g id="calendar-add-svgrepo-com 1">
<path id="Vector" d="M5.16675 30.9997C5.16675 21.2573 5.16675 16.3861 8.1933 13.3596C11.2199 10.333 16.091 10.333 25.8334 10.333H36.1667C45.909 10.333 50.7804 10.333 53.8068 13.3596C56.8334 16.3861 56.8334 21.2573 56.8334 30.9997V36.1663C56.8334 45.9086 56.8334 50.78 53.8068 53.8064C50.7804 56.833 45.909 56.833 36.1667 56.833H25.8334C16.091 56.833 11.2199 56.833 8.1933 53.8064C5.16675 50.78 5.16675 45.9086 5.16675 36.1663V30.9997Z" stroke="#5C4928" stroke-width="2"/>
<path id="Vector_2" d="M47.7798 41.1627L44.1619 44.8512M44.1619 44.8512L40.544 48.5398M44.1619 44.8512L40.4734 41.2333M44.1619 44.8512L47.8504 48.4691" stroke="#5C4928" stroke-width="2" stroke-linecap="round"/>
<path id="Vector_3" opacity="0.5" d="M18.0833 10.333V6.45801" stroke="#5C4928" stroke-width="2" stroke-linecap="round"/>
<path id="Vector_4" opacity="0.5" d="M43.9167 10.333V6.45801" stroke="#5C4928" stroke-width="2" stroke-linecap="round"/>
<path id="Vector_5" opacity="0.5" d="M5.16675 23.25H56.8334" stroke="#5C4928" stroke-width="2" stroke-linecap="round"/>
</g>
</svg>
