<svg width="248" height="232" viewBox="0 0 248 232" fill="none" xmlns="http://www.w3.org/2000/svg">
<path d="M166.687 163.911H77.9792C70.5229 163.911 64.4568 157.828 64.4568 150.351V61.3978C64.4568 53.9208 70.5229 47.8379 77.9792 47.8379H166.687C174.143 47.8379 180.209 53.9208 180.209 61.3978V150.351C180.209 157.828 174.143 163.911 166.687 163.911ZM77.9792 50.0075C71.7059 50.0075 66.6204 55.1071 66.6204 61.3978V150.351C66.6204 156.642 71.7059 161.741 77.9792 161.741H140.116C161.064 161.741 178.045 144.713 178.045 123.707V61.3978C178.045 55.1071 172.96 50.0075 166.687 50.0075L77.9792 50.0075Z" fill="#F2F2F2"/>
<path d="M87.5426 59.2578C83.3442 59.2578 79.9287 62.6827 79.9287 66.8928V78.8433C79.9287 83.0533 83.3442 86.4783 87.5426 86.4783H99.46C103.658 86.4783 107.074 83.0533 107.074 78.8433V66.8928C107.074 62.6827 103.658 59.2578 99.46 59.2578H87.5426Z" fill="#F2F2F2"/>
<path d="M87.5426 92.8994C83.3442 92.8994 79.9287 96.3243 79.9287 100.534V112.485C79.9287 116.695 83.3442 120.12 87.5426 120.12H99.46C103.658 120.12 107.074 116.695 107.074 112.485V100.534C107.074 96.3243 103.658 92.8994 99.46 92.8994H87.5426Z" fill="#F2F2F2"/>
<path d="M87.5426 126.542C83.3442 126.542 79.9287 129.966 79.9287 134.177V146.127C79.9287 150.337 83.3442 153.762 87.5426 153.762H99.46C103.658 153.762 107.074 150.337 107.074 146.127V134.177C107.074 129.966 103.658 126.542 99.46 126.542H87.5426Z" fill="#F2F2F2"/>
<path d="M95.4455 30.1011C90.1554 30.1011 85.8518 34.4166 85.8518 39.7214V54.7793C85.8518 60.0841 90.1554 64.3996 95.4455 64.3996H110.462C115.752 64.3996 120.056 60.0841 120.056 54.7793V39.7214C120.056 34.4166 115.752 30.1011 110.462 30.1011H95.4455Z" fill="#5B855E"/>
<path d="M144.883 72.1816C139.593 72.1816 135.289 76.4971 135.289 81.802V96.8599C135.289 102.165 139.593 106.48 144.883 106.48H159.899C165.189 106.48 169.493 102.165 169.493 96.8599V81.802C169.493 76.4971 165.189 72.1816 159.899 72.1816H144.883Z" fill="#5B855E"/>
<path d="M123.39 223.746L120.339 223.72L118.989 211.646L123.491 211.684L123.39 223.746Z" fill="#A0616A"/>
<path d="M113.619 228.61C113.612 229.363 114.217 229.983 114.971 229.99L121.036 230.04L122.098 227.882L122.488 230.051L124.777 230.072L124.199 222.335L123.402 222.282L120.155 222.058L119.107 221.987L119.089 224.176L114.216 227.49C113.846 227.743 113.622 228.161 113.619 228.61Z" fill="#2E3241"/>
<path d="M138.911 223.746L135.86 223.72L134.51 211.646L139.012 211.684L138.911 223.746Z" fill="#A0616A"/>
<path d="M129.14 228.61C129.133 229.363 129.738 229.983 130.492 229.99L136.557 230.04L137.619 227.882L138.009 230.051L140.298 230.072L139.72 222.335L138.923 222.282L135.676 222.058L134.628 221.987L134.61 224.176L129.737 227.49C129.367 227.743 129.143 228.161 129.14 228.61Z" fill="#2E3241"/>
<path d="M111.419 126.125L123.785 126.517L135.499 129.128C135.499 129.128 134.328 130.563 138.233 134.479C138.233 134.479 143.439 143.616 139.795 152.491L138.233 187.994C138.233 187.994 142.787 213.021 139.307 220.986L134.709 221.274L126.927 188.283L123.134 152.752L121.312 187.733C121.312 187.733 128.283 211.743 123.881 221.274L118.9 220.986L110.378 187.733C110.378 187.733 106.733 149.359 107.254 142.049C107.775 134.74 111.419 126.125 111.419 126.125Z" fill="#2E3241"/>
<path d="M152.945 70.0258C151.255 70.4647 150.239 72.1947 150.677 73.8898C150.877 74.6665 151.35 75.2984 151.964 75.7158L151.964 75.7201L151.724 81.5446L156.169 83.6073L156.524 74.6444L156.493 74.6453C156.878 73.9568 157.011 73.125 156.798 72.3003C156.361 70.6052 154.636 69.5869 152.945 70.0258Z" fill="#A0616A"/>
<path d="M128.103 90.8131C127.169 89.885 126.627 88.6267 126.607 87.2583C126.58 85.4227 127.497 83.7566 129.061 82.8017C130.862 81.7019 133.113 81.8132 134.798 83.0848L148.755 93.6231L151.242 78.4419L156.582 80.1655L155.308 99.9336C155.219 101.316 154.44 102.534 153.223 103.192C152.007 103.85 150.564 103.833 149.363 103.148L129.192 91.6401C128.787 91.4089 128.422 91.1302 128.103 90.8131Z" fill="#41563D"/>
<path d="M106.82 61.5343C107.712 63.0394 107.219 64.9849 105.718 65.8796C105.03 66.2896 104.251 66.4047 103.522 66.2677L103.519 66.2709L99.5996 70.5764L94.9949 68.9031L101.036 62.2876L101.057 62.3101C101.267 61.5491 101.756 60.8644 102.487 60.4291C103.988 59.5343 105.928 60.0292 106.82 61.5343Z" fill="#A0616A"/>
<path d="M108.513 93.6538L86.1086 87.5852C84.7746 87.2238 83.7383 86.2167 83.3362 84.891C82.9341 83.5653 83.236 82.1501 84.1435 81.1051L97.1181 66.1675L102.12 68.7132L93.2275 81.25L110.538 83.6205C112.627 83.9066 114.305 85.4174 114.811 87.4697C115.251 89.2518 114.733 91.0826 113.425 92.367C112.45 93.3244 111.182 93.8355 109.867 93.8354C109.418 93.8354 108.963 93.7757 108.513 93.6538Z" fill="#41563D"/>
<path d="M140.454 131.348L109.124 132.789C108.264 131.479 108.497 129.509 109.702 127.042C114.252 117.726 110.796 100.103 108.472 90.9272C107.82 88.3526 109.57 85.793 112.206 85.5287L115.16 85.2325L117.891 76.874H127.454L131.421 81.4191L138.154 85.5207C136.929 98.1794 131.707 116.055 139.146 125.019C140.773 126.979 141.235 129.1 140.454 131.348Z" fill="#41563D"/>
<path d="M121.456 77.0675C126.6 77.0675 130.771 72.8856 130.771 67.7269C130.771 62.5682 126.6 58.3862 121.456 58.3862C116.311 58.3862 112.141 62.5682 112.141 67.7269C112.141 72.8856 116.311 77.0675 121.456 77.0675Z" fill="#A0616A"/>
<path d="M131.997 61.7478C133.293 57.0097 119.168 52.9467 116.423 56.7623C116.041 56.2198 114.631 55.8903 113.983 56.0567C113.336 56.2231 112.792 56.6391 112.261 57.0418C111.531 57.6043 110.774 58.1867 110.326 58.9954C109.875 59.8008 109.805 60.8991 110.412 61.598C110.894 62.1538 111.739 65.1072 112.463 65.2537C112.967 65.3568 113.392 65.44 113.757 65.4999C114.082 65.024 114.912 64.4262 114.852 63.8504C115.343 64.1766 115.164 64.7504 115.065 65.3369C114.735 67.2897 107.305 82.407 111.561 77.9523C111.982 78.2019 112.503 78.4348 113.104 78.6478C114.123 77.1069 114.959 75.2898 115.51 73.3894L115.514 73.4245C115.704 75.076 116.907 76.4311 118.5 76.8936C124.887 78.7493 130.054 76.0264 131.831 71.1162C131.181 69.7916 130.897 69.9355 130.955 69.8961C131.768 69.3471 132.884 69.7062 133.233 70.6239C133.336 70.8944 133.43 71.1254 133.511 71.2992C134.437 67.9778 135.538 68.4572 131.997 61.7478Z" fill="#2E3241"/>
<path d="M127.59 58.3101L126.938 54.9652C126.883 54.684 126.831 54.379 126.957 54.122C127.12 53.7919 127.537 53.6551 127.901 53.7077C128.264 53.7603 128.536 54.0931 128.897 54.1572C130.154 54.38 131.815 53.1351 132.266 56.2845C132.453 57.5976 134.543 57.7363 135.241 58.8632C135.939 59.9901 136.024 61.6167 135.072 62.5374C134.311 63.2727 133.09 63.3576 132.102 62.982C131.114 62.6063 130.321 61.8477 129.629 61.0476C128.936 60.2475 128.309 59.3818 127.51 58.6884" fill="#2E3241"/>
<path d="M132.494 63.3977C129.945 63.0407 128.208 62.1111 127.33 60.6351C126.182 58.703 126.951 56.5755 126.984 56.4858L127.523 56.6867C127.516 56.7062 126.818 58.6537 127.827 60.3449C128.612 61.6605 130.209 62.4956 132.573 62.8269L132.494 63.3977Z" fill="#5B855E"/>
<path d="M144.455 27.2556C136.962 27.2556 130.865 21.1417 130.865 13.6278C130.865 6.11387 136.962 0 144.455 0C151.948 0 158.045 6.11387 158.045 13.6278C158.045 21.1417 151.948 27.2556 144.455 27.2556ZM144.455 5.45112C139.959 5.45112 136.301 9.11891 136.301 13.6278C136.301 18.1367 139.959 21.8045 144.455 21.8045C148.952 21.8045 152.609 18.1367 152.609 13.6278C152.609 9.11891 148.952 5.45112 144.455 5.45112Z" fill="#5B855E"/>
<path d="M165.364 36.5167C164.698 36.5167 164.031 36.2732 163.506 35.7794L150.751 23.7926C149.655 22.7638 149.599 21.0391 150.626 19.9411C151.651 18.8392 153.371 18.7846 154.467 19.816L167.222 31.8029C168.319 32.8316 168.374 34.5564 167.347 35.6543C166.812 36.2279 166.089 36.5167 165.364 36.5167Z" fill="#5B855E"/>
</svg>
