<svg width="24" height="22" viewBox="0 0 24 22" fill="none" xmlns="http://www.w3.org/2000/svg">
<path fill-rule="evenodd" clip-rule="evenodd" d="M7.02991 4.80932e-05C7.03588 -5.89745e-06 7.04186 -1.44296e-05 7.04784 2.24966e-05C8.90405 0.011492 10.6812 0.764794 11.997 2.09699C12.6425 1.43718 13.4088 0.912545 14.2527 0.552906C15.1082 0.188325 16.0263 0.00057695 16.9537 0.00057695C17.8811 0.00057695 18.7992 0.188325 19.6547 0.552906C20.5093 0.917091 21.2843 1.45047 21.9348 2.12208C23.2575 3.47565 24 5.30756 24 7.21722C24 9.12759 23.2569 10.9601 21.9334 12.3139L21.9325 12.3147L12.8491 21.6386C12.6238 21.8699 12.3171 22 11.9971 22C11.6772 22 11.3705 21.8699 11.1452 21.6386L2.0606 12.3136C1.0772 11.3053 0.407685 10.024 0.135867 8.63013C-0.135951 7.23624 0.00200456 5.79166 0.532464 4.47723C1.06292 3.1628 1.96232 2.03692 3.11806 1.24054C4.27379 0.444158 5.63453 0.0126546 7.02991 4.80932e-05ZM7.04224 2.44449C6.1222 2.45459 5.22531 2.73992 4.46316 3.26509C3.69853 3.79197 3.1035 4.53684 2.75255 5.40646C2.40161 6.27607 2.31034 7.23179 2.49017 8.15398C2.67 9.07617 3.11295 9.92384 3.76355 10.5909L11.9971 19.0424L20.2319 10.5897C21.1079 9.69403 21.5997 8.48138 21.5997 7.21722C21.5997 5.95307 21.1079 4.74041 20.2319 3.84475C20.2304 3.84323 20.2289 3.8417 20.2274 3.84017C19.7998 3.39828 19.2901 3.04738 18.7281 2.80787C18.1661 2.56836 17.5629 2.44502 16.9537 2.44502C16.3445 2.44502 15.7413 2.56836 15.1793 2.80787C14.6173 3.04738 14.1076 3.39828 13.68 3.84017C13.6781 3.84215 13.6762 3.84412 13.6742 3.84608C13.6726 3.84773 13.671 3.84937 13.6694 3.851C13.4217 4.10058 13.2059 4.38092 13.027 4.6854C12.8102 5.05422 12.4192 5.28 11.9971 5.28C11.5751 5.28 11.184 5.05422 10.9673 4.6854C10.7884 4.38092 10.5726 4.10058 10.3249 3.851C10.323 3.84909 10.3211 3.84717 10.3192 3.84524C9.45011 2.95764 8.27279 2.45449 7.04224 2.44449Z" fill="#A9A9A9"/>
</svg>
