<svg width="10" height="14" viewBox="0 0 10 14" fill="none" xmlns="http://www.w3.org/2000/svg">
<path id="Vector" d="M7.55981 8.80001L7.91845 10.1938C8.27228 11.5689 8.44919 12.2564 8.21311 12.6329C8.13037 12.7648 8.01938 12.8707 7.89058 12.9405C7.52307 13.1399 6.95563 12.8249 5.82078 12.1948C5.44315 11.9852 5.25433 11.8804 5.05375 11.8576C4.97936 11.8491 4.90447 11.8491 4.83008 11.8576C4.62949 11.8804 4.44068 11.9852 4.06305 12.1948C2.92819 12.8249 2.36073 13.1399 1.99323 12.9405C1.86445 12.8707 1.75345 12.7648 1.67073 12.6329C1.43461 12.2564 1.61155 11.5689 1.96536 10.1938L2.32401 8.80001M8.60223 3.63815C8.78386 4.12096 8.88379 4.64805 8.88379 5.20001C8.88379 7.51961 7.11896 9.40001 4.94193 9.40001C2.7649 9.40001 1.00007 7.51961 1.00007 5.20001C1.00007 2.88041 2.7649 1 4.94193 1C5.45995 1 5.95465 1.10647 6.40779 1.3M5.42289 4.01351C5.20891 3.60451 5.10191 3.4 4.94193 3.4C4.78195 3.4 4.67495 3.60451 4.46097 4.01351L4.40561 4.11933C4.34485 4.23555 4.31444 4.29367 4.26703 4.33201C4.21961 4.37036 4.1606 4.38459 4.04251 4.41305L3.93501 4.43897C3.51948 4.53915 3.31169 4.58924 3.26225 4.7586C3.21281 4.92796 3.35449 5.10444 3.63774 5.45739L3.71106 5.54871C3.79153 5.64901 3.83179 5.69915 3.84992 5.76119C3.868 5.82323 3.86192 5.89013 3.84975 6.02399L3.83866 6.14579C3.79586 6.61673 3.77441 6.85217 3.90381 6.95687C4.03327 7.06151 4.22778 6.96611 4.61684 6.77525L4.71747 6.72587C4.82807 6.67163 4.88331 6.64451 4.94193 6.64451C5.00055 6.64451 5.05579 6.67163 5.16639 6.72587L5.26702 6.77525C5.65608 6.96611 5.85059 7.06151 5.98005 6.95687C6.10943 6.85217 6.08802 6.61673 6.0452 6.14579L6.03411 6.02399C6.02194 5.89013 6.01586 5.82323 6.03394 5.76119C6.05207 5.69915 6.09232 5.64901 6.17282 5.54871L6.24611 5.45739C6.52939 5.10444 6.67103 4.92796 6.6216 4.7586C6.57217 4.58924 6.3644 4.53915 5.94885 4.43897L5.84135 4.41305C5.72326 4.38459 5.66425 4.37036 5.61683 4.33201C5.56942 4.29367 5.53901 4.23555 5.47825 4.11933L5.42289 4.01351Z" stroke="#F4A223"/>
</svg>
