<svg width="26" height="26" viewBox="0 0 26 26" fill="none" xmlns="http://www.w3.org/2000/svg">
<g id="Frame">
<rect width="26" height="26" rx="13" fill="#FEF3E0"/>
<path id="Star 9" d="M12.7276 5.5906C12.8348 5.35814 13.1652 5.35814 13.2724 5.5906L15.1868 9.74089C15.2305 9.83563 15.3202 9.90086 15.4239 9.91315L19.9626 10.4513C20.2168 10.4814 20.3189 10.7956 20.1309 10.9695L16.7753 14.0726C16.6987 14.1434 16.6644 14.249 16.6848 14.3513L17.5755 18.8342C17.6254 19.0853 17.3581 19.2795 17.1347 19.1545L13.1465 16.922C13.0555 16.8711 12.9445 16.8711 12.8535 16.922L8.86525 19.1545C8.64187 19.2795 8.37458 19.0853 8.42447 18.8342L9.31522 14.3513C9.33555 14.249 9.30125 14.1434 9.22465 14.0726L5.86906 10.9695C5.68111 10.7956 5.7832 10.4814 6.03742 10.4513L10.5761 9.91315C10.6798 9.90086 10.7695 9.83563 10.8132 9.74089L12.7276 5.5906Z" fill="#FFDAA5"/>
</g>
</svg>
