<svg width="305" height="277" viewBox="0 0 305 277" fill="none" xmlns="http://www.w3.org/2000/svg">
<path d="M102.696 82.2479C102.696 86.1196 101.354 89.8715 98.8977 92.8644C96.4415 95.8572 93.0235 97.9058 89.2262 98.6611C85.4289 99.4164 81.4871 98.8317 78.0726 97.0065C74.658 95.1814 71.982 92.2288 70.5004 88.6517C69.0188 85.0747 68.8233 81.0946 69.9472 77.3896C71.0711 73.6847 73.445 70.484 76.6642 68.333C79.8834 66.182 83.7489 65.2138 87.602 65.5933C91.4551 65.9728 95.0573 67.6766 97.795 70.4144C99.3518 71.9663 100.586 73.8108 101.427 75.8417C102.269 77.8725 102.7 80.0497 102.696 82.2479Z" fill="#ECE7E1" stroke="black" stroke-miterlimit="10" stroke-linecap="round"/>
<path d="M95.7912 68.7167C93.2781 67.9253 90.6128 67.7431 88.0154 68.1851C85.4122 68.5891 82.9734 69.7116 80.9736 71.4264C79.0834 73.1437 77.8076 75.4326 77.3412 77.9434C76.8344 80.4518 77.0363 83.0517 77.9243 85.4517C78.3862 86.6938 79.0852 87.8343 79.9823 88.8097C80.8763 89.7879 81.9878 90.5422 83.2271 91.0117C85.1601 91.6653 87.2573 91.6458 89.1778 90.9565C91.0983 90.2671 92.7292 88.9484 93.8052 87.2147C94.2712 86.345 94.555 85.3894 94.6393 84.4063C94.7236 83.4232 94.6067 82.4333 94.2957 81.4969C93.6818 79.631 92.3029 78.0978 90.1797 77.7582C89.355 77.6014 88.5022 77.6989 87.7341 78.0376C86.966 78.3763 86.3189 78.9403 85.8785 79.655C85.4371 80.3703 85.1834 81.1853 85.1408 82.0248C85.0982 82.8642 85.2682 83.7007 85.635 84.457" stroke="#070707" stroke-miterlimit="10" stroke-linecap="round"/>
<path d="M67.3184 89.468C68.584 88.8918 70.1824 88.2161 72.0792 87.537C74.222 86.7722 76.4057 86.1275 78.6202 85.6059C82.0071 84.8283 85.4564 84.3531 88.9274 84.1859C95.7023 83.8244 102.494 84.4424 109.092 86.0209C111.353 86.5606 113.585 87.2131 115.781 87.976C118.654 88.975 121.461 90.155 124.184 91.5089C122.073 94.6007 120.167 97.8273 118.477 101.168C113.483 111.035 110.465 121.782 109.593 132.806C109.229 137.441 109.239 142.098 109.624 146.732C109.624 146.732 104.983 148.022 98.9635 151.877C91.015 156.956 84.502 163.988 80.0471 172.303C80.0471 172.303 82.7122 161.368 82.4481 145.549C82.184 129.729 79.0044 109.002 67.3184 89.468Z" fill="#FFDAA5" stroke="#070707" stroke-miterlimit="10" stroke-linecap="round"/>
<path d="M262.682 140.506C262.486 131.939 261.154 123.434 258.72 115.217C255.129 103.085 248.255 88.9707 235.087 78.0427C230.722 74.4196 225.92 71.3568 220.795 68.9258C216.773 67.0191 212.583 65.4907 208.279 64.3605C191.732 60.1656 175.028 60.9957 160.173 66.1098C145.317 71.2239 132.321 80.629 123.194 93.5841C113.789 106.927 110.441 121.268 109.584 132.984C108.994 140.898 109.441 148.854 110.915 156.651L186.8 148.581L262.682 140.506Z" fill="#D3D3D3" stroke="black" stroke-miterlimit="10" stroke-linecap="round"/>
<path d="M192.168 148.011L227.425 144.259L262.682 140.507C262.486 131.939 261.154 123.434 258.72 115.217C255.129 103.085 248.255 88.9707 235.087 78.0428C230.722 74.4196 225.92 71.3569 220.795 68.9258C216.773 67.0191 212.583 65.4907 208.279 64.3605C205.519 63.6608 202.756 63.0994 199.992 62.6764C197.227 62.2533 194.474 61.9663 191.732 61.8154C186.114 71.8979 182.556 82.9962 181.264 94.4656C179.597 109.383 181.47 127.785 192.168 148.011Z" fill="#FFDAA5" stroke="#070707" stroke-miterlimit="10" stroke-linecap="round"/>
<path d="M205.452 63.6951C206.579 68.234 207.007 72.9185 206.721 77.5866C206.272 85.4756 203.634 95.2991 194.963 102.934C196.467 106.011 197.231 109.398 197.192 112.823C197.158 118.623 194.822 126.121 185.623 132.936" stroke="#070707" stroke-miterlimit="10" stroke-linecap="round"/>
<path d="M150.926 69.9719C145.44 72.6826 140.305 76.0492 135.631 79.9978C130.926 83.9805 126.746 88.5459 123.194 93.584C113.789 106.927 110.441 121.268 109.584 132.984C108.994 140.898 109.441 148.854 110.915 156.651L133.824 154.216L156.729 151.777C162.56 135.341 162.07 117.351 159.641 102.235C157.843 91.2113 154.923 80.4009 150.926 69.9719Z" fill="#FFDAA5" stroke="#070707" stroke-miterlimit="10" stroke-linecap="round"/>
<path d="M138.266 77.8679C137.693 81.8363 137.634 85.8621 138.091 89.8455C138.798 95.7622 140.952 102.502 146.57 106.773C147.345 107.359 148.164 107.886 149.019 108.347C150.033 108.895 151.092 109.354 152.185 109.719C151.037 111.864 150.208 114.164 149.722 116.548C148.937 120.369 148.868 125.288 151.557 129.983C152.74 132.032 154.313 133.829 156.188 135.272C157.438 136.24 158.796 137.06 160.235 137.715" stroke="#070707" stroke-miterlimit="10" stroke-linecap="round"/>
<path d="M107.618 208.904L116.193 223.07L124.768 237.236C120.137 240.68 115.511 244.135 110.89 247.601C106.268 251.068 101.625 254.498 96.9606 257.891C93.0607 260.732 89.1196 263.503 84.8767 265.437C80.6338 267.372 76.0925 268.439 70.9886 267.886C68.685 267.615 66.4208 267.077 64.2418 266.281C62.2109 265.574 60.2709 264.629 58.4623 263.465C58.2427 263.318 58.0164 263.16 57.8483 263.04L57.5602 262.838C52.7285 259.698 49.1757 254.938 47.5411 249.412C46.0182 244.388 46.0114 239.088 46.6288 234.351C47.0943 230.803 47.9501 227.316 49.1807 223.955C50.4091 220.592 51.984 217.365 53.8798 214.327L67.7576 192.032L81.6319 169.737C82.7295 167.972 83.9049 166.257 85.158 164.592C86.4123 162.936 87.7494 161.345 89.1642 159.824C94.2376 154.345 100.64 150.269 107.751 147.991C114.553 145.744 121.924 144.904 129.727 144.54C140.961 144.033 153.864 145.247 165.2 149.497C176.537 153.746 186.295 161.035 191.258 172.67C191.889 174.156 192.536 175.634 193.2 177.105C193.863 178.575 194.534 180.042 195.213 181.505L210.123 213.655L225.033 245.804C226.188 248.287 226.873 250.961 227.054 253.693C227.346 258.066 226.249 262.419 223.919 266.13C223.104 267.408 222.16 268.598 221.099 269.68C217.354 273.552 212.327 275.927 206.957 276.359C201.575 276.809 196.206 275.352 191.79 272.243C183.156 266.158 172.836 256.465 164.676 248.281C156.516 240.097 150.51 233.449 150.51 233.449L160.913 220.758L171.316 208.067C171.333 208.048 171.343 208.025 171.346 208C171.349 207.975 171.345 207.949 171.333 207.927C171.323 207.905 171.306 207.886 171.286 207.874C171.265 207.861 171.241 207.854 171.217 207.855L139.41 208.386L107.618 208.904Z" fill="#DBCAF4" stroke="#070707" stroke-miterlimit="10" stroke-linecap="round"/>
<path d="M207.447 227.388C207.447 229.981 206.548 232.493 204.904 234.497C203.259 236.502 200.971 237.874 198.428 238.38C195.885 238.885 193.246 238.494 190.959 237.272C188.673 236.05 186.881 234.073 185.888 231.678C184.896 229.283 184.765 226.618 185.517 224.137C186.27 221.656 187.859 219.513 190.015 218.072C192.17 216.632 194.759 215.983 197.339 216.237C199.919 216.491 202.331 217.632 204.164 219.465C205.206 220.504 206.033 221.739 206.596 223.099C207.159 224.459 207.449 225.917 207.447 227.388Z" fill="#DBCAF4" stroke="black" stroke-miterlimit="10" stroke-linecap="round"/>
<path d="M164.783 188.088C164.782 190.68 163.883 193.192 162.238 195.196C160.593 197.199 158.304 198.57 155.761 199.076C153.219 199.581 150.579 199.189 148.293 197.967C146.007 196.745 144.216 194.767 143.224 192.372C142.232 189.977 142.101 187.312 142.854 184.832C143.606 182.351 145.196 180.208 147.351 178.768C149.507 177.327 152.095 176.679 154.675 176.933C157.255 177.187 159.667 178.328 161.5 180.161C162.542 181.201 163.369 182.436 163.932 183.797C164.496 185.157 164.785 186.615 164.783 188.088Z" fill="#DBCAF4" stroke="black" stroke-miterlimit="10" stroke-linecap="round"/>
<path d="M78.1851 238.594C78.1852 241.187 77.2865 243.699 75.642 245.703C73.9974 247.707 71.7088 249.079 69.1661 249.585C66.6234 250.091 63.984 249.7 61.6975 248.478C59.411 247.256 57.619 245.279 56.6267 242.884C55.6344 240.489 55.5033 237.824 56.2558 235.343C57.0082 232.862 58.5976 230.718 60.7531 229.278C62.9086 227.838 65.4969 227.189 68.077 227.443C70.6571 227.697 73.0693 228.838 74.9025 230.671C75.9442 231.711 76.7704 232.946 77.3336 234.305C77.8969 235.665 78.1863 237.122 78.1851 238.594Z" fill="#DBCAF4" stroke="black" stroke-miterlimit="10" stroke-linecap="round"/>
<path d="M198.461 265.636C198.463 263.133 197.627 260.701 196.085 258.728C194.543 256.756 192.385 255.356 189.955 254.754C187.525 254.152 184.963 254.38 182.678 255.404C180.393 256.428 178.517 258.188 177.35 260.402C179.802 262.622 182.279 264.782 184.707 266.786C187.135 268.789 189.509 270.634 191.786 272.232C192.26 272.566 192.742 272.878 193.234 273.169C193.726 273.459 194.224 273.732 194.729 273.989C195.906 272.939 196.847 271.652 197.49 270.212C198.134 268.773 198.464 267.213 198.461 265.636Z" fill="#DBCAF4" stroke="black" stroke-miterlimit="10" stroke-linecap="round"/>
<path d="M102.695 166.379C104.921 166.38 107.097 165.717 108.945 164.475C110.793 163.234 112.228 161.469 113.069 159.408C113.909 157.347 114.116 155.081 113.663 152.902C113.21 150.722 112.118 148.727 110.526 147.171C107.109 148.082 103.802 149.366 100.665 150.999C97.4154 152.714 94.4008 154.841 91.6953 157.327C92.1933 159.879 93.563 162.179 95.5697 163.832C97.5764 165.485 100.095 166.389 102.695 166.389V166.379Z" fill="#DBCAF4" stroke="black" stroke-miterlimit="10" stroke-linecap="round"/>
<path d="M173.711 166.379C175.657 166.382 177.57 165.877 179.262 164.915C180.953 163.952 182.364 162.565 183.356 160.891C180.73 158.23 177.776 155.914 174.565 154C171.298 152.053 167.845 150.435 164.258 149.171C163.699 150.05 163.264 151.002 162.965 152C162.466 153.673 162.365 155.44 162.67 157.159C162.976 158.878 163.678 160.501 164.722 161.901C165.766 163.3 167.122 164.436 168.683 165.218C170.243 166.001 171.965 166.408 173.711 166.406V166.379Z" fill="#DBCAF4" stroke="black" stroke-miterlimit="10" stroke-linecap="round"/>
<path d="M104.479 237.236C102.136 237.235 99.8506 237.968 97.9457 239.333C96.0409 240.699 94.6122 242.627 93.8608 244.847C93.1095 247.067 93.0733 249.467 93.7574 251.708C94.4415 253.95 95.8114 255.921 97.6743 257.343C100.576 255.225 103.466 253.095 106.345 250.953C109.224 248.81 112.101 246.664 114.975 244.515C114.176 242.377 112.742 240.534 110.866 239.233C108.991 237.932 106.762 237.235 104.479 237.236Z" fill="#DBCAF4" stroke="black" stroke-miterlimit="10" stroke-linecap="round"/>
<path d="M79.2725 175.729C76.6794 186.705 68.5709 188.286 61.1106 187.137C53.6504 185.988 46.8555 182.099 46.8555 182.099C41.2612 189.525 34.9431 191.957 30.0245 192.533C25.1059 193.109 21.5867 191.826 21.5867 191.826C6.58048 153.482 17.5668 127.202 32.3021 110.508C47.0373 93.814 65.5079 86.707 65.5079 86.707C65.5079 86.707 72.0969 95.649 77.1116 111.249C82.1262 126.848 85.5665 149.099 79.2725 175.729Z" fill="#DBCAF4" stroke="black" stroke-miterlimit="10" stroke-linecap="round"/>
<path d="M65.5625 161.522C65.6277 162.683 65.3561 163.839 64.7804 164.849C64.2354 165.789 63.4529 166.569 62.5113 167.111C61.5698 167.652 60.5022 167.937 59.4159 167.936C58.2533 167.929 57.1173 167.587 56.1437 166.952H56.1162C55.1438 167.587 54.009 167.929 52.8474 167.936C51.7607 167.937 50.6929 167.652 49.7509 167.11C48.8088 166.568 48.0256 165.789 47.4795 164.849C46.905 163.838 46.6346 162.683 46.7009 161.522C45.6627 160.999 44.7979 160.186 44.2107 159.183C43.6671 158.24 43.3809 157.172 43.3809 156.084C43.3809 154.996 43.6671 153.927 44.2107 152.985C44.7981 151.982 45.6629 151.171 46.7009 150.649C46.6349 149.489 46.9052 148.335 47.4795 147.325C48.0266 146.387 48.8101 145.608 49.7519 145.066C50.6937 144.525 51.761 144.239 52.8474 144.238C54.0093 144.247 55.1441 144.59 56.1162 145.226H56.1368C57.1102 144.59 58.2461 144.247 59.409 144.238C60.4951 144.239 61.5621 144.524 62.5034 145.066C63.4448 145.607 64.2275 146.386 64.7736 147.325C65.3488 148.335 65.6204 149.489 65.5556 150.649C66.5921 151.173 67.4564 151.984 68.0458 152.985C68.5874 153.928 68.8725 154.996 68.8725 156.084C68.8725 157.171 68.5874 158.24 68.0458 159.183C67.4585 160.184 66.5967 160.996 65.5625 161.522Z" fill="#FF553E" stroke="#070707" stroke-miterlimit="10" stroke-linecap="round"/>
<path d="M59.6634 156.086C59.6617 156.901 59.3772 157.691 58.8584 158.321C58.3397 158.95 57.6188 159.38 56.8184 159.538C56.0181 159.695 55.1879 159.57 54.4693 159.185C53.7507 158.799 53.1881 158.176 52.8773 157.421C52.5665 156.667 52.5268 155.829 52.7649 155.049C53.0031 154.268 53.5043 153.595 54.1833 153.143C54.8622 152.691 55.6769 152.488 56.4885 152.57C57.3001 152.651 58.0585 153.011 58.6344 153.589C58.962 153.916 59.2216 154.306 59.3982 154.734C59.5748 155.163 59.6649 155.622 59.6634 156.086Z" fill="#ECE7E1" stroke="black" stroke-miterlimit="10" stroke-linecap="round"/>
<path d="M74.1455 109.52C73.2467 109.5 72.3893 109.137 71.7488 108.506C71.1083 107.875 70.7331 107.024 70.6998 106.125C70.6665 105.227 70.9777 104.349 71.5697 103.673C72.1618 102.996 72.9899 102.571 73.8848 102.485C73.1988 100.866 72.5369 99.3601 71.8817 97.9778C71.2266 96.5955 70.5955 95.3264 69.9918 94.2048C69.5995 94.2596 69.2135 94.3527 68.8393 94.4827C68.4729 94.6021 68.1181 94.7548 67.7795 94.9389C66.8363 95.4806 66.0539 96.263 65.5122 97.2061C64.9369 98.2168 64.6653 99.372 64.7302 100.533C63.6941 101.06 62.8301 101.871 62.24 102.872C61.6964 103.815 61.4102 104.884 61.4102 105.971C61.4102 107.059 61.6964 108.128 62.24 109.07C62.8301 110.072 63.6941 110.883 64.7302 111.41C64.6653 112.571 64.9369 113.726 65.5122 114.737C66.0572 115.677 66.8397 116.456 67.7813 116.998C68.7229 117.54 69.7904 117.825 70.8767 117.824C72.0394 117.817 73.1753 117.475 74.149 116.839H74.1695C74.8714 117.297 75.6608 117.603 76.4875 117.739C77.3143 117.875 78.1602 117.837 78.9715 117.628C78.5599 116.028 78.1289 114.492 77.6784 113.022C77.2291 111.54 76.7626 110.117 76.2893 108.748C75.6766 109.225 74.9217 109.482 74.1455 109.479V109.52Z" fill="#FF553E" stroke="#070707" stroke-miterlimit="10" stroke-linecap="round"/>
<path d="M70.6152 105.994C70.6152 106.457 70.7066 106.916 70.884 107.344C71.0614 107.772 71.3214 108.161 71.6492 108.488C71.977 108.816 72.3661 109.075 72.7943 109.252C73.2225 109.429 73.6814 109.52 74.1447 109.52C74.9209 109.523 75.6758 109.266 76.2885 108.789C75.8974 107.657 75.4961 106.563 75.0948 105.514C74.6935 104.464 74.2888 103.456 73.884 102.478C72.9956 102.542 72.1645 102.941 71.558 103.593C70.9515 104.245 70.6147 105.103 70.6152 105.994Z" fill="#ECE7E1" stroke="black" stroke-miterlimit="10" stroke-linecap="round"/>
<path d="M21.816 126.91C21.7533 128.064 22.0236 129.212 22.5947 130.216C23.1354 131.153 23.9127 131.931 24.8488 132.473C25.7848 133.015 26.8468 133.301 27.9283 133.303C29.0831 133.297 30.2113 132.957 31.1765 132.323H31.2005C32.1657 132.957 33.2939 133.297 34.4487 133.303C35.2771 133.312 36.0984 133.15 36.8619 132.828C37.6254 132.507 38.3148 132.032 38.8876 131.434C39.4604 130.835 39.9045 130.125 40.1923 129.349C40.4801 128.572 40.6056 127.744 40.561 126.917C41.5914 126.395 42.4499 125.588 43.034 124.591C43.5779 123.653 43.8644 122.588 43.8644 121.504C43.8644 120.42 43.5779 119.355 43.034 118.417C42.4499 117.421 41.5914 116.614 40.561 116.092C40.6226 114.938 40.3537 113.791 39.7858 112.785C39.3116 111.966 38.6555 111.267 37.868 110.742C37.0806 110.217 36.183 109.88 35.2445 109.757C34.414 109.647 33.5696 109.716 32.768 109.959C30.5665 112.402 28.5227 114.984 26.6489 117.687C24.6693 120.542 22.9027 123.538 21.3633 126.653C21.4353 126.701 21.5108 126.745 21.5862 126.786L21.816 126.913V126.91ZM31.1902 117.992C32.0001 117.993 32.7846 118.274 33.4102 118.789C34.0359 119.303 34.4639 120.018 34.6216 120.812C34.7792 121.607 34.6566 122.431 34.2747 123.145C33.8928 123.86 33.2752 124.419 32.5271 124.729C31.7789 125.039 30.9464 125.08 30.1713 124.846C29.3963 124.611 28.7265 124.115 28.2761 123.442C27.8257 122.769 27.6224 121.96 27.701 121.154C27.7795 120.348 28.135 119.594 28.7069 119.021C29.0343 118.694 29.4233 118.436 29.8513 118.26C30.2794 118.085 30.7379 117.996 31.2005 117.999L31.1902 117.992Z" fill="#FF553E" stroke="#070707" stroke-miterlimit="10" stroke-linecap="round"/>
<path d="M31.2012 125.013C32.0129 125.013 32.7994 124.731 33.4267 124.216C34.0541 123.701 34.4835 122.985 34.6418 122.189C34.8001 121.392 34.6775 120.566 34.2949 119.85C33.9123 119.134 33.2934 118.573 32.5435 118.263C31.7937 117.952 30.9593 117.911 30.1825 118.146C29.4057 118.382 28.7346 118.879 28.2834 119.554C27.8322 120.229 27.6289 121.039 27.7082 121.847C27.7874 122.655 28.1442 123.41 28.7179 123.984C29.0435 124.311 29.4306 124.57 29.8568 124.747C30.283 124.923 30.7399 125.014 31.2012 125.013Z" fill="#ECE7E1" stroke="black" stroke-miterlimit="10" stroke-linecap="round"/>
<path d="M231.39 208.239L226.588 228.273L221.786 248.311L243.454 256.286L265.118 264.258C267.402 265.212 269.795 265.886 272.242 266.264C275.719 266.815 279.273 266.627 282.672 265.712C286.898 264.512 290.747 262.252 293.854 259.147C297.18 255.83 299.764 251.844 301.435 247.454C302.344 245.108 303.002 242.671 303.396 240.186C303.788 237.698 303.942 235.178 303.856 232.66C303.554 223.547 302.861 215.243 301.994 207.861C301.126 200.48 300.076 194.028 299.068 188.619C295.837 171.353 292.146 160.359 288.874 153.29C285.602 146.221 282.751 143.052 281.201 141.45C269.505 129.335 253.902 124.022 240.627 121.796C231.836 120.319 222.896 119.934 214.011 120.65C208.582 121.169 203.209 122.158 197.951 123.607C190.412 125.676 183.164 128.686 176.377 132.566C169.677 136.41 163.482 141.073 157.934 146.447C161.055 147.411 164.109 148.579 167.078 149.942C169.31 150.968 171.486 152.113 173.595 153.372C175.445 154.469 177.231 155.672 178.942 156.974C180.259 158.003 181.138 158.771 181.638 159.224C182.359 159.876 183.237 160.716 184.19 161.752C185.263 162.919 186.263 164.152 187.185 165.443C188.913 167.87 190.359 170.487 191.493 173.242C192.133 174.809 192.679 176.413 193.129 178.044C196.401 189.363 201.426 200.048 206.887 210.554C212.347 221.06 218.25 231.398 223.268 242.072C224.622 236.438 225.975 230.801 227.326 225.162C228.677 219.523 230.032 213.882 231.39 208.239Z" fill="#A8E4C2" stroke="black" stroke-miterlimit="10" stroke-linecap="round"/>
<path d="M116.928 184.496C116.928 184.496 118.458 183.539 121.953 184.115C125.448 184.692 130.908 186.798 138.76 192.92" stroke="black" stroke-miterlimit="10" stroke-linecap="round"/>
<path d="M142.406 189.171C142.406 189.171 139.459 187.076 135.518 184.853C131.577 182.63 126.641 180.281 122.666 179.777" stroke="black" stroke-miterlimit="10" stroke-linecap="round"/>
<path d="M144.954 185.906C143.952 185.203 142.896 184.486 141.737 183.766C140.577 183.045 139.373 182.325 138.08 181.615C136.873 180.95 135.695 180.341 134.547 179.79C133.405 179.242 132.294 178.741 131.23 178.292" stroke="black" stroke-miterlimit="10" stroke-linecap="round"/>
<path d="M119.572 145.391C117.254 145.734 116.177 147.717 115.906 150.056C115.666 152.377 116.066 154.72 117.061 156.83C117.936 158.475 119.34 159.775 121.047 160.521C122.113 161.005 123.244 161.329 124.405 161.481C126.494 161.738 128.612 161.381 130.5 160.452C132.497 159.463 134.214 157.989 135.494 156.165C136.088 157.263 136.843 158.267 137.734 159.142C139.446 160.889 141.688 162.02 144.11 162.359C145.4 162.503 146.703 162.45 147.976 162.201C150.364 161.802 152.514 160.518 153.999 158.607C155.28 156.887 155.969 154.8 155.965 152.656C155.965 150.409 155.298 148.214 154.047 146.348C154.047 146.348 149.588 145.514 143.071 144.976C136.554 144.437 127.904 144.19 119.572 145.391Z" fill="#ECE7E1" stroke="black" stroke-miterlimit="10" stroke-linecap="round"/>
<path d="M88.1531 191.885L84.6545 190.115L81.1559 188.341L72.5123 198.906L63.8652 209.467L65.8752 210.777L67.8852 212.091L78.7137 211.617L89.5388 211.147L90.314 205.875L91.1029 200.604L89.6383 196.244L88.1531 191.885Z" fill="#FFD1DC" stroke="black" stroke-miterlimit="10" stroke-linecap="round"/>
<path d="M74.0174 184.729C73.7773 184.904 73.4583 185.127 73.0707 185.371C72.6267 185.647 72.1687 185.9 71.6987 186.129C68.6117 187.621 65.3463 187.813 62.3519 187.467C59.3575 187.12 56.6273 186.232 54.583 185.57C53.6329 185.261 52.4735 184.846 51.153 184.28C49.669 183.642 48.2257 182.914 46.8312 182.099C46.2652 182.822 45.5964 183.618 44.8143 184.441C42.1937 187.197 39.0896 189.447 35.6562 191.082L49.757 200.274L63.8577 209.467L72.5047 198.906L81.1483 188.341L77.5811 186.537L74.0174 184.729Z" fill="#FFDAA5" stroke="#070707" stroke-miterlimit="10" stroke-linecap="round"/>
<path d="M182.426 129.513C186.83 140.992 191.233 152.463 195.635 163.927C200.037 175.39 204.44 186.862 208.844 198.343C209.044 198.845 209.406 199.266 209.873 199.54C210.339 199.813 210.884 199.922 211.42 199.851C211.956 199.78 212.452 199.532 212.831 199.146C213.21 198.761 213.45 198.259 213.512 197.722L218.026 158.963L222.543 120.204C218.517 120.218 214.495 120.492 210.504 121.024C205.613 121.672 200.783 122.715 196.06 124.142C193.464 124.931 191.028 125.799 188.758 126.708C186.487 127.617 184.367 128.553 182.426 129.513Z" fill="#ECE7E1" stroke="black" stroke-miterlimit="10" stroke-linecap="round"/>
<path d="M153.828 142.149L163.806 145.439L173.784 148.725L165.95 155.725L158.112 162.723L155.972 152.436L153.828 142.149Z" fill="#040400" stroke="#040400" stroke-miterlimit="10"/>
<path d="M171.505 207.841L164.346 200.425L157.188 193.013C155.477 191.241 153.683 189.554 151.806 187.954C149.931 186.363 147.97 184.874 145.934 183.495C143.444 181.804 140.676 180.151 138.072 179.101C135.469 178.051 133.034 177.599 131.212 178.309C130.621 178.089 130.009 177.934 129.384 177.846C127.551 177.581 125.682 177.926 124.064 178.827C123.567 179.102 123.098 179.426 122.665 179.794C121.4 179.821 120.174 180.241 119.159 180.998C118.439 181.545 117.853 182.249 117.444 183.056C117.211 183.518 117.035 184.008 116.923 184.513C115.492 185.325 114.154 186.291 112.934 187.395C112.406 187.871 111.929 188.345 111.5 188.808C111.071 189.271 110.691 189.72 110.355 190.146C109.867 190.614 109.518 191.207 109.346 191.861C109.193 192.395 109.255 192.969 109.518 193.459C109.714 193.783 110 194.044 110.341 194.21C110.551 194.302 110.77 194.369 110.996 194.409C111.414 194.509 111.85 194.509 112.269 194.409C112.91 194.231 113.509 193.926 114.032 193.514C115.107 192.695 116.244 191.959 117.431 191.312C118.274 190.871 119.204 190.621 120.154 190.581H120.353H120.549C121.577 190.596 122.592 190.817 123.533 191.233C124.49 191.643 125.414 192.126 126.297 192.677C129.422 194.555 132.396 196.674 135.191 199.016C138.313 201.725 140.751 204.713 140.01 207.028C139.929 207.279 139.813 207.518 139.667 207.738C139.492 207.991 139.285 208.221 139.053 208.424C139.053 208.424 138.47 209.199 137.054 209.196C135.637 209.192 133.387 208.407 130.053 205.286C129.806 205.056 129.569 204.823 129.333 204.6C129.096 204.377 128.863 204.123 128.647 203.879C127.914 203.092 127.058 202.429 126.112 201.917C124.98 201.348 123.68 201.142 122.586 202.151C122.224 202.343 121.921 202.631 121.712 202.984C121.502 203.336 121.394 203.74 121.399 204.15C121.361 205.632 122.445 208.088 126.915 211.967C127.916 212.838 128.915 213.713 129.912 214.591C130.907 215.469 131.898 216.354 132.876 217.253L141.705 225.344L150.53 233.432L161.023 220.635L171.505 207.841Z" fill="#D87D61" stroke="black" stroke-miterlimit="10" stroke-linecap="round"/>
<path d="M212.526 199.41C212.383 199.523 212.226 199.617 212.059 199.691C211.786 199.817 211.492 199.888 211.191 199.9C210.727 199.92 210.267 199.8 209.871 199.557C208.465 189.953 207.061 180.34 205.659 170.718C204.257 161.096 202.852 151.481 201.443 141.875L202.63 141.693L203.813 141.508C205.277 151.165 206.734 160.816 208.183 170.461C209.633 180.106 211.081 189.756 212.526 199.41Z" fill="#F6991A" stroke="#070707" stroke-miterlimit="10" stroke-linecap="round"/>
<path d="M217.293 165.106C217.129 166.316 216.965 167.526 216.803 168.735L216.299 172.364C215.361 166.762 214.423 161.16 213.486 155.557C212.548 149.955 211.61 144.353 210.67 138.75L211.788 138.009L212.91 137.272C213.637 141.909 214.366 146.548 215.098 151.187C215.83 155.827 216.562 160.467 217.293 165.106Z" fill="#F6991A" stroke="#070707" stroke-miterlimit="10" stroke-linecap="round"/>
<path d="M200.89 178.463C200.149 176.405 199.409 174.339 198.67 172.265L196.451 166.064C195.594 161.632 194.737 157.199 193.882 152.765C193.027 148.332 192.172 143.898 191.316 139.464C191.522 139.57 191.742 139.68 191.968 139.786C192.194 139.893 192.428 139.996 192.654 140.102C192.846 140.184 193.038 140.26 193.223 140.332L193.776 140.537C194.956 146.86 196.138 153.18 197.322 159.498L200.89 178.463Z" fill="#F6991A" stroke="#070707" stroke-miterlimit="10" stroke-linecap="round"/>
<path d="M88.1527 220.703C88.642 217.353 89.1314 214.003 89.6207 210.653C90.1101 207.303 90.5983 203.954 91.0853 200.604C90.5983 199.149 90.1101 197.696 89.6207 196.244L88.1527 191.884L67.4938 183.344L46.8555 174.8L68.5296 169.613L90.2072 164.424C92.9169 163.776 95.6163 163.093 98.3158 162.397C101.015 161.7 103.704 160.984 106.4 160.277C109.248 159.515 112.244 159.5 115.099 160.232C118.604 161.155 122.463 163.439 125.934 168.331L134.166 178.751L142.398 189.171L115.274 204.949L88.1527 220.703Z" fill="#ECE7E1" stroke="black" stroke-miterlimit="10" stroke-linecap="round"/>
<path d="M75.9453 186.712C76.9327 186.496 77.8559 186.052 78.6413 185.416C80.0647 184.318 81.6322 182.329 82.2119 178.703" stroke="black" stroke-miterlimit="10" stroke-linecap="round"/>
<path d="M125.917 168.341C122.446 163.446 118.583 161.165 115.081 160.239C112.226 159.509 109.23 159.525 106.383 160.287C103.687 160.994 100.994 161.707 98.2949 162.407C95.5955 163.107 92.8995 163.779 90.1898 164.434L88.1867 164.911L86.1836 165.391C86.6212 169.76 88.092 173.962 90.4745 177.65C92.7344 181.152 95.9196 183.959 99.6772 185.762C102.356 187.016 105.261 187.716 108.218 187.82C110.198 187.891 112.179 187.729 114.121 187.336C114.912 189.058 115.703 190.781 116.495 192.505L118.871 197.678C119.131 198.328 119.423 198.964 119.746 199.585C120.115 200.298 120.532 200.986 120.995 201.643C122.827 204.373 125.65 206.283 128.867 206.97C132.02 207.67 135.322 207.101 138.059 205.385C138.924 204.835 139.716 204.177 140.415 203.426C141.099 202.688 141.69 201.869 142.175 200.988C143.351 198.845 143.85 196.395 143.605 193.963C143.363 191.524 142.425 189.206 140.902 187.285L133.411 177.821L125.917 168.341Z" fill="#040400" stroke="#040400" stroke-miterlimit="10"/>
<path d="M82.212 178.703C83.8165 178.558 85.4321 178.808 86.918 179.43C88.1562 179.993 89.0068 180.836 89.2984 181.831C89.3672 182.086 89.4052 182.349 89.4116 182.613C89.4347 183.094 89.3154 183.572 89.0686 183.985C88.5267 184.839 87.3364 185.313 85.7346 185.357C83.7467 185.336 81.7826 184.922 79.9551 184.14C80.1847 183.846 80.3988 183.54 80.5965 183.224C80.8305 182.851 81.0424 182.465 81.231 182.068C81.7349 181.005 82.0672 179.87 82.2154 178.703H82.212Z" fill="#FF553E" stroke="#070707" stroke-miterlimit="10" stroke-linecap="round"/>
<path d="M96.6622 172.858C96.6621 173.249 96.5265 173.627 96.2787 173.929C96.0309 174.23 95.6862 174.437 95.3033 174.513C94.9203 174.589 94.5229 174.53 94.1786 174.345C93.8344 174.161 93.5646 173.863 93.4153 173.503C93.2661 173.142 93.2465 172.741 93.3599 172.367C93.4734 171.993 93.7129 171.671 94.0376 171.454C94.3623 171.237 94.7521 171.14 95.1406 171.178C95.5291 171.216 95.8923 171.388 96.1683 171.665C96.3253 171.821 96.4498 172.007 96.5345 172.212C96.6193 172.417 96.6627 172.636 96.6622 172.858Z" fill="#ECE7E1" stroke="black" stroke-miterlimit="10" stroke-linecap="round"/>
<path d="M89.2227 195.067C90.9754 195.236 92.879 195.356 94.9199 195.41C96.9607 195.465 99.1388 195.41 101.437 195.242C104.198 195.051 106.946 194.708 109.669 194.213C112.193 193.747 114.471 193.184 116.529 192.612L117.695 195.157L118.865 197.698C116.038 198.779 113.127 199.628 110.163 200.236C106.439 200.999 102.644 201.36 98.8438 201.313C97.4307 201.293 96.0724 201.217 94.7758 201.101C93.4793 200.984 92.2479 200.823 91.0783 200.634L90.1556 197.839L89.2227 195.067Z" fill="#DBCAF4" stroke="black" stroke-miterlimit="10" stroke-linecap="round"/>
<path d="M153.91 144.005C154.126 143.597 154.339 143.172 154.545 142.722C154.751 142.273 154.953 141.803 155.145 141.309C155.691 139.905 156.114 138.457 156.411 136.98C156.656 135.75 156.814 134.504 156.884 133.252C157.434 133.287 157.977 133.393 158.499 133.568C159.178 133.786 159.788 134.178 160.269 134.703C161.319 135.883 161.573 137.735 161.178 139.505C160.784 141.275 159.741 142.935 158.201 143.741C157.422 144.137 156.554 144.329 155.68 144.297C155.08 144.275 154.485 144.177 153.91 144.005Z" fill="#D87D61" stroke="black" stroke-miterlimit="10" stroke-linecap="round"/>
<path d="M118.896 134.319L108.393 134.597L97.8906 134.875L103.385 143.83L108.877 152.786L113.885 143.552L118.896 134.319Z" fill="#040400" stroke="#040400" stroke-miterlimit="10"/>
<path d="M107.797 209.33L115.847 202.813L123.901 196.296C125.849 194.784 127.865 193.371 129.948 192.056C132.033 190.743 134.186 189.543 136.4 188.461C139.102 187.141 142.08 185.903 144.807 185.234C147.533 184.565 150.01 184.465 151.711 185.429C152.919 185.161 154.171 185.159 155.38 185.423C156.589 185.688 157.726 186.212 158.712 186.959C159.165 187.303 159.583 187.69 159.96 188.115C160.431 188.194 160.892 188.326 161.332 188.509C162.111 188.833 162.812 189.32 163.387 189.938C163.961 190.556 164.396 191.29 164.663 192.09C164.83 192.581 164.933 193.09 164.972 193.606L167.661 196.56L170.35 199.516C170.964 200.066 171.366 200.813 171.485 201.629C171.543 201.956 171.532 202.292 171.454 202.615C171.375 202.938 171.231 203.241 171.029 203.505C170.764 203.776 170.442 203.983 170.085 204.111C169.728 204.238 169.347 204.282 168.971 204.239C168.502 204.204 168.045 204.072 167.628 203.854C167.212 203.635 166.845 203.333 166.549 202.967C165.946 202.328 165.27 201.762 164.536 201.279C163.367 200.503 162.057 199.963 160.681 199.688L160.485 199.65L160.293 199.619C159.322 199.465 158.334 199.455 157.36 199.588C156.385 199.724 155.432 199.99 154.527 200.377C151.167 201.791 147.923 203.465 144.824 205.385C141.339 207.594 138.495 210.187 138.9 212.588C138.945 212.848 139.026 213.101 139.14 213.339C139.275 213.619 139.446 213.881 139.648 214.118C139.648 214.118 140.114 214.968 141.517 215.147C142.92 215.325 145.256 214.89 149.005 212.276C149.279 212.084 149.55 211.888 149.818 211.686C150.085 211.484 150.349 211.281 150.61 211.072C151.449 210.4 152.391 209.866 153.399 209.491C154.603 209.089 155.916 209.072 156.86 210.228C157.191 210.47 157.449 210.798 157.606 211.177C157.762 211.556 157.812 211.97 157.748 212.375C157.57 213.847 156.15 216.124 151.173 219.328C150.054 220.044 148.941 220.766 147.832 221.496C146.721 222.223 145.616 222.957 144.518 223.708L134.63 230.486L124.738 237.236C121.914 232.585 119.09 227.934 116.266 223.283L107.797 209.33Z" fill="#FFD1DC" stroke="black" stroke-miterlimit="10" stroke-linecap="round"/>
<path d="M156.569 136.099C155.54 142.246 152.497 147.456 148.388 150.91C144.279 154.364 139.127 156.055 133.862 155.197C128.597 154.34 124.258 151.047 121.497 146.451C118.736 141.855 117.515 135.928 118.544 129.781C119.573 123.634 122.615 118.424 126.724 114.967C130.833 111.509 135.985 109.822 141.25 110.679C146.515 111.537 150.854 114.833 153.615 119.429C156.376 124.025 157.591 129.946 156.569 136.099Z" fill="#D87D61" stroke="black" stroke-miterlimit="10" stroke-linecap="round"/>
<path d="M142.844 131.64C142.792 131.945 142.622 132.217 142.371 132.398C142.214 132.51 142.033 132.581 141.842 132.606C141.652 132.631 141.458 132.608 141.278 132.541C141.098 132.473 140.938 132.362 140.811 132.217C140.685 132.072 140.596 131.899 140.552 131.712C140.508 131.524 140.512 131.329 140.561 131.144C140.611 130.958 140.706 130.787 140.837 130.647C140.968 130.507 141.132 130.401 141.314 130.339C141.496 130.277 141.691 130.261 141.88 130.292C142.032 130.317 142.178 130.372 142.309 130.453C142.439 130.534 142.553 130.641 142.642 130.766C142.732 130.891 142.796 131.033 142.83 131.183C142.865 131.333 142.87 131.488 142.844 131.64Z" fill="#040400"/>
<path d="M128.874 129.699C128.842 129.888 128.763 130.067 128.646 130.219C128.528 130.371 128.375 130.491 128.2 130.57C128.025 130.649 127.833 130.683 127.641 130.67C127.449 130.657 127.264 130.597 127.101 130.496C126.938 130.394 126.803 130.253 126.707 130.087C126.611 129.921 126.558 129.733 126.551 129.541C126.545 129.349 126.586 129.158 126.671 128.986C126.756 128.814 126.882 128.665 127.039 128.553C127.227 128.418 127.451 128.342 127.683 128.334C127.915 128.327 128.143 128.388 128.34 128.511C128.536 128.634 128.692 128.812 128.787 129.024C128.882 129.235 128.912 129.47 128.874 129.699Z" fill="#040400"/>
<path d="M132.101 135.07L131.185 133.897L130.273 132.724C130.261 132.709 130.252 132.692 130.249 132.673C130.246 132.654 130.249 132.635 130.256 132.618C130.263 132.6 130.274 132.584 130.289 132.572C130.305 132.56 130.322 132.552 130.342 132.549L131.714 132.446L133.086 132.34L133.652 128.927L134.221 125.497" stroke="black" stroke-miterlimit="10" stroke-linecap="round"/>
<path d="M137.065 138.678C136.715 139.287 136.203 139.786 135.587 140.122C134.939 140.476 134.212 140.662 133.474 140.664C132.666 140.669 131.872 140.458 131.173 140.054C130.5 139.671 129.954 139.1 129.602 138.411" stroke="black" stroke-miterlimit="10" stroke-linecap="round"/>
<path d="M140.193 124.633L143.486 126.07L146.779 127.51" stroke="black" stroke-miterlimit="10" stroke-linecap="round"/>
<path d="M164.965 193.579C164.965 193.579 163.593 192.413 160.047 192.485C156.5 192.557 150.786 193.857 142.152 198.803" stroke="black" stroke-miterlimit="10" stroke-linecap="round"/>
<path d="M131.261 124.005L127.717 124.862L124.178 125.716" stroke="black" stroke-miterlimit="10" stroke-linecap="round"/>
<path d="M139.078 194.573C139.078 194.573 142.295 192.92 146.511 191.281C150.726 189.641 155.95 188.022 159.96 188.087" stroke="black" stroke-miterlimit="10" stroke-linecap="round"/>
<path d="M147.512 137.907C147.396 138.611 147.039 139.254 146.502 139.725C145.965 140.196 145.281 140.466 144.567 140.49C143.853 140.513 143.153 140.288 142.586 139.853C142.02 139.418 141.621 138.8 141.459 138.104C141.297 137.409 141.382 136.678 141.698 136.038C142.014 135.397 142.543 134.886 143.194 134.592C143.844 134.297 144.577 134.238 145.267 134.423C145.957 134.609 146.561 135.027 146.977 135.608C147.452 136.273 147.645 137.1 147.512 137.907Z" fill="#FF553E" stroke="#070707" stroke-miterlimit="10" stroke-linecap="round"/>
<path d="M128.767 135.132C128.65 135.836 128.293 136.479 127.756 136.949C127.218 137.42 126.535 137.689 125.821 137.712C125.107 137.735 124.407 137.51 123.841 137.075C123.275 136.64 122.877 136.021 122.715 135.326C122.553 134.63 122.638 133.9 122.954 133.26C123.27 132.619 123.799 132.109 124.449 131.814C125.1 131.52 125.833 131.46 126.523 131.645C127.212 131.831 127.816 132.249 128.232 132.83C128.468 133.16 128.637 133.533 128.729 133.928C128.82 134.323 128.834 134.732 128.767 135.132Z" fill="#FF553E" stroke="#070707" stroke-miterlimit="10" stroke-linecap="round"/>
<path d="M120.992 122.266C123.615 122.755 126.297 122.843 128.947 122.526C133.464 122.012 139.062 120.201 143.387 115.028C144.222 117.778 145.321 120.441 146.669 122.979C148.885 127.15 152.26 131.705 156.894 133.252C157.445 133.291 157.987 133.407 158.506 133.595C159.025 133.757 159.505 134.024 159.918 134.377C160.331 134.731 160.667 135.165 160.907 135.653C160.907 135.653 163.518 129.969 162.893 123.305C162.269 116.64 158.41 108.964 145.472 104.999C141.426 103.942 137.179 103.926 133.124 104.951C126.528 106.666 119.099 111.914 115.762 125.943C116.123 125.78 116.503 125.665 116.894 125.6C117.748 125.43 118.633 125.516 119.439 125.847L120.228 124.066L120.992 122.266Z" fill="#040400" stroke="#040400" stroke-miterlimit="10"/>
<path d="M127.409 139.073C127.426 138.99 127.439 138.906 127.446 138.822C127.446 138.737 127.463 138.651 127.467 138.568C127.476 138.332 127.468 138.094 127.443 137.858C127.419 137.622 127.385 137.389 127.347 137.155C127.254 136.555 127.144 135.955 127.021 135.361C126.897 134.768 126.76 134.171 126.609 133.585C126.596 133.535 126.568 133.49 126.53 133.455C126.492 133.419 126.445 133.396 126.394 133.387C126.343 133.377 126.29 133.383 126.242 133.402C126.194 133.421 126.153 133.454 126.122 133.496C125.886 133.839 125.652 134.182 125.436 134.525C125.22 134.868 124.99 135.228 124.778 135.581C124.524 136.003 124.253 136.435 124.023 136.888C123.786 137.329 123.615 137.803 123.515 138.294C123.474 138.531 123.461 138.771 123.478 139.011C123.497 139.247 123.555 139.479 123.649 139.697C123.799 140.019 124.037 140.292 124.335 140.486C124.624 140.687 124.964 140.805 125.315 140.825C125.667 140.846 126.017 140.769 126.328 140.602C126.782 140.375 127.132 139.982 127.306 139.505C127.352 139.364 127.386 139.219 127.409 139.073Z" fill="#D8F2FF" stroke="#070707" stroke-miterlimit="10" stroke-linecap="round"/>
<path d="M137.041 190.979C138.132 190.427 139.295 189.871 140.533 189.322C141.771 188.773 143.078 188.231 144.457 187.713C145.746 187.226 147.002 186.794 148.213 186.414C149.423 186.033 150.593 185.693 151.711 185.385" stroke="black" stroke-miterlimit="10" stroke-linecap="round"/>
<path d="M171.506 207.841L184.883 219.084L198.26 230.328" stroke="black" stroke-miterlimit="10" stroke-linecap="round"/>
<path d="M222.857 113.972C223.2 121.312 221.063 128.086 217.304 133.101C213.545 138.116 208.177 141.371 202.088 141.676C196 141.981 190.344 139.299 186.115 134.693C181.886 130.086 179.104 123.566 178.751 116.225C178.397 108.885 180.548 102.114 184.304 97.0997C188.06 92.0851 193.431 88.8266 199.519 88.5247C205.607 88.2229 211.264 90.9052 215.486 95.5117C219.708 100.118 222.504 106.632 222.857 113.972Z" fill="#D87D61" stroke="black" stroke-miterlimit="10" stroke-linecap="round"/>
<path d="M202.578 112.7C202.597 112.974 202.534 113.247 202.395 113.484C202.257 113.722 202.051 113.912 201.804 114.031C201.556 114.15 201.279 114.192 201.007 114.152C200.735 114.111 200.482 113.99 200.28 113.804C200.01 113.557 199.847 113.213 199.827 112.847C199.809 112.572 199.874 112.298 200.014 112.061C200.153 111.823 200.361 111.633 200.61 111.516C200.859 111.398 201.138 111.358 201.41 111.401C201.682 111.444 201.935 111.568 202.136 111.756C202.401 112 202.56 112.339 202.578 112.7Z" fill="#040400"/>
<path d="M187.957 115.828C187.977 116.192 187.854 116.551 187.614 116.826C187.492 116.961 187.345 117.071 187.18 117.149C187.016 117.227 186.838 117.272 186.656 117.282C186.475 117.291 186.293 117.264 186.121 117.204C185.95 117.143 185.792 117.049 185.657 116.927C185.522 116.805 185.412 116.658 185.334 116.493C185.256 116.329 185.21 116.151 185.201 115.969C185.192 115.788 185.218 115.606 185.279 115.434C185.34 115.263 185.434 115.105 185.556 114.97C185.803 114.7 186.147 114.537 186.513 114.517C186.694 114.507 186.876 114.533 187.047 114.594C187.218 114.654 187.376 114.748 187.51 114.87C187.645 114.992 187.754 115.139 187.831 115.304C187.908 115.468 187.952 115.646 187.96 115.828H187.957Z" fill="#040400"/>
<path d="M193.722 120.664L192.182 119.82L190.641 118.949C190.622 118.938 190.606 118.922 190.595 118.903C190.583 118.883 190.577 118.862 190.576 118.839C190.575 118.816 190.58 118.794 190.591 118.774C190.602 118.754 190.618 118.737 190.638 118.726L192.082 117.968L193.526 117.21L192.545 113.245L191.564 109.283" stroke="black" stroke-miterlimit="10" stroke-linecap="round"/>
<path d="M200.571 123.096C200.407 123.907 200.021 124.658 199.456 125.263C198.863 125.902 198.12 126.382 197.295 126.659C196.392 126.966 195.423 127.026 194.489 126.834C193.593 126.658 192.769 126.221 192.119 125.579" stroke="black" stroke-miterlimit="10" stroke-linecap="round"/>
<path d="M197.982 105.363L202.164 104.673L206.345 103.984" stroke="black" stroke-miterlimit="10" stroke-linecap="round"/>
<path d="M188.859 106.965L184.784 108.337L180.709 109.709" stroke="black" stroke-miterlimit="10" stroke-linecap="round"/>
<path d="M222.543 120.184C222.65 119.498 222.739 118.75 222.804 117.961C222.869 117.172 222.903 116.342 222.9 115.467C222.898 113.948 222.783 112.432 222.557 110.93C222.372 109.69 222.114 108.462 221.785 107.253C222.498 107.072 223.231 106.986 223.967 106.999C224.968 106.998 225.947 107.294 226.779 107.849C228.333 108.944 229.074 111.022 229.04 113.152C229.005 115.282 228.199 117.467 226.639 118.774C225.992 119.311 225.236 119.701 224.423 119.916C223.81 120.083 223.178 120.173 222.543 120.184Z" fill="#D87D61" stroke="black" stroke-miterlimit="10" stroke-linecap="round"/>
<path d="M209.98 118.829C210.021 119.669 209.769 120.497 209.268 121.172C208.767 121.848 208.047 122.328 207.231 122.533C206.415 122.737 205.554 122.652 204.793 122.292C204.033 121.932 203.421 121.32 203.062 120.559C202.702 119.799 202.618 118.938 202.822 118.122C203.026 117.306 203.507 116.586 204.183 116.085C204.858 115.584 205.687 115.333 206.527 115.374C207.367 115.415 208.167 115.746 208.79 116.311C209.145 116.632 209.432 117.019 209.637 117.451C209.841 117.883 209.958 118.351 209.98 118.829Z" fill="#FF553E" stroke="#070707" stroke-miterlimit="10" stroke-linecap="round"/>
<path d="M189.516 123.693C189.558 124.534 189.306 125.363 188.804 126.039C188.303 126.715 187.582 127.197 186.765 127.401C185.948 127.606 185.086 127.521 184.325 127.161C183.564 126.8 182.951 126.188 182.591 125.426C182.231 124.665 182.147 123.803 182.351 122.986C182.556 122.169 183.038 121.449 183.714 120.947C184.391 120.446 185.22 120.195 186.061 120.236C186.902 120.278 187.702 120.609 188.326 121.175C188.681 121.495 188.969 121.883 189.173 122.315C189.377 122.747 189.494 123.215 189.516 123.693Z" fill="#FF553E" stroke="#070707" stroke-miterlimit="10" stroke-linecap="round"/>
<path d="M181.157 127.181C180.917 126.57 180.68 125.926 180.471 125.25C180.262 124.574 180.032 123.878 179.833 123.127C179.404 121.538 179.076 119.924 178.852 118.294C178.664 116.901 178.549 115.5 178.509 114.096C177.88 114.032 177.246 114.052 176.622 114.154C175.813 114.284 175.053 114.624 174.417 115.142C173.011 116.318 172.702 118.424 173.144 120.544C173.587 122.664 174.781 124.804 176.376 126.032C177.177 126.639 178.122 127.027 179.12 127.157C179.795 127.254 180.48 127.262 181.157 127.181Z" fill="#D87D61" stroke="black" stroke-miterlimit="10" stroke-linecap="round"/>
<path d="M189.787 96.2699C189.782 98.372 189.048 100.407 187.71 102.029C186.372 103.65 184.514 104.758 182.451 105.163C180.388 105.568 178.249 105.245 176.398 104.249C174.546 103.253 173.097 101.646 172.298 99.7022C171.499 97.758 171.398 95.5968 172.013 93.5868C172.629 91.5767 173.922 89.8423 175.673 88.6789C177.424 87.5156 179.524 86.9953 181.615 87.2068C183.707 87.4182 185.66 88.3484 187.143 89.8386C187.985 90.6838 188.652 91.687 189.106 92.7906C189.56 93.8942 189.792 95.0766 189.787 96.2699Z" fill="#040400" stroke="#040400" stroke-miterlimit="10"/>
<path d="M206.237 90.1062C206.237 93.0733 205.208 95.9485 203.326 98.2419C201.443 100.535 198.824 102.105 195.914 102.684C193.004 103.262 189.983 102.814 187.366 101.415C184.75 100.017 182.699 97.7537 181.564 95.0124C180.429 92.2712 180.279 89.221 181.14 86.3818C182.002 83.5425 183.821 81.0898 186.288 79.4415C188.755 77.7932 191.718 77.0514 194.67 77.3424C197.623 77.6333 200.384 78.9391 202.482 81.0373C203.675 82.2266 204.621 83.6401 205.265 85.1965C205.91 86.753 206.24 88.4216 206.237 90.1062Z" fill="#040400" stroke="#040400" stroke-miterlimit="10"/>
<path d="M226.86 90.1062C226.864 93.0739 225.839 95.9512 223.959 98.2479C222.08 100.545 219.462 102.119 216.552 102.702C213.643 103.285 210.621 102.841 208.001 101.446C205.382 100.051 203.327 97.7914 202.187 95.0514C201.047 92.3114 200.893 89.2609 201.75 86.4197C202.606 83.5784 204.422 81.1221 206.887 79.4693C209.352 77.8165 212.313 77.0694 215.267 77.3553C218.221 77.6412 220.984 78.9424 223.087 81.0373C224.283 82.2253 225.232 83.6382 225.879 85.1947C226.527 86.7512 226.86 88.4204 226.86 90.1062Z" fill="#040400" stroke="#040400" stroke-miterlimit="10"/>
<path d="M99.3631 74.2731C97.9225 80.9101 98.9138 87.4203 101.685 92.579C104.457 97.7377 109.008 101.545 114.682 102.776C120.355 104.008 126.073 102.433 130.734 98.8902C135.395 95.347 139.004 89.8384 140.444 83.2014C141.885 76.5643 140.897 70.0508 138.122 64.892C135.347 59.7333 130.803 55.926 125.129 54.6947C119.456 53.4633 113.738 55.0377 109.077 58.5808C104.416 62.124 100.807 67.6326 99.3631 74.2731Z" fill="#FFD1DC" stroke="black" stroke-miterlimit="10" stroke-linecap="round"/>
<path d="M212.404 101.295C212.627 103.436 213.193 105.528 214.082 107.489C215.495 110.436 218.057 113.094 222.657 111.917C222.657 111.917 222.571 111.173 222.42 110.22C222.27 109.218 222.058 108.227 221.785 107.253C221.785 107.253 222.128 107.174 222.633 107.109C223.277 107.023 223.929 107.001 224.577 107.043C224.813 105.966 224.969 104.872 225.044 103.771C225.249 101.152 225.092 98.5169 224.577 95.9404L218.493 98.6158L212.404 101.295Z" fill="#040400" stroke="#040400" stroke-miterlimit="10"/>
<path d="M231.39 207.841L226.986 225.92L222.586 244C217.498 242.704 212.556 240.892 207.837 238.591C204.441 236.927 201.182 234.999 198.089 232.825C195.983 231.354 193.989 229.731 192.12 227.968C189.212 225.227 186.655 222.134 184.509 218.762C183.604 217.277 182.817 215.725 182.153 214.118C181.09 211.521 180.263 208.373 181.199 206.177C181.302 205.918 181.435 205.672 181.594 205.443C181.826 205.1 182.144 204.823 182.516 204.641C183.141 204.38 183.838 204.35 184.482 204.558C185 204.699 185.489 204.931 185.926 205.244C187.011 206.096 187.975 207.092 188.79 208.204C189.63 209.309 190.385 210.489 191.122 211.614C191.678 212.518 192.338 213.354 193.088 214.104C193.914 214.872 194.878 215.363 195.876 214.934C196.065 214.849 196.231 214.719 196.36 214.557C196.492 214.394 196.595 214.209 196.665 214.011C197.351 212.056 196.665 209.398 195.797 207.227C195.262 205.896 194.623 204.61 193.887 203.378C192.646 201.494 191.247 199.717 189.706 198.069C187.936 196.114 185.703 193.84 182.739 190.831C181.619 189.76 180.579 188.606 179.628 187.381C178.829 186.256 178.394 185.179 178.73 184.205C178.886 183.776 179.159 183.399 179.519 183.117C179.847 182.853 180.211 182.635 180.599 182.469C179.844 181.791 179.357 180.865 179.227 179.859C179.165 179.455 179.192 179.042 179.305 178.649C179.419 178.256 179.617 177.893 179.886 177.585C180.355 177.13 180.975 176.866 181.628 176.844C181.999 176.816 182.373 176.835 182.739 176.902C182.368 176.164 182.207 175.338 182.273 174.515C182.295 173.913 182.518 173.336 182.906 172.876C183.293 172.415 183.824 172.098 184.413 171.973C184.709 171.901 185.011 171.861 185.315 171.853C185.604 171.848 185.892 171.885 186.169 171.963C186.544 172.075 186.911 172.209 187.27 172.364C187.682 172.536 188.162 172.742 188.697 172.989C189.232 173.236 189.822 173.527 190.46 173.863C190.69 173.627 190.934 173.342 191.191 173.068C191.431 172.8 191.702 172.56 191.997 172.354C193.245 171.545 194.813 171.888 196.305 172.608C197.667 173.336 198.963 174.181 200.177 175.136C202.017 176.472 203.738 177.964 205.322 179.595C206.244 180.538 207.114 181.529 207.929 182.565C212.618 188.523 215.297 192.169 217.324 194.79C218.979 197.033 220.815 199.138 222.812 201.084C223.759 202 224.939 203.073 226.369 204.229C227.975 205.525 229.651 206.73 231.39 207.841Z" fill="#FFD1DC" stroke="black" stroke-miterlimit="10" stroke-linecap="round"/>
<path d="M180.598 182.473C181.97 183.364 183.403 184.366 184.892 185.498C186.381 186.63 187.91 187.899 189.464 189.271C191.467 191.073 193.369 192.984 195.161 194.996C196.822 196.865 198.248 198.666 199.476 200.336" stroke="black" stroke-miterlimit="10" stroke-linecap="round"/>
<path d="M182.736 176.916C184.276 177.866 185.926 178.974 187.645 180.243C189.363 181.512 191.154 182.967 192.961 184.603C195.052 186.493 197.026 188.508 198.874 190.636C200.589 192.598 202.016 194.481 203.231 196.199" stroke="black" stroke-miterlimit="10" stroke-linecap="round"/>
<path d="M190.459 173.874C192.092 175.163 193.817 176.618 195.604 178.281C197.391 179.945 199.199 181.776 201.017 183.821C202.272 185.23 203.418 186.623 204.484 187.981C205.551 189.339 206.508 190.667 207.389 191.946" stroke="black" stroke-miterlimit="10" stroke-linecap="round"/>
<path d="M271.335 219.084L251.362 213.463L231.393 207.841" stroke="black" stroke-miterlimit="10" stroke-linecap="round"/>
<path d="M98.7077 79.9842C98.7077 79.3359 98.7454 78.6465 98.8072 77.9262C98.8689 77.2059 98.9615 76.4342 99.0953 75.6384C99.3261 74.2538 99.6598 72.8883 100.093 71.5533C100.451 70.4496 100.875 69.3684 101.363 68.3153C100.739 68.0433 100.083 67.8542 99.4109 67.7528C98.4992 67.599 97.5623 67.7183 96.7183 68.0958C95.1336 68.8573 94.1458 70.6409 93.8542 72.5891C93.5627 74.5374 93.9674 76.6502 95.1782 78.0771C95.6884 78.6624 96.319 79.1304 97.027 79.4491C97.5639 79.6938 98.1281 79.8735 98.7077 79.9842Z" fill="#FFD1DC" stroke="black" stroke-miterlimit="10" stroke-linecap="round"/>
<path d="M245.486 188.516L248.536 200.885L251.585 213.25" stroke="black" stroke-miterlimit="10" stroke-linecap="round"/>
<path d="M102.493 66.1749C104.474 67.3239 106.689 68.011 108.973 68.1848C112.831 68.5038 117.932 67.4405 122.892 61.8977C123.259 64.1944 124.081 66.3947 125.309 68.3701C126.537 70.3454 128.146 72.056 130.043 73.4019C133.566 75.8715 137.822 76.8319 141.616 75.8234C144.456 75.0688 146.987 73.2304 148.867 70.699C150.844 67.9854 151.995 64.7591 152.184 61.4072C152.153 57.7205 150.951 54.1391 148.754 51.1789C146.739 48.4318 143.817 46.4874 140.505 45.6909C137.516 45.0645 134.404 45.4256 131.638 46.7199C130.131 47.3877 128.725 48.2628 127.46 49.3198C125.464 48.2065 123.313 47.3972 121.077 46.9188C117.51 46.1437 112.845 45.9996 108.081 48.3114C104.478 50.0735 101.49 52.88 99.5059 56.3651C97.4728 59.9252 96.506 63.9947 96.7208 68.0888C96.9668 67.9864 97.2202 67.9027 97.4788 67.8384C98.3856 67.606 99.3373 67.6143 100.24 67.8624C100.629 67.969 101.006 68.115 101.365 68.298C101.436 68.1402 101.511 67.979 101.591 67.8144C101.67 67.6532 101.756 67.4714 101.845 67.317C101.934 67.1627 102.061 66.9123 102.168 66.7202C102.274 66.5282 102.384 66.3498 102.493 66.1749Z" fill="#ECE7E1" stroke="black" stroke-miterlimit="10" stroke-linecap="round"/>
<path d="M136.533 92.8124C136.852 92.291 137.171 91.7422 137.483 91.1591C137.795 90.576 138.104 89.9655 138.403 89.324C139.046 87.9442 139.599 86.5234 140.056 85.0709C140.444 83.8315 140.764 82.5719 141.016 81.2979C141.616 81.3344 142.209 81.4497 142.779 81.6409C143.517 81.8822 144.18 82.3099 144.703 82.8825C145.846 84.1756 145.815 86.1444 145.077 88.0104C144.34 89.8763 142.896 91.6427 141.212 92.538C140.363 92.9676 139.418 93.1741 138.468 93.1382C137.812 93.1108 137.162 93.0014 136.533 92.8124Z" fill="#F2B3C1" stroke="black" stroke-miterlimit="10" stroke-linecap="round"/>
<path d="M250.074 143.247C250.29 142.417 250.417 141.532 250.568 140.681C250.675 139.903 250.845 139.135 251.075 138.383C251.497 137.166 251.988 135.681 252.742 134.48C253.497 133.28 254.512 132.371 255.98 132.305C255.98 132.305 256.601 132.281 257.153 133.153C257.706 134.024 258.182 135.794 257.905 139.388C257.717 141.764 257.267 144.112 256.563 146.389C255.858 148.669 254.911 150.867 253.74 152.947L250.691 158.394L247.639 163.834C247.323 164.398 247.078 165 246.911 165.624C246.745 166.25 246.669 166.895 246.685 167.542C246.663 168.437 246.951 169.312 247.501 170.018C248.091 170.704 249.076 171.109 250.664 170.965C249.967 171.926 249.38 172.961 248.911 174.052C248.225 175.726 247.882 177.667 249.35 178.727C249.965 179.214 250.738 179.459 251.521 179.413C252.838 179.331 254.608 178.405 256.436 175.026C256.436 175.026 257.328 176.741 258.858 177.355C260.388 177.969 262.545 177.451 265.084 172.982C265.413 173.45 265.874 173.811 266.408 174.018C266.942 174.226 267.525 174.271 268.085 174.148C270.023 173.706 272.839 171.205 276.348 162.98C276.837 161.837 277.34 160.693 277.857 159.55C278.374 158.407 278.897 157.274 279.428 156.151C281.143 152.515 283.633 146.094 284.003 139.162C284.374 132.23 282.611 124.787 275.771 119.103C274.28 117.855 272.604 116.847 270.801 116.116C269.004 115.388 267.093 114.98 265.156 114.912C262.058 114.801 258.997 115.609 256.358 117.234C253.271 119.121 250.184 122.379 247.518 127.785C246.519 129.856 245.663 131.993 244.956 134.182C243.818 137.732 242.963 141.992 244.102 144.815C244.369 145.484 244.867 146.035 245.505 146.368C245.818 146.535 246.162 146.637 246.515 146.669C246.869 146.701 247.225 146.662 247.563 146.554L247.673 146.516L247.783 146.475C248.402 146.217 248.925 145.772 249.278 145.202C249.643 144.596 249.912 143.936 250.074 143.247Z" fill="#FFD1DC" stroke="black" stroke-miterlimit="10" stroke-linecap="round"/>
<path d="M262.155 149.068C261.19 151.38 260.115 153.766 258.93 156.226C257.74 158.682 256.43 161.203 254.989 163.772C254.276 165.046 253.558 166.282 252.835 167.48C252.112 168.677 251.388 169.843 250.664 170.968" stroke="black" stroke-miterlimit="10" stroke-linecap="round"/>
<path d="M268.027 152.079C268.027 152.079 266.027 156.507 263.568 161.587C261.108 166.667 258.23 172.409 256.43 175.026" stroke="black" stroke-miterlimit="10" stroke-linecap="round"/>
<path d="M273.54 154.899L269.311 163.94L265.082 172.982" stroke="black" stroke-miterlimit="10" stroke-linecap="round"/>
<path d="M190.618 57.504C190.961 64.2886 188.903 70.538 185.333 75.1822C181.762 79.8265 176.641 82.8277 170.844 83.1158C165.047 83.404 159.659 80.9138 155.642 76.6537C151.626 72.3937 148.968 66.3637 148.632 59.586C148.295 52.8084 150.347 46.552 153.917 41.9044C157.488 37.2567 162.609 34.2589 168.405 33.9708C174.202 33.6827 179.587 36.1729 183.607 40.4329C187.627 44.693 190.282 50.7161 190.618 57.504Z" fill="#FFD1DC" stroke="black" stroke-miterlimit="10" stroke-linecap="round"/>
<path d="M171.884 58.4814C171.897 58.7753 171.809 59.0648 171.633 59.3008C171.458 59.5368 171.206 59.7047 170.92 59.7758C170.635 59.847 170.333 59.8171 170.068 59.6911C169.802 59.5652 169.588 59.351 169.462 59.0851C169.336 58.8191 169.306 58.5178 169.378 58.2324C169.449 57.947 169.617 57.6952 169.853 57.5197C170.089 57.3442 170.379 57.256 170.673 57.27C170.967 57.284 171.247 57.3994 171.465 57.5965C171.59 57.7092 171.691 57.8454 171.763 57.9972C171.834 58.1491 171.875 58.3136 171.884 58.4814Z" fill="#040400"/>
<path d="M158.214 62.7347C158.22 62.903 158.193 63.0709 158.134 63.2287C158.076 63.3864 157.986 63.531 157.871 63.654C157.73 63.8097 157.553 63.9284 157.356 63.9993C157.158 64.0703 156.946 64.0914 156.738 64.0607C156.531 64.0301 156.334 63.9487 156.165 63.8238C155.996 63.6988 155.861 63.5342 155.771 63.3444C155.681 63.1547 155.64 62.9457 155.65 62.736C155.66 62.5263 155.722 62.3224 155.83 62.1423C155.938 61.9623 156.089 61.8116 156.269 61.7038C156.449 61.5959 156.653 61.5341 156.863 61.524C157.03 61.5152 157.198 61.5396 157.356 61.5958C157.513 61.6519 157.659 61.7388 157.783 61.8513C157.907 61.9638 158.008 62.0998 158.08 62.2514C158.151 62.403 158.192 62.5673 158.2 62.7347H158.214Z" fill="#040400"/>
<path d="M164.573 66.1269L163.149 65.3483L161.729 64.5697C161.711 64.5594 161.695 64.5446 161.684 64.5266C161.672 64.5086 161.665 64.488 161.664 64.4668C161.664 64.4461 161.67 64.4259 161.68 64.4079C161.69 64.3899 161.705 64.3748 161.722 64.3639L163.057 63.6779L164.394 62.9919L163.475 59.2909L162.57 55.6277" stroke="black" stroke-miterlimit="10" stroke-linecap="round"/>
<path d="M171.407 67.0806C171.327 67.8426 171.036 68.5673 170.567 69.1729C170.076 69.8116 169.433 70.3174 168.697 70.6443C167.893 71.0036 167.007 71.1421 166.132 71.0456C165.292 70.9588 164.496 70.6272 163.844 70.0921" stroke="black" stroke-miterlimit="10" stroke-linecap="round"/>
<path d="M166.717 53.7481L170.606 53.2851L174.496 52.8152" stroke="black" stroke-miterlimit="10" stroke-linecap="round"/>
<path d="M159.229 55.6895L155.665 57.4422L152.098 59.1949" stroke="black" stroke-miterlimit="10" stroke-linecap="round"/>
<path d="M190.329 63.2457C190.429 62.6043 190.511 61.9183 190.569 61.1877C190.628 60.4571 190.662 59.6888 190.662 58.8793C190.661 56.3144 190.315 53.7612 189.633 51.2887C190.292 51.1204 190.97 51.0408 191.65 51.0521C192.575 51.0516 193.48 51.3262 194.25 51.841C195.687 52.8494 196.373 54.7702 196.342 56.739C196.311 58.7078 195.563 60.7281 194.133 61.9355C193.532 62.4338 192.83 62.7955 192.075 62.9953C191.505 63.1495 190.919 63.2336 190.329 63.2457Z" fill="#FFD1DC" stroke="black" stroke-miterlimit="10" stroke-linecap="round"/>
<path d="M180.458 62.3299C180.497 63.1076 180.265 63.8746 179.801 64.5002C179.338 65.1259 178.672 65.5715 177.917 65.7612C177.162 65.9508 176.364 65.8727 175.66 65.5401C174.956 65.2076 174.389 64.6412 174.056 63.9375C173.723 63.2338 173.644 62.4363 173.833 61.681C174.022 60.9257 174.467 60.2593 175.092 59.7954C175.718 59.3315 176.484 59.0987 177.262 59.1368C178.04 59.175 178.78 59.4816 179.357 60.0044C179.685 60.3003 179.951 60.6581 180.14 61.0572C180.329 61.4563 180.437 61.8889 180.458 62.3299Z" fill="#FF553E" stroke="#070707" stroke-miterlimit="10" stroke-linecap="round"/>
<path d="M160.3 69.4335C160.339 70.2111 160.106 70.9781 159.643 71.6038C159.18 72.2294 158.514 72.6751 157.759 72.8647C157.003 73.0543 156.206 72.9762 155.502 72.6436C154.798 72.3111 154.231 71.7447 153.898 71.041C153.565 70.3373 153.486 69.5399 153.675 68.7846C153.864 68.0293 154.309 67.3629 154.934 66.8989C155.559 66.435 156.326 66.2023 157.104 66.2404C157.881 66.2785 158.622 66.5851 159.199 67.1079C159.527 67.4038 159.793 67.7616 159.982 68.1607C160.17 68.5598 160.279 68.9924 160.3 69.4335Z" fill="#FF553E" stroke="#070707" stroke-miterlimit="10" stroke-linecap="round"/>
<path d="M150.912 69.7078C150.683 69.143 150.462 68.5484 150.247 67.9242C150.034 67.2999 149.828 66.6448 149.64 65.9622C148.89 63.2394 148.468 60.4366 148.384 57.6136C147.786 57.5542 147.183 57.5727 146.59 57.6685C145.822 57.7853 145.098 58.0997 144.488 58.5809C143.147 59.6648 142.855 61.613 143.277 63.575C143.699 65.5369 144.834 67.5126 146.364 68.6548C147.134 69.2138 148.033 69.5679 148.978 69.6838C149.619 69.772 150.269 69.7801 150.912 69.7078Z" fill="#FFD1DC" stroke="black" stroke-miterlimit="10" stroke-linecap="round"/>
<path d="M148.383 57.6136C148.383 57.6136 151.762 57.4318 155.857 55.144C159.953 52.8562 164.775 48.4624 167.629 40.0349C168.973 42.7241 170.781 45.1554 172.969 47.2173C176.547 50.5478 181.942 53.3639 189.21 51.299C189.361 51.2578 189.523 51.2201 189.694 51.1892C189.866 51.1584 190.037 51.1275 190.239 51.1035C190.505 51.0721 190.772 51.0549 191.039 51.052C191.286 51.052 191.515 51.052 191.725 51.0726C191.861 48.5791 191.666 46.0786 191.145 43.6364C190.384 40.0966 188.744 35.9566 185.256 32.5883C180.797 28.2631 174.537 26.3286 168.322 26.6476C162.107 26.9666 155.915 29.5391 151.556 34.2279C147.275 38.8344 145.866 44.391 145.564 48.9529C145.364 51.8823 145.583 54.8252 146.215 57.6925C146.348 57.6566 146.482 57.6279 146.617 57.6068C146.771 57.5791 146.927 57.5596 147.083 57.5485C147.321 57.5315 147.559 57.5315 147.797 57.5485C147.993 57.559 148.189 57.5808 148.383 57.6136Z" fill="#040400" stroke="#040400" stroke-miterlimit="10"/>
<path d="M189.654 15.236C189.654 18.6308 188.477 21.9206 186.323 24.5448C184.169 27.1691 181.172 28.9654 177.843 29.6277C174.513 30.2899 171.057 29.7773 168.063 28.177C165.069 26.5767 162.723 23.9878 161.424 20.8514C160.124 17.715 159.953 14.2252 160.938 10.9766C161.924 7.72795 164.005 4.92152 166.828 3.03547C169.651 1.14941 173.04 0.300433 176.418 0.633179C179.797 0.965924 182.955 2.45981 185.356 4.86029C186.721 6.22127 187.803 7.83857 188.54 9.61921C189.278 11.3998 189.656 13.3087 189.654 15.236Z" fill="#040400" stroke="#040400" stroke-miterlimit="10"/>
<path d="M114.149 78.3035C114.079 78.6345 114.142 78.9799 114.325 79.2645C114.508 79.5491 114.796 79.7499 115.127 79.823C115.374 79.877 115.632 79.8565 115.868 79.7639C116.103 79.6713 116.306 79.5109 116.451 79.303C116.595 79.095 116.675 78.8489 116.679 78.5958C116.684 78.3426 116.613 78.0938 116.476 77.8809C116.339 77.668 116.142 77.5004 115.909 77.3996C115.677 77.2987 115.42 77.269 115.171 77.3143C114.922 77.3596 114.692 77.4777 114.51 77.6538C114.328 77.8299 114.203 78.056 114.149 78.3035Z" fill="#040400"/>
<path d="M129.724 82.7213C129.653 83.052 129.716 83.3974 129.899 83.6817C130.082 83.966 130.371 84.1658 130.702 84.2374C130.865 84.2736 131.034 84.2772 131.199 84.2478C131.364 84.2184 131.522 84.1566 131.662 84.0661C131.803 83.9755 131.925 83.858 132.02 83.7202C132.116 83.5824 132.183 83.4271 132.218 83.2632C132.255 83.0989 132.259 82.9288 132.23 82.7628C132.201 82.5968 132.14 82.4381 132.049 82.296C131.959 82.1538 131.841 82.031 131.703 81.9346C131.565 81.8383 131.409 81.7702 131.244 81.7344C131.079 81.6986 130.909 81.6958 130.744 81.7261C130.578 81.7565 130.42 81.8193 130.278 81.9111C130.137 82.0028 130.015 82.1217 129.92 82.2607C129.825 82.3998 129.758 82.5563 129.724 82.7213Z" fill="#040400"/>
<path d="M122.416 85.2079L123.863 84.4773L125.314 83.7502C125.333 83.7404 125.348 83.7262 125.36 83.7088C125.371 83.6914 125.378 83.6714 125.38 83.6507C125.381 83.6291 125.377 83.6074 125.368 83.588C125.358 83.5686 125.343 83.5523 125.325 83.5409L124.032 82.7966L122.721 82.0523L123.75 78.42L124.779 74.791" stroke="black" stroke-miterlimit="10" stroke-linecap="round"/>
<path d="M115.295 89.1079C115.473 89.8531 115.855 90.5337 116.399 91.0733C116.973 91.6451 117.68 92.0637 118.457 92.2909C119.302 92.5426 120.198 92.5663 121.054 92.3596C121.875 92.1638 122.621 91.7336 123.201 91.1213" stroke="black" stroke-miterlimit="10" stroke-linecap="round"/>
<path d="M120.6 70.4315L116.683 70.2394L112.77 70.0474" stroke="black" stroke-miterlimit="10" stroke-linecap="round"/>
<path d="M130.83 74.3899L134.404 76.1289L137.975 77.8679" stroke="black" stroke-miterlimit="10" stroke-linecap="round"/>
<path d="M107.124 83.5548C106.958 84.3164 107.062 85.1118 107.417 85.8056C107.772 86.4993 108.357 87.0484 109.072 87.3593C109.786 87.6702 110.587 87.7236 111.336 87.5105C112.086 87.2973 112.739 86.8308 113.183 86.1904C113.627 85.55 113.835 84.7754 113.772 83.9986C113.709 83.2218 113.379 82.4908 112.838 81.9303C112.296 81.3698 111.577 81.0144 110.803 80.9247C110.029 80.835 109.247 81.0166 108.592 81.4385C107.841 81.9216 107.313 82.6827 107.124 83.5548Z" fill="#FF553E" stroke="#070707" stroke-miterlimit="10" stroke-linecap="round"/>
<path d="M127.076 89.3549C126.912 90.1148 127.016 90.9083 127.37 91.6002C127.725 92.2921 128.309 92.8396 129.022 93.1494C129.735 93.4593 130.534 93.5123 131.281 93.2995C132.029 93.0867 132.68 92.6213 133.123 91.9824C133.567 91.3435 133.775 90.5707 133.712 89.7957C133.649 89.0207 133.32 88.2914 132.78 87.732C132.24 87.1725 131.523 86.8176 130.75 86.7277C129.978 86.6377 129.198 86.8183 128.544 87.2386C128.172 87.4774 127.851 87.7873 127.599 88.1504C127.347 88.5136 127.17 88.9229 127.076 89.3549Z" fill="#FF553E" stroke="#070707" stroke-miterlimit="10" stroke-linecap="round"/>
<path d="M135.25 79.8196L133.24 79.2537L131.233 78.6877C130.665 78.5282 130.07 78.4816 129.484 78.5505C128.896 78.6197 128.329 78.8051 127.814 79.0959C127.448 79.2991 127.113 79.5532 126.819 79.8505C126.532 80.1463 126.286 80.4798 126.088 80.8417L124.03 80.2072L121.972 79.5761C122.082 78.521 121.816 77.461 121.221 76.5826C120.627 75.7043 119.741 75.0638 118.721 74.7741L116.141 74.0435L113.569 73.3163C112.429 73.0215 111.218 73.1849 110.197 73.7716C109.176 74.3583 108.426 75.3216 108.106 76.4551C107.787 77.5886 107.924 78.8021 108.489 79.8355C109.053 80.869 110 81.6402 111.127 81.9839L113.699 82.7111L116.268 83.4348C116.452 83.4863 116.639 83.5264 116.827 83.5549C117.408 83.6414 118 83.6135 118.57 83.4726C118.962 83.3755 119.339 83.2267 119.691 83.0301C120.093 82.8052 120.458 82.5194 120.772 82.1829C121.083 81.8502 121.342 81.472 121.54 81.0613L123.557 81.6821L125.57 82.2995C125.486 82.7967 125.486 83.3046 125.57 83.8018C125.659 84.3012 125.831 84.7823 126.078 85.2253C126.368 85.7405 126.756 86.1939 127.22 86.5596C127.683 86.9268 128.215 87.1974 128.784 87.3553L130.794 87.9213L132.804 88.4872C132.986 88.5403 133.172 88.5804 133.36 88.6073C133.543 88.635 133.727 88.6511 133.912 88.6553C135.008 88.6815 136.076 88.307 136.916 87.6019C137.756 86.8968 138.309 85.9096 138.473 84.8254C138.637 83.7413 138.399 82.6346 137.805 81.713C137.211 80.7914 136.301 80.1182 135.246 79.8196H135.25ZM118.933 81.6821C118.593 81.8656 118.22 81.9821 117.836 82.0251C117.449 82.0695 117.058 82.038 116.683 81.9325L114.114 81.219L111.542 80.4953C110.787 80.2825 110.147 79.7784 109.764 79.0939C109.38 78.4095 109.284 77.6008 109.497 76.8458C109.71 76.0908 110.214 75.4512 110.899 75.0678C111.583 74.6844 112.392 74.5887 113.147 74.8015L115.719 75.5252L118.288 76.249C118.663 76.3532 119.014 76.5303 119.321 76.7702C119.627 77.0101 119.883 77.308 120.074 77.647C120.265 77.986 120.388 78.3593 120.434 78.7456C120.481 79.132 120.451 79.5237 120.346 79.8985C120.242 80.2731 120.064 80.623 119.822 80.9275C119.579 81.2357 119.277 81.4923 118.933 81.6821ZM136.876 84.9577C136.664 85.7145 136.161 86.3564 135.477 86.7423C134.793 87.1282 133.983 87.2265 133.226 87.0157L131.233 86.4361L129.223 85.8701C128.849 85.7663 128.499 85.589 128.194 85.3488C127.889 85.1086 127.635 84.8101 127.447 84.4707C127.254 84.1325 127.132 83.7593 127.086 83.3731C127.042 82.9866 127.073 82.5951 127.179 82.2206C127.283 81.8463 127.46 81.4965 127.7 81.1916C127.943 80.8865 128.242 80.6314 128.582 80.4404C129.266 80.0576 130.074 79.9615 130.829 80.1729L132.838 80.7388L134.848 81.3048C135.224 81.4094 135.574 81.5869 135.881 81.8271C136.187 82.0673 136.443 82.3656 136.634 82.7048C136.826 83.044 136.948 83.4176 136.995 83.8042C137.041 84.1908 137.011 84.5828 136.906 84.9577H136.876Z" fill="#84A1E5" stroke="#070707" stroke-miterlimit="10" stroke-linecap="round"/>
<path d="M82.2771 205.083C81.9467 204.683 81.5702 204.324 81.1555 204.013C80.5432 203.539 79.8441 203.189 79.0975 202.984C77.7147 202.645 76.2564 202.806 74.9815 203.44C74.1703 203.825 73.423 204.331 72.7657 204.943L72.5907 205.107L72.4124 205.272L63.906 212.931L55.3893 220.597L55.0875 220.854L54.7822 221.108C54.1402 221.651 53.6134 222.317 53.2328 223.067C52.8523 223.817 52.6257 224.636 52.5664 225.474C52.4902 226.291 52.5859 227.115 52.8474 227.892C53.1088 228.669 53.5302 229.383 54.0844 229.988C54.6386 230.592 55.3132 231.074 56.065 231.402C56.8167 231.73 57.6287 231.897 58.4489 231.892C59.2906 231.91 60.1273 231.758 60.9096 231.447C61.6919 231.136 62.404 230.672 63.0039 230.081L63.2852 229.796L63.5698 229.518L71.9836 221.784L80.394 214.046C81.1091 213.373 81.7319 212.608 82.2462 211.772C83.0351 210.479 83.6799 208.764 83.21 206.97C83.1306 206.673 83.025 206.384 82.8945 206.105C82.7259 205.743 82.5189 205.401 82.2771 205.083Z" fill="#ECE7E1" stroke="black" stroke-miterlimit="10" stroke-linecap="round"/>
<path d="M118.238 136.915C118.187 136.456 118.146 135.982 118.118 135.488C118.091 134.995 118.077 134.483 118.08 133.955C118.086 132.448 118.224 130.945 118.492 129.462C118.714 128.224 119.022 127.004 119.415 125.809C118.892 125.638 118.348 125.537 117.799 125.507C117.089 125.463 116.38 125.604 115.741 125.915C114.328 126.629 113.412 128.255 113.134 130.031C112.856 131.808 113.217 133.743 114.352 135.063C114.931 135.719 115.668 136.216 116.492 136.507C117.055 136.715 117.641 136.853 118.238 136.915Z" fill="#D87D61" stroke="black" stroke-miterlimit="10" stroke-linecap="round"/>
<path d="M98.7714 214.42L94.333 210.225L89.8946 206.026C88.6205 205.063 87.1208 204.442 85.5385 204.222C82.9934 203.903 79.7075 204.75 76.7886 209.426L70.9301 219.496L65.0683 229.566C64.3185 230.951 64.1177 232.568 64.5057 234.094C64.6865 234.86 65.0197 235.582 65.4855 236.217C65.9513 236.851 66.5401 237.385 67.2168 237.787C67.8935 238.189 68.6442 238.451 69.4242 238.557C70.2042 238.662 70.9975 238.61 71.7568 238.402C72.572 238.197 73.3376 237.831 74.0082 237.324C74.6788 236.817 75.2406 236.181 75.6601 235.452L79.464 229.621L83.2678 223.79L91.0196 219.091L98.7714 214.42Z" fill="#ECE7E1" stroke="black" stroke-miterlimit="10" stroke-linecap="round"/>
<path d="M51.8985 174.817C51.8986 175.625 51.6185 176.408 51.1059 177.033C50.5933 177.658 49.88 178.086 49.0873 178.245C48.2946 178.403 47.4716 178.281 46.7584 177.901C46.0452 177.52 45.4859 176.905 45.1757 176.158C44.8656 175.412 44.8237 174.581 45.0573 173.807C45.2909 173.033 45.7855 172.364 46.4568 171.914C47.1282 171.464 47.9349 171.26 48.7394 171.338C49.544 171.416 50.2968 171.77 50.8695 172.34C51.1966 172.664 51.4559 173.05 51.6326 173.475C51.8092 173.9 51.8996 174.356 51.8985 174.817Z" fill="#040400" stroke="#040400" stroke-miterlimit="10"/>
<path d="M82.793 224.548L84.6006 221.623L86.4116 218.697" stroke="black" stroke-miterlimit="10" stroke-linecap="round"/>
<path d="M234.195 171.864C234.195 171.521 233.314 171.209 231.853 170.965C229.922 170.679 227.974 170.52 226.022 170.488C225.994 168.544 225.791 166.606 225.415 164.698C225.096 163.241 224.677 162.359 224.218 162.359C223.758 162.359 223.336 163.241 223.017 164.698C222.642 166.606 222.439 168.544 222.41 170.488C220.458 170.52 218.51 170.68 216.579 170.965C215.118 171.209 214.236 171.521 214.236 171.864C214.236 172.207 215.118 172.519 216.579 172.762C218.51 173.048 220.458 173.207 222.41 173.239C222.439 175.183 222.642 177.121 223.017 179.029C223.336 180.487 223.758 181.368 224.218 181.368C224.677 181.368 225.096 180.487 225.415 179.029C225.791 177.121 225.994 175.183 226.022 173.239C227.974 173.207 229.922 173.048 231.853 172.762C233.314 172.519 234.195 172.207 234.195 171.864Z" fill="#FEC2D9" stroke="black" stroke-miterlimit="10" stroke-linecap="round"/>
<path d="M46.8564 75.9298C46.8564 75.5114 45.7794 75.1272 43.9958 74.8322C41.6399 74.4823 39.2635 74.2887 36.882 74.2526C36.8453 71.88 36.5974 69.5154 36.1411 67.1868C35.7501 65.4066 35.239 64.3296 34.6799 64.3296C34.1208 64.3296 33.6063 65.4066 33.2153 67.1868C32.759 69.5154 32.5111 71.88 32.4744 74.2526C30.093 74.2887 27.7165 74.4823 25.3606 74.8322C23.577 75.1272 22.5 75.5182 22.5 75.9298C22.5 76.3414 23.577 76.729 25.3606 77.0274C27.7089 77.3732 30.0772 77.5657 32.4504 77.6037C32.4869 79.9763 32.7348 82.3409 33.1913 84.6695C33.5823 86.4497 34.0934 87.5267 34.6559 87.5267C35.2184 87.5267 35.7261 86.4497 36.1171 84.6695C36.5736 82.3409 36.8215 79.9763 36.858 77.6037C39.2393 77.5667 41.6156 77.3743 43.9718 77.0274C45.7623 76.729 46.8564 76.3449 46.8564 75.9298Z" fill="#DBCAF4" stroke="black" stroke-miterlimit="10" stroke-linecap="round"/>
<path d="M242.25 49.4709C238.954 50.1569 236.927 50.8704 235.551 52.2424C234.176 53.6144 233.462 55.6449 232.78 58.9412C232.766 59.0147 232.728 59.0811 232.67 59.129C232.613 59.1769 232.541 59.2031 232.466 59.2031C232.391 59.2031 232.319 59.1769 232.262 59.129C232.204 59.0811 232.165 59.0147 232.152 58.9412C231.466 55.6449 230.753 53.6144 229.381 52.2424C228.009 50.8704 225.982 50.1501 222.682 49.4709C222.608 49.4576 222.542 49.4188 222.494 49.3615C222.446 49.3041 222.42 49.2318 222.42 49.1571C222.42 49.0824 222.446 49.0101 222.494 48.9527C222.542 48.8953 222.608 48.8566 222.682 48.8432C225.982 48.1572 228.009 47.4438 229.381 46.0718C230.753 44.6998 231.473 42.6692 232.152 39.373C232.165 39.2995 232.204 39.233 232.262 39.1852C232.319 39.1373 232.391 39.1111 232.466 39.1111C232.541 39.1111 232.613 39.1373 232.67 39.1852C232.728 39.233 232.766 39.2995 232.78 39.373C233.466 42.6692 234.179 44.6964 235.551 46.0718C236.923 47.4472 238.954 48.1641 242.25 48.8432C242.323 48.8566 242.39 48.8953 242.438 48.9527C242.486 49.0101 242.512 49.0824 242.512 49.1571C242.512 49.2318 242.486 49.3041 242.438 49.3615C242.39 49.4188 242.323 49.4576 242.25 49.4709Z" fill="#DBCAF4" stroke="black" stroke-miterlimit="10" stroke-linecap="round"/>
<path d="M26.7451 95.083C24.8449 95.4911 23.6581 95.9336 22.8417 96.7499C22.0254 97.5663 21.5829 98.7531 21.1748 100.653C21.1631 100.71 21.1324 100.76 21.0877 100.797C21.043 100.833 20.9872 100.853 20.9295 100.853C20.8719 100.853 20.816 100.833 20.7713 100.797C20.7266 100.76 20.6959 100.71 20.6843 100.653C20.2761 98.7531 19.8336 97.5663 19.0173 96.7499C18.201 95.9336 17.0142 95.4911 15.114 95.083C15.0575 95.0713 15.0068 95.0406 14.9704 94.9959C14.9339 94.9512 14.9141 94.8954 14.9141 94.8377C14.9141 94.7801 14.9339 94.7242 14.9704 94.6795C15.0068 94.6349 15.0575 94.6041 15.114 94.5925C17.0142 94.1843 18.201 93.7418 19.0173 92.9255C19.8336 92.1092 20.2761 90.9224 20.6843 89.0222C20.6959 88.9657 20.7266 88.915 20.7713 88.8786C20.816 88.8421 20.8719 88.8223 20.9295 88.8223C20.9872 88.8223 21.043 88.8421 21.0877 88.8786C21.1324 88.915 21.1631 88.9657 21.1748 89.0222C21.5829 90.9224 22.0254 92.1092 22.8417 92.9255C23.6581 93.7418 24.8449 94.1843 26.7451 94.5925C26.8015 94.6041 26.8523 94.6349 26.8887 94.6795C26.9251 94.7242 26.945 94.7801 26.945 94.8377C26.945 94.8954 26.9251 94.9512 26.8887 94.9959C26.8523 95.0406 26.8015 95.0713 26.7451 95.083Z" fill="#DBCAF4" stroke="black" stroke-miterlimit="10" stroke-linecap="round"/>
<path d="M234.197 191.847C233.323 191.848 232.476 191.546 231.801 190.993C231.125 190.44 230.662 189.669 230.491 188.813C230.32 187.956 230.451 187.067 230.863 186.296C231.274 185.526 231.94 184.922 232.747 184.588C233.554 184.254 234.452 184.21 235.288 184.464C236.123 184.718 236.845 185.253 237.33 185.98C237.814 186.707 238.032 187.579 237.945 188.448C237.859 189.317 237.473 190.129 236.855 190.746C236.149 191.449 235.193 191.845 234.197 191.847ZM234.197 186.383C233.799 186.382 233.414 186.519 233.107 186.771C232.799 187.022 232.589 187.373 232.511 187.762C232.433 188.152 232.493 188.556 232.68 188.906C232.868 189.257 233.171 189.531 233.538 189.683C233.905 189.835 234.314 189.854 234.693 189.738C235.073 189.622 235.401 189.378 235.621 189.047C235.841 188.716 235.939 188.319 235.899 187.924C235.859 187.529 235.683 187.16 235.401 186.88C235.243 186.722 235.055 186.597 234.848 186.511C234.642 186.426 234.42 186.382 234.197 186.383Z" fill="#FFD1DC" stroke="black" stroke-miterlimit="10" stroke-linecap="round"/>
<path d="M81.7188 181.433C81.9829 181.543 82.2607 181.653 82.5591 181.756C82.8575 181.859 83.1662 181.962 83.4921 182.058C83.9585 182.191 84.4079 182.301 84.8332 182.401C85.2585 182.5 85.6667 182.555 86.044 182.603" fill="#ECE7E1"/>
<path d="M81.7188 181.433C81.9829 181.543 82.2607 181.653 82.5591 181.756C82.8575 181.859 83.1662 181.962 83.4921 182.058C83.9585 182.191 84.4079 182.301 84.8332 182.401C85.2585 182.5 85.6667 182.555 86.044 182.603" stroke="black" stroke-miterlimit="10" stroke-linecap="round"/>
<path d="M195.375 163.22C197.614 156.645 199.456 151.246 200.736 147.493L202.735 141.625L205.136 144.664C207.194 147.267 210.967 152.042 217.827 160.726L220.191 140.455L222.55 120.184C222.347 122.437 221.831 124.651 221.017 126.763C219.557 130.69 217.022 134.127 213.701 136.682C212.106 137.908 210.358 138.92 208.501 139.694C205.336 141.034 201.875 141.523 198.462 141.114C193.197 140.462 189.3 137.787 186.666 135.163C184.98 133.498 183.548 131.595 182.416 129.513C184.296 134.446 186.18 139.376 188.069 144.304C189.957 149.231 191.857 154.157 193.766 159.08C193.972 159.608 194.27 160.377 194.565 161.138C194.86 161.899 195.158 162.688 195.375 163.22Z" fill="#DBCAF4" stroke="black" stroke-miterlimit="10" stroke-linecap="round"/>
<path d="M238.387 209.813L233.853 230.328L229.318 250.843" fill="#DBCAF4"/>
<path d="M238.387 209.813L233.853 230.328L229.318 250.843" stroke="black" stroke-miterlimit="10" stroke-linecap="round"/>
<path d="M122.35 62.498C122.439 62.4123 122.528 62.3197 122.621 62.2202C122.713 62.1207 122.799 62.0213 122.892 61.9115C123.105 61.6529 123.302 61.3814 123.482 61.0986C123.635 60.8561 123.774 60.6053 123.9 60.3474" stroke="#070707" stroke-miterlimit="10" stroke-linecap="round"/>
<path d="M35.633 164.177C35.338 163.371 35.115 162.496 34.8955 161.666C34.7118 160.9 34.4675 160.15 34.1649 159.423C33.6333 158.25 33.0022 156.816 32.1378 155.694C31.2734 154.573 30.1758 153.76 28.7078 153.835C28.7078 153.835 28.087 153.866 27.6205 154.789C27.154 155.712 26.8453 157.533 27.4593 161.066C27.8711 163.419 28.5418 165.72 29.459 167.926C30.3785 170.129 31.5282 172.228 32.889 174.189L36.439 179.334L39.9891 184.479C40.3605 185.01 40.6614 185.586 40.8843 186.194C41.1096 186.8 41.246 187.435 41.289 188.081C41.3966 188.97 41.193 189.869 40.7128 190.626C40.1846 191.349 39.2482 191.857 37.6532 191.867C38.4376 192.759 39.1209 193.734 39.6907 194.776C40.5379 196.378 41.0627 198.278 39.6907 199.472C39.1246 200.014 38.3785 200.329 37.5949 200.357C36.2778 200.398 34.429 199.643 32.2887 196.453C32.2887 196.453 31.5616 198.251 30.0969 198.998C28.6323 199.746 26.4337 199.441 23.4873 195.225C23.2028 195.722 22.778 196.124 22.2662 196.381C21.7543 196.638 21.1781 196.738 20.6096 196.669C18.6373 196.412 15.5983 194.189 11.328 186.331C10.7357 185.234 10.1275 184.144 9.50322 183.062C8.88239 181.982 8.25127 180.902 7.62015 179.828C5.58273 176.367 2.47515 170.224 1.4633 163.364C0.451454 156.504 1.49417 148.92 7.75735 142.616C9.12408 141.237 10.698 140.079 12.4222 139.186C14.1415 138.29 16.0049 137.704 17.9273 137.454C21.0024 137.046 24.1295 137.558 26.9139 138.925C30.169 140.51 33.5612 143.463 36.71 148.594C37.9018 150.561 38.9562 152.608 39.8656 154.72C41.3336 158.15 42.5856 162.308 41.7178 165.233C41.5158 165.924 41.0728 166.519 40.4693 166.911C40.174 167.105 39.843 167.239 39.4956 167.304C39.1482 167.369 38.7913 167.365 38.4456 167.291L38.3324 167.264L38.2192 167.23C37.5797 167.032 37.0183 166.638 36.6139 166.105C36.1841 165.52 35.8528 164.869 35.633 164.177Z" fill="#FFD1DC" stroke="black" stroke-miterlimit="10" stroke-linecap="round"/>
<path d="M24.1523 171.109C25.3323 173.318 26.6254 175.599 28.0385 177.931C29.4517 180.264 30.9986 182.647 32.6725 185.069C33.5071 186.267 34.3394 187.429 35.1695 188.554C35.9996 189.679 36.8331 190.77 37.6597 191.826" stroke="black" stroke-miterlimit="10" stroke-linecap="round"/>
<path d="M18.5918 174.659C18.5918 174.659 20.9928 178.878 23.9186 183.707C26.8444 188.537 30.2607 193.973 32.2946 196.398" stroke="black" stroke-miterlimit="10" stroke-linecap="round"/>
<path d="M13.3691 177.986L18.4318 186.589L23.4945 195.191" stroke="black" stroke-miterlimit="10" stroke-linecap="round"/>
<path d="M60.332 93.4365C61.6423 95.9404 62.9285 98.6055 64.1565 101.432C65.3844 104.258 66.5575 107.263 67.6379 110.398C71.2184 120.862 73.3769 131.759 74.0555 142.798C74.5836 151.373 74.2885 159.98 73.174 168.499" stroke="black" stroke-miterlimit="10" stroke-linecap="round"/>
<path d="M91.6956 84.0898C91.4559 84.5892 91.2729 85.1138 91.1502 85.6539C90.9629 86.4704 90.9234 87.3137 91.0336 88.1441C91.2259 89.5191 91.8161 90.808 92.7314 91.8519C93.2197 92.4242 93.7867 92.9243 94.4156 93.3371C94.2321 93.9573 94.1396 94.6009 94.1412 95.2476C94.1253 96.4132 94.4477 97.5584 95.0692 98.5446C95.6908 99.5308 96.5848 100.316 97.6432 100.804C98.6547 101.277 99.7715 101.479 100.885 101.391C100.887 102.069 100.995 102.743 101.207 103.387C101.608 104.714 102.469 105.855 103.635 106.604C104.525 107.167 105.548 107.484 106.6 107.524C107.652 107.563 108.695 107.323 109.624 106.827C109.793 107.446 110.013 108.05 110.283 108.632C110.644 109.409 111.093 110.144 111.62 110.82C111.926 111.212 112.258 111.582 112.615 111.928C112.914 112.22 113.229 112.495 113.558 112.751" fill="#FFDAA5"/>
<path d="M91.6956 84.0898C91.4559 84.5892 91.2729 85.1138 91.1502 85.6539C90.9629 86.4704 90.9234 87.3137 91.0336 88.1441C91.2259 89.5191 91.8161 90.808 92.7314 91.8519C93.2197 92.4242 93.7867 92.9243 94.4156 93.3371C94.2321 93.9573 94.1396 94.6009 94.1412 95.2476C94.1253 96.4132 94.4477 97.5584 95.0692 98.5446C95.6908 99.5308 96.5848 100.316 97.6432 100.804C98.6547 101.277 99.7715 101.479 100.885 101.391C100.887 102.069 100.995 102.743 101.207 103.387C101.608 104.714 102.469 105.855 103.635 106.604C104.525 107.167 105.548 107.484 106.6 107.524C107.652 107.563 108.695 107.323 109.624 106.827C109.793 107.446 110.013 108.05 110.283 108.631C110.644 109.409 111.093 110.144 111.62 110.82C111.926 111.212 112.258 111.582 112.615 111.928C112.914 112.22 113.229 112.495 113.558 112.751" stroke="#070707" stroke-miterlimit="10" stroke-linecap="round"/>
<path d="M55.5332 204.037L62.5407 195.496L69.5448 186.956" fill="#F6C34C"/>
<path d="M55.5332 204.037L62.5407 195.496L69.5447 186.956" stroke="#070707" stroke-miterlimit="10" stroke-linecap="round"/>
<path d="M114.814 94.126C115.056 94.6066 115.409 95.0228 115.843 95.3402C116.56 95.865 117.689 96.2286 119.332 95.5769" stroke="black" stroke-miterlimit="10" stroke-linecap="round"/>
<path d="M195.508 137.145C195.915 136.38 196.485 135.714 197.178 135.193C197.89 134.655 198.722 134.298 199.603 134.151C200.483 134.004 201.386 134.072 202.234 134.35C203.106 134.628 203.908 135.088 204.587 135.701" stroke="black" stroke-miterlimit="10" stroke-linecap="round"/>
<path d="M71.1233 231.494C70.7252 231.94 70.3799 232.43 70.0943 232.955C69.6504 233.761 69.3574 234.641 69.23 235.552C69.1583 236.079 69.1433 236.613 69.1854 237.143C69.2178 237.549 69.282 237.952 69.3775 238.347" stroke="black" stroke-miterlimit="10" stroke-linecap="round"/>
<path d="M67.2234 230.098C66.7877 230.602 66.4283 231.167 66.1566 231.775C65.5059 233.165 65.2827 234.717 65.5152 236.234" stroke="black" stroke-miterlimit="10" stroke-linecap="round"/>
<path d="M55.25 230.969C55.305 230.638 55.3853 230.311 55.4901 229.992C55.6143 229.602 55.7727 229.225 55.9634 228.863C56.4097 228.013 57.0221 227.261 57.7642 226.651C58.2499 226.248 58.7805 225.903 59.3454 225.622" stroke="black" stroke-miterlimit="10" stroke-linecap="round"/>
<path d="M52.9336 228.105C53.0379 227.671 53.1791 227.247 53.3555 226.836C53.599 226.266 53.9074 225.727 54.2747 225.228C54.6899 224.665 55.1778 224.16 55.7256 223.725C56.1066 223.422 56.5141 223.153 56.9433 222.923" stroke="black" stroke-miterlimit="10" stroke-linecap="round"/>
</svg>
