<svg width="17" height="17" viewBox="0 0 17 17" fill="none" xmlns="http://www.w3.org/2000/svg">
<path id="Star 6" d="M7.67513 1.20359C8.07233 0.624016 8.92766 0.624014 9.32487 1.20359L11.6493 4.59528C11.7794 4.78501 11.9708 4.92411 12.1915 4.98915L16.1355 6.15177C16.8094 6.35044 17.0737 7.1639 16.6453 7.72077L14.1379 10.9796C13.9976 11.1619 13.9245 11.3869 13.9308 11.6169L14.0438 15.7271C14.0632 16.4294 13.3712 16.9322 12.7092 16.6968L8.83505 15.3191C8.61833 15.2421 8.38167 15.2421 8.16495 15.3191L4.29083 16.6968C3.62882 16.9322 2.93684 16.4294 2.95616 15.7271L3.0692 11.6169C3.07552 11.3869 3.00239 11.1619 2.86213 10.9796L0.354744 7.72077C-0.073719 7.1639 0.190591 6.35044 0.864541 6.15177L4.80853 4.98915C5.02916 4.92411 5.22062 4.78501 5.35065 4.59528L7.67513 1.20359Z" fill="#FEBD3F"/>
</svg>
