<svg width="13" height="13" viewBox="0 0 13 13" fill="none" xmlns="http://www.w3.org/2000/svg">
<path id="Vector (Stroke)" fill-rule="evenodd" clip-rule="evenodd" d="M11.7911 1.0732C11.3343 0.685161 10.6526 0.709184 10.2249 1.12839L1.17519 9.99881L0.876606 12.1294L2.9467 11.828L11.8675 2.73411C12.3306 2.26202 12.2956 1.50181 11.7911 1.0732ZM9.65695 0.56222C10.3833 -0.14974 11.5411 -0.190526 12.3168 0.468476C13.1737 1.19637 13.2331 2.48743 12.4466 3.28918L3.43047 12.4802C3.36866 12.5432 3.28755 12.5843 3.19971 12.5971L0.462095 12.9957C0.336497 13.014 0.209518 12.9728 0.119362 12.8844C0.0292062 12.7961 -0.0136014 12.6709 0.00381888 12.5466L0.394908 9.7559C0.407043 9.66931 0.447632 9.58907 0.510427 9.52752L9.65695 0.56222ZM6.64848 12.6013C6.64848 12.3811 6.82905 12.2026 7.05179 12.2026H11.3538C11.5766 12.2026 11.7571 12.3811 11.7571 12.6013C11.7571 12.8215 11.5766 13 11.3538 13H7.05179C6.82905 13 6.64848 12.8215 6.64848 12.6013Z" fill="white"/>
</svg>
