<svg width="24" height="25" viewBox="0 0 24 25" fill="none" xmlns="http://www.w3.org/2000/svg">
<g id="icon/time">
<path id="Vector" d="M12 5.81494C16.6944 5.81494 20.5 9.62052 20.5 14.3149C20.5 19.0093 16.6944 22.8149 12 22.8149C7.30558 22.8149 3.5 19.0093 3.5 14.3149C3.5 9.62052 7.30558 5.81494 12 5.81494ZM12 7.31494C8.13401 7.31494 5 10.449 5 14.3149C5 18.1809 8.13401 21.3149 12 21.3149C15.866 21.3149 19 18.1809 19 14.3149C19 10.449 15.866 7.31494 12 7.31494ZM12 8.81494C12.3797 8.81494 12.6935 9.09709 12.7432 9.46317L12.75 9.56494V14.0649C12.75 14.4791 12.4142 14.8149 12 14.8149C11.6203 14.8149 11.3065 14.5327 11.2568 14.1667L11.25 14.0649V9.56494C11.25 9.15073 11.5858 8.81494 12 8.81494ZM19.1472 5.92865L19.2298 5.98849L20.3882 6.95267C20.7066 7.21766 20.7498 7.69056 20.4849 8.00892C20.2419 8.30075 19.8243 8.36143 19.5112 8.16541L19.4286 8.10557L18.2702 7.14139C17.9518 6.8764 17.9086 6.4035 18.1735 6.08514C18.4165 5.79331 18.8341 5.73263 19.1472 5.92865ZM14.25 3.31494C14.6642 3.31494 15 3.65073 15 4.06494C15 4.44464 14.7178 4.75843 14.3518 4.80809L14.25 4.81494H9.75C9.33579 4.81494 9 4.47915 9 4.06494C9 3.68524 9.28215 3.37145 9.64823 3.32179L9.75 3.31494H14.25Z" fill="#5C4928"/>
</g>
</svg>
