<svg width="25" height="24" viewBox="0 0 25 24" fill="none" xmlns="http://www.w3.org/2000/svg">
<path d="M18.2545 14.0002C19.4966 14.0002 20.5034 15.007 20.5034 16.2491V17.1675C20.5034 17.7409 20.3242 18.2999 19.9908 18.7664C18.4449 20.9296 15.9206 22.0013 12.5004 22.0013C9.0794 22.0013 6.55643 20.9292 5.01427 18.7648C4.68231 18.2989 4.50391 17.7411 4.50391 17.169V16.2491C4.50391 15.007 5.51076 14.0002 6.75278 14.0002H18.2545ZM12.5004 2.00488C15.2618 2.00488 17.5004 4.24346 17.5004 7.00488C17.5004 9.76631 15.2618 12.0049 12.5004 12.0049C9.73894 12.0049 7.50036 9.76631 7.50036 7.00488C7.50036 4.24346 9.73894 2.00488 12.5004 2.00488Z" fill="white"/>
</svg>
