<svg width="298" height="148" viewBox="0 0 298 148" fill="none" xmlns="http://www.w3.org/2000/svg">
<g clip-path="url(#clip0_3037_8063)">
<path d="M91.6647 34.0677C86.5471 41.2821 82.1878 49.074 75.0801 54.8856C62.9498 64.823 44.5173 67.3692 34.3652 79.3695C23.4786 92.2422 28.2645 110.49 39.9328 121.288C47.692 128.467 58.1403 133.076 68.9913 135.811C92.4939 141.788 249.265 135.163 257.036 131.744C267.461 127.159 272.14 118.4 271.382 108.498C270.197 92.2775 256.266 79.0277 241.008 70.0805C225.75 61.1333 208.396 54.8974 194.157 44.7124C186.019 38.8891 179.077 31.8869 171.306 25.6864C164.799 20.2587 157.38 16.0166 149.391 13.1556C128.162 6.01199 103.013 18.0948 91.6647 34.0677Z" fill="#FAF1E1"/>
<path d="M189.277 58.1861L142.959 27.0183C141.889 26.2921 140.624 25.9036 139.328 25.9036C138.033 25.9036 136.768 26.2921 135.697 27.0183L89.3673 58.1861V114.309C89.3625 115.405 89.5768 116.49 89.9978 117.502C90.4188 118.514 91.0381 119.432 91.8194 120.203C92.1898 120.572 92.5856 120.915 93.004 121.229L93.703 121.653C94.4252 122.028 95.1939 122.305 95.9893 122.479C96.5474 122.587 97.1146 122.642 97.6832 122.644H180.985C181.546 122.642 182.105 122.587 182.655 122.479C183.454 122.316 184.224 122.038 184.942 121.653C185.19 121.512 185.439 121.347 185.664 121.229C186.086 120.92 186.483 120.577 186.849 120.203C188.298 118.734 189.143 116.779 189.218 114.722C189.23 114.593 189.23 114.462 189.218 114.333V58.1861H189.277Z" fill="#F4E552" stroke="#111111" stroke-width="0.75" stroke-linecap="round" stroke-linejoin="round"/>
<path d="M189.277 114.31C189.288 114.439 189.288 114.569 189.277 114.699C189.202 116.756 188.357 118.711 186.907 120.18C186.541 120.553 186.145 120.896 185.723 121.206C185.498 121.324 185.249 121.489 185 121.63C184.282 122.014 183.512 122.292 182.714 122.455C182.164 122.564 181.604 122.619 181.044 122.62H97.73C97.1614 122.619 96.5942 122.564 96.0361 122.455C95.2407 122.282 94.472 122.004 93.7498 121.63L93.0509 121.206C92.6325 120.892 92.2366 120.549 91.8663 120.18C91.0849 119.409 90.4657 118.49 90.0447 117.478C89.6237 116.466 89.4093 115.381 89.4141 114.286L118.852 88.3522L135.341 73.841C136.449 72.8608 137.881 72.3193 139.363 72.3193C140.846 72.3193 142.277 72.8608 143.385 73.841L159.875 88.3522L189.312 114.286L189.277 114.31Z" stroke="#111111" stroke-width="0.75" stroke-linecap="round" stroke-linejoin="round"/>
<path d="M178.959 37.2268H113.995C113.013 37.2268 112.218 38.0185 112.218 38.995V91.8059C112.218 92.7824 113.013 93.5741 113.995 93.5741H178.959C179.94 93.5741 180.736 92.7824 180.736 91.8059V38.995C180.736 38.0185 179.94 37.2268 178.959 37.2268Z" fill="white" stroke="#111111" stroke-width="0.75" stroke-linecap="round" stroke-linejoin="round"/>
<path d="M170.916 43.1682H106.947C105.965 43.1682 105.17 43.9599 105.17 44.9364V115.123C105.17 116.1 105.965 116.891 106.947 116.891H170.916C171.897 116.891 172.693 116.1 172.693 115.123V44.9364C172.693 43.9599 171.897 43.1682 170.916 43.1682Z" fill="white" stroke="#111111" stroke-width="0.75" stroke-linecap="round" stroke-linejoin="round"/>
<path d="M113.64 54.4849H164.234" stroke="#111111" stroke-width="0.75" stroke-linecap="round" stroke-linejoin="round"/>
<path d="M113.64 64.1863H164.234" stroke="#111111" stroke-width="0.75" stroke-linecap="round" stroke-linejoin="round"/>
<path d="M113.64 73.8879H164.234" stroke="#111111" stroke-width="0.75" stroke-linecap="round" stroke-linejoin="round"/>
<path d="M122.903 83.4717H154.959" stroke="#111111" stroke-width="0.75" stroke-linecap="round" stroke-linejoin="round"/>
<path d="M228.961 147.611L251.386 102.946C251.533 102.656 251.758 102.412 252.036 102.242C252.314 102.071 252.635 101.981 252.961 101.981C253.288 101.981 253.608 102.071 253.886 102.242C254.164 102.412 254.389 102.656 254.537 102.946L277.98 147.611" stroke="#111111" stroke-width="0.75" stroke-linecap="round" stroke-linejoin="round"/>
<path d="M179.207 147.611L214.532 77.2359C214.765 76.78 215.12 76.3971 215.558 76.1297C215.996 75.8623 216.5 75.7207 217.014 75.7207C217.528 75.7207 218.032 75.8623 218.47 76.1297C218.908 76.3971 219.263 76.78 219.496 77.2359L256.443 147.611" fill="white"/>
<path d="M179.207 147.611L214.532 77.2359C214.765 76.78 215.12 76.3971 215.558 76.1297C215.996 75.8623 216.5 75.7207 217.014 75.7207C217.528 75.7207 218.032 75.8623 218.47 76.1297C218.908 76.3971 219.263 76.78 219.496 77.2359L256.443 147.611" stroke="#111111" stroke-width="0.75" stroke-linecap="round" stroke-linejoin="round"/>
<path d="M36.9717 147.611L54.7408 112.247C54.8323 112.074 54.9695 111.929 55.1376 111.828C55.3056 111.727 55.4981 111.674 55.6944 111.674C55.8907 111.674 56.0832 111.727 56.2513 111.828C56.4193 111.929 56.5565 112.074 56.648 112.247L75.2109 147.611" stroke="#111111" stroke-width="0.75" stroke-linecap="round" stroke-linejoin="round"/>
<path d="M57.8916 147.611L85.1376 93.3855C85.3177 93.0366 85.591 92.7438 85.9275 92.5394C86.264 92.335 86.6506 92.2268 87.0448 92.2268C87.439 92.2268 87.8256 92.335 88.1621 92.5394C88.4986 92.7438 88.7719 93.0366 88.952 93.3855L117.383 147.611" fill="white"/>
<path d="M57.8916 147.611L85.1376 93.3855C85.3177 93.0366 85.591 92.7438 85.9275 92.5394C86.264 92.335 86.6506 92.2268 87.0448 92.2268C87.439 92.2268 87.8256 92.335 88.1621 92.5394C88.4986 92.7438 88.7719 93.0366 88.952 93.3855L117.383 147.611" stroke="#111111" stroke-width="0.75" stroke-linecap="round" stroke-linejoin="round"/>
<path d="M57.5483 28.0912C56.3357 28.0921 55.1729 28.5711 54.3143 29.4233C54.0643 28.0588 53.3387 26.8258 52.2652 25.9412C51.1917 25.0565 49.8391 24.577 48.4453 24.5868C47.0515 24.5967 45.7059 25.0953 44.6451 25.995C43.5844 26.8948 42.8764 28.1379 42.6459 29.5058C41.6449 28.8229 40.4597 28.4572 39.2461 28.4567C37.8011 28.4938 36.4119 29.0196 35.3073 29.9473C34.2027 30.8751 33.4485 32.1496 33.169 33.5609C33.1569 33.6237 33.1588 33.6884 33.1745 33.7504C33.1903 33.8124 33.2195 33.8702 33.2602 33.9197C33.3009 33.9691 33.3521 34.0091 33.41 34.0368C33.468 34.0644 33.5313 34.079 33.5955 34.0796H62.3342C62.465 33.3667 62.4411 32.6342 62.2641 31.9313C62.087 31.2283 61.761 30.5712 61.3077 30.004C60.8544 29.4369 60.2844 28.9727 59.636 28.6428C58.9876 28.3129 58.2758 28.1248 57.5483 28.0912Z" stroke="#111111" stroke-width="0.75" stroke-linecap="round" stroke-linejoin="round"/>
<path d="M201.798 8.94727C203.009 8.95329 204.17 9.4315 205.032 10.2793C210.034 11.5184 215.299 11.1806 220.1 9.31269C221.545 9.34984 222.934 9.87562 224.039 10.8034C225.143 11.7312 225.897 13.0057 226.177 14.417C226.189 14.4798 226.187 14.5444 226.171 14.6064C226.156 14.6684 226.126 14.7262 226.086 14.7757C226.045 14.8252 225.994 14.8652 225.936 14.8928C225.878 14.9205 225.815 14.9351 225.75 14.9357H197.012C196.881 14.2228 196.905 13.4903 197.082 12.7873C197.259 12.0844 197.585 11.4273 198.038 10.8601C198.492 10.2929 199.062 9.82878 199.71 9.49886C200.358 9.16895 201.07 8.98086 201.798 8.94727Z" stroke="#111111" stroke-width="0.75" stroke-linecap="round" stroke-linejoin="round"/>
<path d="M232.16 43.1799C232.16 43.8094 231.972 44.4247 231.621 44.9481C231.269 45.4715 230.77 45.8795 230.185 46.1204C229.601 46.3613 228.958 46.4243 228.337 46.3015C227.717 46.1787 227.147 45.8756 226.7 45.4304C226.252 44.9853 225.948 44.4182 225.824 43.8008C225.701 43.1834 225.764 42.5434 226.006 41.9619C226.248 41.3803 226.658 40.8832 227.184 40.5335C227.71 40.1838 228.329 39.9971 228.961 39.9971C229.809 39.9971 230.623 40.3324 231.223 40.9293C231.823 41.5262 232.16 42.3358 232.16 43.1799Z" stroke="#FAF1E1" stroke-miterlimit="10"/>
<path d="M289.779 98.3601C289.779 98.9896 289.591 99.6049 289.24 100.128C288.888 100.652 288.389 101.06 287.804 101.301C287.22 101.541 286.577 101.605 285.956 101.482C285.336 101.359 284.766 101.056 284.319 100.611C283.871 100.166 283.567 99.5984 283.443 98.981C283.32 98.3636 283.383 97.7236 283.625 97.1421C283.867 96.5605 284.277 96.0634 284.803 95.7137C285.329 95.3639 285.948 95.1772 286.58 95.1772C287.429 95.1772 288.242 95.5126 288.842 96.1095C289.442 96.7064 289.779 97.5159 289.779 98.3601Z" stroke="#FAF1E1" stroke-miterlimit="10"/>
<path d="M92.1393 5.09243C92.1393 5.98305 91.8739 6.85368 91.3766 7.59421C90.8794 8.33473 90.1727 8.91188 89.3458 9.2527C88.5189 9.59353 87.609 9.6827 86.7312 9.50895C85.8534 9.3352 85.0472 8.90634 84.4143 8.27657C83.7814 7.64681 83.3504 6.84444 83.1758 5.97093C83.0012 5.09742 83.0908 4.19201 83.4333 3.36918C83.7758 2.54635 84.3559 1.84308 85.1 1.34827C85.8442 0.853471 86.7191 0.589355 87.6141 0.589355C88.8142 0.589355 89.9653 1.0638 90.8139 1.90829C91.6625 2.75278 92.1393 3.89814 92.1393 5.09243Z" stroke="#FAF1E1" stroke-miterlimit="10"/>
<path d="M20.731 84.5444C20.7334 85.1772 20.5468 85.7965 20.195 86.3236C19.8431 86.8508 19.3419 87.2621 18.7548 87.5053C18.1677 87.7486 17.5212 87.8128 16.8974 87.6899C16.2736 87.5671 15.7005 87.2626 15.2508 86.8151C14.8011 86.3676 14.4951 85.7973 14.3717 85.1765C14.2482 84.5557 14.3127 83.9124 14.5572 83.3282C14.8016 82.744 15.2149 82.2452 15.7447 81.8951C16.2744 81.545 16.8967 81.3593 17.5327 81.3616C18.3809 81.3616 19.1945 81.6969 19.7943 82.2938C20.3941 82.8907 20.731 83.7003 20.731 84.5444Z" stroke="#FAF1E1" stroke-miterlimit="10"/>
<path d="M250.213 31.8516H267.615" stroke="#111111" stroke-width="0.75" stroke-linecap="round" stroke-linejoin="round"/>
<path d="M276.203 38.783H297.55" stroke="#111111" stroke-width="0.75" stroke-linecap="round" stroke-linejoin="round"/>
<path d="M265.494 38.783H270.742" stroke="#111111" stroke-width="0.75" stroke-linecap="round" stroke-linejoin="round"/>
<path d="M23.7988 3.54834H41.2007" stroke="#111111" stroke-width="0.75" stroke-linecap="round" stroke-linejoin="round"/>
<path d="M12.9951 10.4678H32.5056" stroke="#111111" stroke-width="0.75" stroke-linecap="round" stroke-linejoin="round"/>
<path d="M0.450195 10.4678H6.70493" stroke="#111111" stroke-width="0.75" stroke-linecap="round" stroke-linejoin="round"/>
<path d="M122.524 131.626H137.901" stroke="#111111" stroke-width="0.75" stroke-linecap="round" stroke-linejoin="round"/>
<path d="M148.349 131.626H156.049" stroke="#111111" stroke-width="0.75" stroke-linecap="round" stroke-linejoin="round"/>
<path d="M141.336 131.626H144.771" stroke="#111111" stroke-width="0.75" stroke-linecap="round" stroke-linejoin="round"/>
<path d="M149.249 140.055H150.623" stroke="#111111" stroke-width="0.75" stroke-linecap="round" stroke-linejoin="round"/>
<path d="M132.131 140.055H146.287" stroke="#111111" stroke-width="0.75" stroke-linecap="round" stroke-linejoin="round"/>
<path d="M152.27 122.62H97.778C97.2093 122.619 96.6421 122.564 96.084 122.455C95.2886 122.282 94.5199 122.004 93.7977 121.63L93.0987 121.206C92.6803 120.892 92.2845 120.549 91.9141 120.18C91.1328 119.409 90.5135 118.49 90.0925 117.478C89.6715 116.466 89.4572 115.381 89.462 114.286V58.1863L118.9 88.3639L139.429 109.37L152.27 122.62Z" fill="#F4E552" stroke="#111111" stroke-width="0.75" stroke-linecap="round" stroke-linejoin="round"/>
<path d="M189.276 58.1863V114.286V114.699C189.202 116.756 188.356 118.711 186.907 120.18C186.545 120.558 186.149 120.901 185.723 121.206C185.498 121.324 185.249 121.489 185 121.63C184.282 122.014 183.512 122.292 182.714 122.455C182.164 122.564 181.604 122.619 181.043 122.62H126.397L139.345 109.37L159.839 88.3639L189.051 58.4338L189.276 58.1863Z" fill="#F4E552" stroke="#111111" stroke-width="0.75" stroke-linecap="round" stroke-linejoin="round"/>
<path d="M189.276 58.1863V114.286V114.699C189.202 116.756 188.356 118.711 186.907 120.18C186.545 120.558 186.149 120.901 185.723 121.206C185.498 121.324 185.249 121.489 185 121.63C184.282 122.014 183.512 122.292 182.714 122.455C182.164 122.564 181.604 122.619 181.043 122.62H126.397L132.131 116.726H173.035C173.596 116.726 174.156 116.67 174.706 116.561C175.507 116.402 176.278 116.119 176.992 115.724C177.241 115.583 177.501 115.418 177.715 115.312C178.141 115.007 178.537 114.664 178.899 114.286C180.351 112.814 181.196 110.854 181.269 108.793V108.38V66.2611L188.921 58.4102L189.276 58.1863Z" fill="#FEC35A"/>
<path d="M189.276 58.1863V114.286V114.699C189.202 116.756 188.356 118.711 186.907 120.18C186.545 120.558 186.149 120.901 185.723 121.206C185.498 121.324 185.249 121.489 185 121.63C184.282 122.014 183.512 122.292 182.714 122.455C182.164 122.564 181.604 122.619 181.043 122.62H126.397L139.345 109.37L159.839 88.3639L189.051 58.4338L189.276 58.1863Z" stroke="#111111" stroke-width="0.75" stroke-linecap="round" stroke-linejoin="round"/>
<path d="M235.121 147.564H294.6" stroke="#111111" stroke-width="0.75" stroke-linecap="round" stroke-linejoin="round"/>
<path d="M222.825 147.564H228.961" stroke="#111111" stroke-width="0.75" stroke-linecap="round" stroke-linejoin="round"/>
<path d="M3.9209 147.564H213.999" stroke="#111111" stroke-width="0.75" stroke-linecap="round" stroke-linejoin="round"/>
<path d="M206.359 118.907C206.361 122.266 205.363 125.551 203.489 128.346C201.615 131.141 198.951 133.32 195.832 134.608C192.714 135.896 189.282 136.234 185.97 135.581C182.659 134.928 179.616 133.312 177.227 130.938C174.838 128.564 173.21 125.539 172.549 122.244C171.888 118.949 172.224 115.534 173.514 112.429C174.803 109.324 176.99 106.67 179.795 104.801C182.601 102.933 185.901 101.934 189.277 101.932C191.519 101.93 193.739 102.368 195.811 103.22C197.882 104.073 199.765 105.323 201.351 106.899C202.937 108.475 204.196 110.347 205.055 112.407C205.915 114.467 206.358 116.676 206.359 118.907Z" fill="white" stroke="#111111" stroke-width="0.75" stroke-linecap="round" stroke-linejoin="round"/>
<path d="M95.8699 91.2991C96.0002 92.195 96.3437 93.2913 97.244 93.421C97.5126 93.4375 97.7807 93.3802 98.0188 93.2555C98.257 93.1308 98.4561 92.9434 98.5945 92.7137C98.867 92.2477 99.0366 91.7293 99.092 91.193C99.8037 87.0996 99.7071 82.9075 98.8077 78.8509C98.6722 77.9311 98.2918 77.0641 97.706 76.34C96.9597 75.5737 95.5856 75.279 95.171 76.34C94.6853 77.6367 95.0525 79.8764 95.0762 81.232C95.1187 84.6014 95.3839 87.9644 95.8699 91.2991Z" fill="#FDF8CE"/>
<path d="M196.775 118.518C194.657 121.351 192.135 123.86 189.289 125.968C186.443 123.863 183.924 121.353 181.814 118.518C180.76 116.95 179.954 114.805 180.997 113.225C182.039 111.645 184.373 111.516 186.007 112.4C187.243 113.253 188.331 114.3 189.23 115.5C190.13 114.298 191.223 113.251 192.464 112.4C194.086 111.516 196.456 111.657 197.463 113.225C198.469 114.793 197.83 116.962 196.775 118.518Z" fill="#FAF1E1"/>
<path d="M189.23 115.5C188.331 114.3 187.243 113.253 186.007 112.4C184.373 111.516 182.039 111.645 180.997 113.225C179.954 114.805 180.76 116.95 181.814 118.518C183.924 121.353 186.443 123.863 189.289 125.968C192.135 123.86 194.657 121.351 196.775 118.518C197.83 116.962 198.469 114.793 197.463 113.225C196.456 111.657 194.086 111.516 192.464 112.4C191.223 113.251 190.13 114.298 189.23 115.5ZM189.23 115.5V115.418" stroke="#111111" stroke-width="0.75" stroke-linecap="round" stroke-linejoin="round"/>
</g>
<defs>
<clipPath id="clip0_3037_8063">
<rect width="298" height="148" fill="white"/>
</clipPath>
</defs>
</svg>
