<svg width="75" height="76" viewBox="0 0 75 76" fill="none" xmlns="http://www.w3.org/2000/svg">
<circle cx="37.5002" cy="37.9074" r="36.9074" stroke="#E6C481"/>
<g filter="url(#filter0_d_3126_9495)">
<circle cx="37.129" cy="38.2779" r="23.7037" fill="#E8C889"/>
<path fill-rule="evenodd" clip-rule="evenodd" d="M36.6154 25C37.5075 25 38.2308 25.7232 38.2308 26.6154V41.6923C38.2308 42.5845 37.5075 43.3077 36.6154 43.3077C35.7232 43.3077 35 42.5845 35 41.6923V26.6154C35 25.7232 35.7232 25 36.6154 25ZM36.6154 46.5169C37.5075 46.5169 38.2308 47.2402 38.2308 48.1323V48.1538C38.2308 49.046 37.5075 49.7692 36.6154 49.7692C35.7232 49.7692 35 49.046 35 48.1538V48.1323C35 47.2402 35.7232 46.5169 36.6154 46.5169Z" fill="white"/>
</g>
<defs>
<filter id="filter0_d_3126_9495" x="1.42529" y="3.57422" width="71.4072" height="71.4072" filterUnits="userSpaceOnUse" color-interpolation-filters="sRGB">
<feFlood flood-opacity="0" result="BackgroundImageFix"/>
<feColorMatrix in="SourceAlpha" type="matrix" values="0 0 0 0 0 0 0 0 0 0 0 0 0 0 0 0 0 0 127 0" result="hardAlpha"/>
<feOffset dy="1"/>
<feGaussianBlur stdDeviation="6"/>
<feComposite in2="hardAlpha" operator="out"/>
<feColorMatrix type="matrix" values="0 0 0 0 0 0 0 0 0 0 0 0 0 0 0 0 0 0 0.08 0"/>
<feBlend mode="normal" in2="BackgroundImageFix" result="effect1_dropShadow_3126_9495"/>
<feBlend mode="normal" in="SourceGraphic" in2="effect1_dropShadow_3126_9495" result="shape"/>
</filter>
</defs>
</svg>
